<?xml version="1.0" encoding="UTF-8" standalone="no"?>
<!DOCTYPE svg PUBLIC "-//W3C//DTD SVG 1.1//EN" "http://www.w3.org/Graphics/SVG/1.1/DTD/svg11.dtd">
<svg width="100%" height="100%" viewBox="0 0 900 400" version="1.1" xmlns="http://www.w3.org/2000/svg" xmlns:xlink="http://www.w3.org/1999/xlink" xml:space="preserve" xmlns:serif="http://www.serif.com/" style="fill-rule:evenodd;clip-rule:evenodd;stroke-linejoin:round;stroke-miterlimit:2;">
    <g transform="matrix(1,0,0,1,5.95813,5.95813)">
        <g id="rest">
            <path d="M70.729,146.792L70.729,162.143L58.99,162.143L49.961,171.172L53.572,219.03L40.931,230.769L53.572,242.508L49.961,290.366L58.99,299.395L70.729,299.395L70.729,314.746L51.766,314.746L33.707,294.88L37.319,246.12L26.483,236.187L26.483,225.351L37.319,215.418L33.707,166.657L51.766,146.792L70.729,146.792Z" style="fill:rgb(26,184,138);"/>
            <path d="M603.244,146.792L603.244,162.143L614.983,162.143L624.012,171.172L620.4,219.03L633.042,230.769L620.4,242.508L624.012,290.366L614.983,299.395L603.244,299.395L603.244,314.746L622.206,314.746L640.266,294.88L636.654,246.12L647.49,236.187L647.49,225.351L636.654,215.418L640.266,166.657L622.206,146.792L603.244,146.792Z" style="fill:rgb(26,184,138);"/>
            <path d="M225.499,183.698L225.499,220.83L207.683,238.646L197.931,238.646L218.935,280.277L230.936,280.277L230.936,296.406L190.618,296.406L190.618,280.277L201.87,280.277L180.865,238.646L161.738,238.646L161.738,280.277L173.177,280.277L173.177,296.406L131.919,296.406L131.919,280.277L145.609,280.277L145.609,181.448L131.919,181.448L131.919,165.132L207.12,165.132L225.499,183.698ZM161.738,181.448L161.738,226.268L199.994,226.268L209.371,216.892L209.371,190.825L199.994,181.448L161.738,181.448Z" style="fill:rgb(2,159,198);fill-rule:nonzero;"/>
            <path d="M335.392,199.076L321.702,199.076L321.702,181.448L272.944,181.448L272.944,221.392L306.137,221.392L306.137,212.578L317.764,212.578L317.764,242.396L306.137,242.396L306.137,233.582L272.944,233.582L272.944,280.277L321.89,280.277L321.89,262.65L335.58,262.65L335.58,296.406L243.127,296.406L243.127,280.277L256.817,280.277L256.817,181.448L243.127,181.448L243.127,165.132L335.392,165.132L335.392,199.076Z" style="fill:rgb(2,159,198);fill-rule:nonzero;"/>
            <path d="M433.472,183.698L433.472,202.264L417.344,202.264L417.344,190.825L407.78,181.26L377.212,181.26L367.648,190.825L367.648,214.078L374.774,220.83L419.782,220.83L434.785,235.457L434.785,276.902L415.281,296.406L371.024,296.406L351.52,276.902L351.52,252.897L367.648,252.897L367.648,270.151L377.774,280.277L408.53,280.277L418.469,270.151L418.469,242.958L411.718,236.02L366.71,236.02L351.52,221.018L351.52,183.698L370.086,165.132L415.094,165.132L433.472,183.698Z" style="fill:rgb(2,159,198);fill-rule:nonzero;"/>
            <path d="M542.053,203.577L528.176,203.577L528.176,180.51L502.484,180.51L502.484,280.277L518.049,280.277L518.049,296.406L470.79,296.406L470.79,280.277L486.356,280.277L486.356,180.51L460.664,180.51L460.664,203.577L446.786,203.577L446.786,165.132L542.053,165.132L542.053,203.577Z" style="fill:rgb(2,159,198);fill-rule:nonzero;"/>
        </g>
    </g>
    <rect id="hr" x="56.06" y="334.281" width="787.881" height="0.786" style="fill:rgb(68,68,68);"/>
    <path id="slogan" d="M217.332,363.376C217.332,364.22 217.03,364.892 216.426,365.393C215.823,365.894 215.002,366.144 213.965,366.144C212.952,366.144 212.058,365.925 211.285,365.485L211.285,364.545C211.718,364.814 212.167,365.022 212.629,365.169C213.092,365.315 213.526,365.389 213.93,365.389C214.739,365.389 215.357,365.22 215.785,364.883C216.212,364.546 216.426,364.067 216.426,363.446C216.426,363.2 216.381,362.983 216.29,362.796C216.199,362.608 216.053,362.428 215.851,362.255C215.648,362.082 215.26,361.832 214.686,361.504C213.819,361.035 213.233,360.609 212.928,360.225C212.624,359.841 212.471,359.374 212.471,358.823C212.471,358.073 212.76,357.459 213.337,356.982C213.914,356.504 214.674,356.265 215.618,356.265C216.057,356.265 216.521,356.317 217.011,356.419C217.5,356.522 217.912,356.658 218.246,356.828L217.938,357.601C217.141,357.226 216.368,357.039 215.618,357.039C214.938,357.039 214.393,357.194 213.983,357.505C213.573,357.815 213.368,358.22 213.368,358.718C213.368,359.04 213.417,359.298 213.517,359.491C213.617,359.684 213.794,359.885 214.049,360.093C214.304,360.301 214.654,360.525 215.099,360.765C215.767,361.135 216.24,361.438 216.519,361.675C216.797,361.912 217.002,362.166 217.134,362.435C217.266,362.705 217.332,363.018 217.332,363.376Z" style="fill:rgb(68,68,68);fill-rule:nonzero;"/>
    <path d="M222.71,366.109C221.363,366.109 220.545,365.468 220.258,364.184L220.223,364.184C220.147,364.606 219.71,366.642 218.914,370.293L218.043,370.293L220.997,356.415L221.717,356.415L221.322,358.823L221.375,358.823C221.908,357.927 222.48,357.27 223.093,356.854C223.705,356.438 224.375,356.23 225.101,356.23C225.892,356.23 226.501,356.501 226.929,357.043C227.357,357.585 227.571,358.413 227.571,359.526C227.571,360.669 227.36,361.756 226.938,362.787C226.516,363.818 225.938,364.63 225.202,365.222C224.467,365.813 223.636,366.109 222.71,366.109ZM224.908,357.021C224.398,357.021 223.888,357.193 223.378,357.535C222.869,357.878 222.396,358.369 221.959,359.008C221.522,359.646 221.199,360.342 220.988,361.095C220.777,361.848 220.671,362.459 220.671,362.928C220.671,363.66 220.852,364.247 221.212,364.69C221.572,365.132 222.066,365.353 222.693,365.353C223.419,365.353 224.079,365.107 224.67,364.615C225.262,364.123 225.743,363.41 226.112,362.475C226.481,361.54 226.666,360.587 226.666,359.614C226.666,357.886 226.08,357.021 224.908,357.021Z" style="fill:rgb(68,68,68);fill-rule:nonzero;"/>
    <path d="M232.554,366.144C231.541,366.144 230.75,365.824 230.181,365.182C229.613,364.54 229.329,363.645 229.329,362.497C229.329,361.436 229.537,360.42 229.953,359.447C230.369,358.474 230.941,357.701 231.671,357.127C232.4,356.553 233.205,356.265 234.083,356.265C234.751,356.265 235.285,356.444 235.683,356.802C236.082,357.159 236.281,357.645 236.281,358.261C236.281,359.321 235.802,360.13 234.844,360.686C233.886,361.243 232.463,361.521 230.577,361.521L230.287,361.521C230.251,361.779 230.234,362.066 230.234,362.383C230.234,363.349 230.451,364.086 230.884,364.593C231.318,365.1 231.942,365.353 232.756,365.353C233.53,365.353 234.338,365.14 235.182,364.712L235.182,365.538C234.362,365.942 233.486,366.144 232.554,366.144ZM233.978,357.021C233.21,357.021 232.497,357.36 231.838,358.036C231.179,358.713 230.703,359.617 230.41,360.748L230.84,360.748C233.87,360.748 235.384,359.957 235.384,358.375C235.384,357.982 235.257,357.659 235.002,357.404C234.747,357.149 234.406,357.021 233.978,357.021Z" style="fill:rgb(68,68,68);fill-rule:nonzero;"/>
    <path d="M240.71,366.144C239.697,366.144 238.906,365.824 238.337,365.182C237.769,364.54 237.485,363.645 237.485,362.497C237.485,361.436 237.693,360.42 238.109,359.447C238.525,358.474 239.098,357.701 239.827,357.127C240.557,356.553 241.361,356.265 242.24,356.265C242.908,356.265 243.441,356.444 243.839,356.802C244.238,357.159 244.437,357.645 244.437,358.261C244.437,359.321 243.958,360.13 243,360.686C242.042,361.243 240.62,361.521 238.733,361.521L238.443,361.521C238.408,361.779 238.39,362.066 238.39,362.383C238.39,363.349 238.607,364.086 239.041,364.593C239.474,365.1 240.098,365.353 240.913,365.353C241.686,365.353 242.495,365.14 243.338,364.712L243.338,365.538C242.518,365.942 241.642,366.144 240.71,366.144ZM242.134,357.021C241.367,357.021 240.653,357.36 239.994,358.036C239.335,358.713 238.859,359.617 238.566,360.748L238.997,360.748C242.026,360.748 243.541,359.957 243.541,358.375C243.541,357.982 243.413,357.659 243.158,357.404C242.903,357.149 242.562,357.021 242.134,357.021Z" style="fill:rgb(68,68,68);fill-rule:nonzero;"/>
    <path d="M250.501,356.265C251.849,356.265 252.667,356.907 252.954,358.19L252.989,358.19C253.059,357.804 253.478,355.838 254.246,352.293L255.116,352.293L252.215,365.969L251.495,365.969L251.89,363.56L251.837,363.56C250.824,365.283 249.582,366.144 248.111,366.144C246.464,366.144 245.641,365.049 245.641,362.857C245.641,361.726 245.851,360.642 246.27,359.605C246.688,358.568 247.267,357.752 248.005,357.158C248.744,356.563 249.576,356.265 250.501,356.265ZM248.313,365.353C248.834,365.353 249.357,365.17 249.882,364.804C250.406,364.438 250.875,363.946 251.288,363.327C251.701,362.709 252.013,362.033 252.224,361.297C252.435,360.562 252.541,359.948 252.541,359.456C252.541,358.718 252.36,358.127 252,357.685C251.64,357.243 251.146,357.021 250.519,357.021C249.792,357.021 249.136,357.265 248.55,357.751C247.964,358.237 247.484,358.948 247.109,359.882C246.734,360.817 246.546,361.776 246.546,362.761C246.546,364.489 247.135,365.353 248.313,365.353Z" style="fill:rgb(68,68,68);fill-rule:nonzero;"/>
    <path d="M262.727,356.415L261.391,362.55C261.262,363.171 261.198,363.634 261.198,363.938C261.198,364.372 261.337,364.716 261.615,364.971C261.894,365.226 262.299,365.353 262.833,365.353C263.477,365.353 264.085,365.161 264.656,364.778C265.228,364.394 265.708,363.846 266.098,363.134C266.487,362.422 266.779,361.603 266.972,360.678L267.895,356.415L268.756,356.415L266.726,365.969L266.023,365.969L266.269,364.167L266.216,364.167C265.238,365.462 264.057,366.109 262.674,366.109C261.907,366.109 261.325,365.928 260.93,365.564C260.534,365.201 260.336,364.671 260.336,363.973C260.336,363.622 260.401,363.124 260.53,362.479L261.848,356.415L262.727,356.415Z" style="fill:rgb(68,68,68);fill-rule:nonzero;"/>
    <path d="M273.801,366.109C272.454,366.109 271.636,365.468 271.349,364.184L271.314,364.184C271.238,364.606 270.801,366.642 270.004,370.293L269.134,370.293L272.087,356.415L272.808,356.415L272.413,358.823L272.465,358.823C272.999,357.927 273.571,357.27 274.184,356.854C274.796,356.438 275.465,356.23 276.192,356.23C276.983,356.23 277.592,356.501 278.02,357.043C278.448,357.585 278.662,358.413 278.662,359.526C278.662,360.669 278.451,361.756 278.029,362.787C277.607,363.818 277.028,364.63 276.293,365.222C275.558,365.813 274.727,366.109 273.801,366.109ZM275.999,357.021C275.489,357.021 274.979,357.193 274.469,357.535C273.959,357.878 273.486,358.369 273.05,359.008C272.613,359.646 272.29,360.342 272.079,361.095C271.868,361.848 271.762,362.459 271.762,362.928C271.762,363.66 271.942,364.247 272.303,364.69C272.663,365.132 273.157,365.353 273.784,365.353C274.51,365.353 275.169,365.107 275.761,364.615C276.353,364.123 276.833,363.41 277.203,362.475C277.572,361.54 277.756,360.587 277.756,359.614C277.756,357.886 277.17,357.021 275.999,357.021Z" style="fill:rgb(68,68,68);fill-rule:nonzero;"/>
    <path d="M289.956,356.265C291.303,356.265 292.121,356.907 292.408,358.19L292.443,358.19C292.513,357.804 292.932,355.838 293.7,352.293L294.57,352.293L291.669,365.969L290.949,365.969L291.344,363.56L291.292,363.56C290.278,365.283 289.036,366.144 287.565,366.144C285.918,366.144 285.095,365.049 285.095,362.857C285.095,361.726 285.305,360.642 285.724,359.605C286.143,358.568 286.721,357.752 287.459,357.158C288.198,356.563 289.03,356.265 289.956,356.265ZM287.767,365.353C288.289,365.353 288.812,365.17 289.336,364.804C289.86,364.438 290.329,363.946 290.742,363.327C291.155,362.709 291.467,362.033 291.678,361.297C291.889,360.562 291.995,359.948 291.995,359.456C291.995,358.718 291.814,358.127 291.454,357.685C291.094,357.243 290.6,357.021 289.973,357.021C289.247,357.021 288.59,357.265 288.004,357.751C287.418,358.237 286.938,358.948 286.563,359.882C286.188,360.817 286,361.776 286,362.761C286,364.489 286.589,365.353 287.767,365.353Z" style="fill:rgb(68,68,68);fill-rule:nonzero;"/>
    <path d="M298.279,366.144C297.265,366.144 296.474,365.824 295.906,365.182C295.337,364.54 295.053,363.645 295.053,362.497C295.053,361.436 295.261,360.42 295.677,359.447C296.093,358.474 296.666,357.701 297.396,357.127C298.125,356.553 298.929,356.265 299.808,356.265C300.476,356.265 301.009,356.444 301.408,356.802C301.806,357.159 302.005,357.645 302.005,358.261C302.005,359.321 301.526,360.13 300.568,360.686C299.61,361.243 298.188,361.521 296.301,361.521L296.011,361.521C295.976,361.779 295.958,362.066 295.958,362.383C295.958,363.349 296.175,364.086 296.609,364.593C297.042,365.1 297.667,365.353 298.481,365.353C299.254,365.353 300.063,365.14 300.907,364.712L300.907,365.538C300.086,365.942 299.21,366.144 298.279,366.144ZM299.703,357.021C298.935,357.021 298.222,357.36 297.563,358.036C296.903,358.713 296.427,359.617 296.134,360.748L296.565,360.748C299.594,360.748 301.109,359.957 301.109,358.375C301.109,357.982 300.981,357.659 300.727,357.404C300.472,357.149 300.13,357.021 299.703,357.021Z" style="fill:rgb(68,68,68);fill-rule:nonzero;"/>
    <path d="M304.378,365.969L302.867,356.415L303.754,356.415L304.704,362.875C304.856,363.842 304.953,364.586 304.994,365.107L305.046,365.107C305.345,364.433 305.723,363.683 306.18,362.857L309.749,356.415L310.645,356.415L305.372,365.969L304.378,365.969Z" style="fill:rgb(68,68,68);fill-rule:nonzero;"/>
    <path d="M313.941,366.144C312.927,366.144 312.136,365.824 311.568,365.182C311,364.54 310.715,363.645 310.715,362.497C310.715,361.436 310.923,360.42 311.339,359.447C311.755,358.474 312.328,357.701 313.058,357.127C313.787,356.553 314.591,356.265 315.47,356.265C316.138,356.265 316.671,356.444 317.07,356.802C317.468,357.159 317.667,357.645 317.667,358.261C317.667,359.321 317.188,360.13 316.23,360.686C315.272,361.243 313.85,361.521 311.963,361.521L311.673,361.521C311.638,361.779 311.621,362.066 311.621,362.383C311.621,363.349 311.837,364.086 312.271,364.593C312.705,365.1 313.329,365.353 314.143,365.353C314.917,365.353 315.725,365.14 316.569,364.712L316.569,365.538C315.749,365.942 314.873,366.144 313.941,366.144ZM315.365,357.021C314.597,357.021 313.884,357.36 313.225,358.036C312.565,358.713 312.089,359.617 311.796,360.748L312.227,360.748C315.256,360.748 316.771,359.957 316.771,358.375C316.771,357.982 316.644,357.659 316.389,357.404C316.134,357.149 315.792,357.021 315.365,357.021Z" style="fill:rgb(68,68,68);fill-rule:nonzero;"/>
    <path d="M319.469,365.969L318.643,365.969L321.579,352.293L322.405,352.293L319.469,365.969Z" style="fill:rgb(68,68,68);fill-rule:nonzero;"/>
    <path d="M327.854,356.23C328.909,356.23 329.725,356.548 330.302,357.184C330.879,357.82 331.167,358.697 331.167,359.816C331.167,360.971 330.958,362.05 330.539,363.055C330.12,364.06 329.547,364.826 328.821,365.353C328.094,365.881 327.256,366.144 326.307,366.144C325.229,366.144 324.41,365.824 323.851,365.182C323.291,364.54 323.011,363.622 323.011,362.427C323.011,361.307 323.225,360.259 323.653,359.28C324.081,358.302 324.658,357.549 325.384,357.021C326.111,356.494 326.934,356.23 327.854,356.23ZM327.784,356.986C327.057,356.986 326.404,357.216 325.824,357.676C325.244,358.136 324.781,358.795 324.435,359.654C324.089,360.512 323.917,361.422 323.917,362.383C323.917,364.387 324.743,365.389 326.395,365.389C327.139,365.389 327.8,365.161 328.377,364.707C328.954,364.253 329.414,363.585 329.757,362.703C330.1,361.822 330.271,360.853 330.271,359.799C330.271,358.896 330.057,358.202 329.629,357.716C329.202,357.229 328.586,356.986 327.784,356.986Z" style="fill:rgb(68,68,68);fill-rule:nonzero;"/>
    <path d="M336.406,366.109C335.058,366.109 334.241,365.468 333.954,364.184L333.918,364.184C333.842,364.606 333.406,366.642 332.609,370.293L331.739,370.293L334.692,356.415L335.413,356.415L335.017,358.823L335.07,358.823C335.603,357.927 336.176,357.27 336.788,356.854C337.4,356.438 338.07,356.23 338.796,356.23C339.587,356.23 340.197,356.501 340.625,357.043C341.052,357.585 341.266,358.413 341.266,359.526C341.266,360.669 341.055,361.756 340.633,362.787C340.211,363.818 339.633,364.63 338.897,365.222C338.162,365.813 337.332,366.109 336.406,366.109ZM338.603,357.021C338.093,357.021 337.583,357.193 337.074,357.535C336.564,357.878 336.091,358.369 335.654,359.008C335.218,359.646 334.894,360.342 334.683,361.095C334.472,361.848 334.367,362.459 334.367,362.928C334.367,363.66 334.547,364.247 334.907,364.69C335.268,365.132 335.761,365.353 336.388,365.353C337.115,365.353 337.774,365.107 338.366,364.615C338.958,364.123 339.438,363.41 339.807,362.475C340.176,361.54 340.361,360.587 340.361,359.614C340.361,357.886 339.775,357.021 338.603,357.021Z" style="fill:rgb(68,68,68);fill-rule:nonzero;"/>
    <path d="M348.376,365.969L349.668,360.045C349.815,359.312 349.888,358.838 349.888,358.621C349.888,357.555 349.437,357.021 348.535,357.021C347.914,357.021 347.328,357.219 346.777,357.615C346.226,358.01 345.76,358.562 345.379,359.271C344.999,359.98 344.706,360.821 344.5,361.794L343.622,365.969L342.76,365.969L344.791,356.415L345.494,356.415L345.204,358.261L345.256,358.261C345.725,357.598 346.257,357.1 346.852,356.766C347.446,356.432 348.069,356.265 348.719,356.265C349.34,356.265 349.818,356.462 350.152,356.854C350.486,357.247 350.662,357.818 350.679,358.568L350.732,358.568C351.183,357.812 351.713,357.24 352.323,356.85C352.932,356.46 353.583,356.265 354.274,356.265C354.959,356.265 355.494,356.446 355.878,356.806C356.262,357.166 356.454,357.683 356.454,358.357C356.454,358.527 356.446,358.693 356.432,358.854C356.417,359.015 356.36,359.365 356.26,359.904L354.924,365.969L354.045,365.969L355.355,359.992C355.501,359.289 355.575,358.773 355.575,358.445C355.575,357.994 355.449,357.644 355.197,357.395C354.945,357.146 354.596,357.021 354.151,357.021C353.231,357.021 352.418,357.424 351.712,358.23C351.006,359.035 350.512,360.098 350.231,361.416L349.273,365.969L348.376,365.969Z" style="fill:rgb(68,68,68);fill-rule:nonzero;"/>
    <path d="M361.639,366.144C360.625,366.144 359.834,365.824 359.266,365.182C358.698,364.54 358.414,363.645 358.414,362.497C358.414,361.436 358.622,360.42 359.038,359.447C359.454,358.474 360.026,357.701 360.756,357.127C361.485,356.553 362.29,356.265 363.168,356.265C363.836,356.265 364.37,356.444 364.768,356.802C365.167,357.159 365.366,357.645 365.366,358.261C365.366,359.321 364.887,360.13 363.929,360.686C362.971,361.243 361.548,361.521 359.662,361.521L359.372,361.521C359.336,361.779 359.319,362.066 359.319,362.383C359.319,363.349 359.536,364.086 359.969,364.593C360.403,365.1 361.027,365.353 361.841,365.353C362.615,365.353 363.423,365.14 364.267,364.712L364.267,365.538C363.447,365.942 362.571,366.144 361.639,366.144ZM363.063,357.021C362.295,357.021 361.582,357.36 360.923,358.036C360.264,358.713 359.788,359.617 359.495,360.748L359.925,360.748C362.955,360.748 364.469,359.957 364.469,358.375C364.469,357.982 364.342,357.659 364.087,357.404C363.832,357.149 363.491,357.021 363.063,357.021Z" style="fill:rgb(68,68,68);fill-rule:nonzero;"/>
    <path d="M372.388,365.969L373.698,359.887C373.821,359.348 373.882,358.89 373.882,358.515C373.882,358.047 373.755,357.681 373.5,357.417C373.245,357.153 372.851,357.021 372.318,357.021C371.662,357.021 371.045,357.218 370.468,357.61C369.891,358.003 369.404,358.552 369.009,359.258C368.613,359.964 368.31,360.804 368.099,361.776L367.203,365.969L366.341,365.969L368.372,356.415L369.092,356.415L368.767,358.357L368.82,358.357C369.781,356.963 371,356.265 372.476,356.265C373.238,356.265 373.809,356.453 374.19,356.828C374.571,357.203 374.761,357.742 374.761,358.445C374.761,358.855 374.691,359.389 374.55,360.045L373.25,365.969L372.388,365.969Z" style="fill:rgb(68,68,68);fill-rule:nonzero;"/>
    <path d="M381.819,356.415L381.661,357.127L379.173,357.127L377.987,362.708C377.858,363.288 377.793,363.768 377.793,364.149C377.793,364.964 378.163,365.371 378.901,365.371C379.299,365.371 379.745,365.295 380.237,365.142L380.237,365.898C379.645,366.062 379.147,366.144 378.743,366.144C378.163,366.144 377.714,365.985 377.398,365.665C377.082,365.346 376.923,364.882 376.923,364.272C376.923,363.845 377.008,363.241 377.178,362.462L378.312,357.127L376.712,357.127L376.835,356.538L378.453,356.389L379.305,354.165L379.789,354.165L379.305,356.415L381.819,356.415Z" style="fill:rgb(68,68,68);fill-rule:nonzero;"/>
    <path d="M391.566,356.265C392.925,356.265 393.743,356.907 394.018,358.19L394.071,358.19L394.589,356.415L395.292,356.415L393.28,365.969L392.559,365.969L392.955,363.56L392.902,363.56C392.41,364.392 391.862,365.031 391.258,365.476C390.655,365.922 389.96,366.144 389.175,366.144C387.529,366.144 386.706,365.049 386.706,362.857C386.706,361.703 386.925,360.601 387.365,359.553C387.804,358.504 388.392,357.694 389.127,357.122C389.862,356.551 390.675,356.265 391.566,356.265ZM389.377,365.353C389.899,365.353 390.419,365.172 390.938,364.808C391.456,364.445 391.922,363.959 392.335,363.349C392.748,362.74 393.063,362.066 393.28,361.328C393.497,360.59 393.605,359.966 393.605,359.456C393.605,358.993 393.529,358.578 393.376,358.212C393.224,357.846 392.999,357.556 392.7,357.342C392.401,357.128 392.029,357.021 391.583,357.021C390.857,357.021 390.201,357.262 389.615,357.742C389.029,358.223 388.548,358.942 388.173,359.9C387.798,360.858 387.611,361.811 387.611,362.761C387.611,363.651 387.757,364.306 388.05,364.725C388.343,365.144 388.786,365.353 389.377,365.353Z" style="fill:rgb(68,68,68);fill-rule:nonzero;"/>
    <path d="M402.482,365.969L403.792,359.887C403.915,359.348 403.976,358.89 403.976,358.515C403.976,358.047 403.849,357.681 403.594,357.417C403.339,357.153 402.945,357.021 402.412,357.021C401.755,357.021 401.139,357.218 400.562,357.61C399.984,358.003 399.498,358.552 399.103,359.258C398.707,359.964 398.404,360.804 398.193,361.776L397.296,365.969L396.435,365.969L398.465,356.415L399.186,356.415L398.861,358.357L398.914,358.357C399.875,356.963 401.093,356.265 402.57,356.265C403.332,356.265 403.903,356.453 404.284,356.828C404.665,357.203 404.855,357.742 404.855,358.445C404.855,358.855 404.785,359.389 404.644,360.045L403.343,365.969L402.482,365.969Z" style="fill:rgb(68,68,68);fill-rule:nonzero;"/>
    <path d="M411.57,356.265C412.917,356.265 413.735,356.907 414.022,358.19L414.057,358.19C414.127,357.804 414.546,355.838 415.314,352.293L416.184,352.293L413.284,365.969L412.563,365.969L412.958,363.56L412.906,363.56C411.892,365.283 410.65,366.144 409.179,366.144C407.533,366.144 406.709,365.049 406.709,362.857C406.709,361.726 406.919,360.642 407.338,359.605C407.757,358.568 408.335,357.752 409.074,357.158C409.812,356.563 410.644,356.265 411.57,356.265ZM409.381,365.353C409.903,365.353 410.426,365.17 410.95,364.804C411.475,364.438 411.943,363.946 412.356,363.327C412.77,362.709 413.082,362.033 413.292,361.297C413.503,360.562 413.609,359.948 413.609,359.456C413.609,358.718 413.429,358.127 413.068,357.685C412.708,357.243 412.214,357.021 411.587,357.021C410.861,357.021 410.205,357.265 409.619,357.751C409.033,358.237 408.552,358.948 408.177,359.882C407.802,360.817 407.615,361.776 407.615,362.761C407.615,364.489 408.204,365.353 409.381,365.353Z" style="fill:rgb(68,68,68);fill-rule:nonzero;"/>
    <path d="M419.295,370.293C419.014,370.293 418.715,370.237 418.399,370.126L418.399,369.335C418.709,369.429 419.002,369.475 419.278,369.475C419.793,369.475 420.186,369.32 420.456,369.01C420.725,368.699 420.945,368.154 421.115,367.375L423.277,357.127L421.475,357.127L421.598,356.538L423.4,356.415L423.708,355.009C423.913,354.024 424.254,353.309 424.731,352.864C425.209,352.419 425.875,352.196 426.731,352.196C427.159,352.196 427.645,352.287 428.19,352.469L427.97,353.172C427.46,353.014 427.03,352.934 426.678,352.934C426.116,352.934 425.666,353.091 425.329,353.405C424.992,353.718 424.745,354.241 424.586,354.973L424.279,356.415L426.458,356.415L426.318,357.127L424.138,357.127L421.923,367.586C421.73,368.529 421.425,369.216 421.009,369.647C420.593,370.077 420.022,370.293 419.295,370.293Z" style="fill:rgb(68,68,68);fill-rule:nonzero;"/>
    <path d="M431.231,356.23C432.286,356.23 433.102,356.548 433.679,357.184C434.256,357.82 434.544,358.697 434.544,359.816C434.544,360.971 434.335,362.05 433.916,363.055C433.497,364.06 432.924,364.826 432.198,365.353C431.471,365.881 430.633,366.144 429.684,366.144C428.606,366.144 427.787,365.824 427.228,365.182C426.668,364.54 426.388,363.622 426.388,362.427C426.388,361.307 426.602,360.259 427.03,359.28C427.458,358.302 428.035,357.549 428.761,357.021C429.488,356.494 430.311,356.23 431.231,356.23ZM431.161,356.986C430.434,356.986 429.781,357.216 429.201,357.676C428.621,358.136 428.158,358.795 427.812,359.654C427.466,360.512 427.293,361.422 427.293,362.383C427.293,364.387 428.12,365.389 429.772,365.389C430.516,365.389 431.177,365.161 431.754,364.707C432.331,364.253 432.791,363.585 433.134,362.703C433.477,361.822 433.648,360.853 433.648,359.799C433.648,358.896 433.434,358.202 433.006,357.716C432.579,357.229 431.963,356.986 431.161,356.986Z" style="fill:rgb(68,68,68);fill-rule:nonzero;"/>
    <path d="M439.598,366.144C438.579,366.144 437.774,365.821 437.186,365.173C436.597,364.526 436.302,363.628 436.302,362.479C436.302,361.348 436.518,360.289 436.948,359.302C437.379,358.315 437.96,357.562 438.693,357.043C439.425,356.525 440.275,356.265 441.242,356.265C442.027,356.265 442.733,356.391 443.36,356.643L443.114,357.434C442.487,357.159 441.848,357.021 441.198,357.021C440.442,357.021 439.761,357.247 439.154,357.698C438.548,358.149 438.072,358.8 437.726,359.649C437.38,360.499 437.208,361.436 437.208,362.462C437.208,363.388 437.423,364.101 437.854,364.602C438.284,365.103 438.895,365.353 439.686,365.353C440.102,365.353 440.487,365.315 440.842,365.239C441.196,365.163 441.582,365.028 441.998,364.835L441.998,365.643C441.318,365.977 440.518,366.144 439.598,366.144Z" style="fill:rgb(68,68,68);fill-rule:nonzero;"/>
    <path d="M446.55,356.415L445.214,362.55C445.085,363.171 445.021,363.634 445.021,363.938C445.021,364.372 445.16,364.716 445.438,364.971C445.717,365.226 446.123,365.353 446.656,365.353C447.3,365.353 447.908,365.161 448.479,364.778C449.051,364.394 449.531,363.846 449.921,363.134C450.311,362.422 450.602,361.603 450.795,360.678L451.718,356.415L452.58,356.415L450.549,365.969L449.846,365.969L450.092,364.167L450.04,364.167C449.061,365.462 447.88,366.109 446.498,366.109C445.73,366.109 445.148,365.928 444.753,365.564C444.357,365.201 444.16,364.671 444.16,363.973C444.16,363.622 444.224,363.124 444.353,362.479L445.671,356.415L446.55,356.415Z" style="fill:rgb(68,68,68);fill-rule:nonzero;"/>
    <path d="M459.514,363.376C459.514,364.22 459.212,364.892 458.609,365.393C458.005,365.894 457.185,366.144 456.148,366.144C455.134,366.144 454.241,365.925 453.467,365.485L453.467,364.545C453.901,364.814 454.349,365.022 454.812,365.169C455.275,365.315 455.708,365.389 456.113,365.389C456.921,365.389 457.54,365.22 457.967,364.883C458.395,364.546 458.609,364.067 458.609,363.446C458.609,363.2 458.563,362.983 458.473,362.796C458.382,362.608 458.235,362.428 458.033,362.255C457.831,362.082 457.443,361.832 456.869,361.504C456.001,361.035 455.416,360.609 455.111,360.225C454.806,359.841 454.654,359.374 454.654,358.823C454.654,358.073 454.942,357.459 455.52,356.982C456.097,356.504 456.857,356.265 457.8,356.265C458.24,356.265 458.704,356.317 459.193,356.419C459.683,356.522 460.094,356.658 460.428,356.828L460.121,357.601C459.324,357.226 458.55,357.039 457.8,357.039C457.121,357.039 456.576,357.194 456.166,357.505C455.755,357.815 455.55,358.22 455.55,358.718C455.55,359.04 455.6,359.298 455.7,359.491C455.799,359.684 455.977,359.885 456.231,360.093C456.486,360.301 456.836,360.525 457.282,360.765C457.95,361.135 458.423,361.438 458.701,361.675C458.979,361.912 459.185,362.166 459.316,362.435C459.448,362.705 459.514,363.018 459.514,363.376Z" style="fill:rgb(68,68,68);fill-rule:nonzero;"/>
    <path d="M470.896,356.23C471.951,356.23 472.767,356.548 473.344,357.184C473.921,357.82 474.209,358.697 474.209,359.816C474.209,360.971 474,362.05 473.581,363.055C473.162,364.06 472.589,364.826 471.863,365.353C471.136,365.881 470.298,366.144 469.349,366.144C468.271,366.144 467.452,365.824 466.893,365.182C466.333,364.54 466.053,363.622 466.053,362.427C466.053,361.307 466.267,360.259 466.695,359.28C467.123,358.302 467.7,357.549 468.426,357.021C469.153,356.494 469.976,356.23 470.896,356.23ZM470.826,356.986C470.099,356.986 469.446,357.216 468.866,357.676C468.286,358.136 467.823,358.795 467.477,359.654C467.131,360.512 466.958,361.422 466.958,362.383C466.958,364.387 467.785,365.389 469.437,365.389C470.181,365.389 470.842,365.161 471.419,364.707C471.996,364.253 472.456,363.585 472.799,362.703C473.142,361.822 473.313,360.853 473.313,359.799C473.313,358.896 473.099,358.202 472.671,357.716C472.244,357.229 471.628,356.986 470.826,356.986Z" style="fill:rgb(68,68,68);fill-rule:nonzero;"/>
    <path d="M481.786,365.969L483.095,359.887C483.218,359.348 483.28,358.89 483.28,358.515C483.28,358.047 483.152,357.681 482.897,357.417C482.643,357.153 482.249,357.021 481.715,357.021C481.059,357.021 480.442,357.218 479.865,357.61C479.288,358.003 478.802,358.552 478.406,359.258C478.011,359.964 477.708,360.804 477.497,361.776L476.6,365.969L475.739,365.969L477.769,356.415L478.49,356.415L478.165,358.357L478.217,358.357C479.178,356.963 480.397,356.265 481.874,356.265C482.635,356.265 483.207,356.453 483.587,356.828C483.968,357.203 484.159,357.742 484.159,358.445C484.159,358.855 484.088,359.389 483.948,360.045L482.647,365.969L481.786,365.969Z" style="fill:rgb(68,68,68);fill-rule:nonzero;"/>
    <path d="M495.892,356.415L495.734,357.127L493.247,357.127L492.06,362.708C491.931,363.288 491.867,363.768 491.867,364.149C491.867,364.964 492.236,365.371 492.974,365.371C493.373,365.371 493.818,365.295 494.31,365.142L494.31,365.898C493.718,366.062 493.22,366.144 492.816,366.144C492.236,366.144 491.788,365.985 491.471,365.665C491.155,365.346 490.997,364.882 490.997,364.272C490.997,363.845 491.082,363.241 491.251,362.462L492.385,357.127L490.786,357.127L490.909,356.538L492.526,356.389L493.378,354.165L493.862,354.165L493.378,356.415L495.892,356.415Z" style="fill:rgb(68,68,68);fill-rule:nonzero;"/>
    <path d="M500.911,356.23C501.965,356.23 502.781,356.548 503.358,357.184C503.936,357.82 504.224,358.697 504.224,359.816C504.224,360.971 504.015,362.05 503.596,363.055C503.177,364.06 502.604,364.826 501.877,365.353C501.151,365.881 500.313,366.144 499.364,366.144C498.286,366.144 497.467,365.824 496.907,365.182C496.348,364.54 496.068,363.622 496.068,362.427C496.068,361.307 496.282,360.259 496.709,359.28C497.137,358.302 497.714,357.549 498.441,357.021C499.167,356.494 499.991,356.23 500.911,356.23ZM500.84,356.986C500.114,356.986 499.46,357.216 498.88,357.676C498.3,358.136 497.837,358.795 497.492,359.654C497.146,360.512 496.973,361.422 496.973,362.383C496.973,364.387 497.799,365.389 499.452,365.389C500.196,365.389 500.856,365.161 501.434,364.707C502.011,364.253 502.471,363.585 502.813,362.703C503.156,361.822 503.328,360.853 503.328,359.799C503.328,358.896 503.114,358.202 502.686,357.716C502.258,357.229 501.643,356.986 500.84,356.986Z" style="fill:rgb(68,68,68);fill-rule:nonzero;"/>
    <path d="M508.434,356.415L507.098,362.55C506.969,363.171 506.905,363.634 506.905,363.938C506.905,364.372 507.044,364.716 507.322,364.971C507.601,365.226 508.006,365.353 508.54,365.353C509.184,365.353 509.792,365.161 510.363,364.778C510.935,364.394 511.415,363.846 511.805,363.134C512.194,362.422 512.486,361.603 512.679,360.678L513.602,356.415L514.463,356.415L512.433,365.969L511.73,365.969L511.976,364.167L511.923,364.167C510.945,365.462 509.764,366.109 508.381,366.109C507.614,366.109 507.032,365.928 506.637,365.564C506.241,365.201 506.043,364.671 506.043,363.973C506.043,363.622 506.108,363.124 506.237,362.479L507.555,356.415L508.434,356.415Z" style="fill:rgb(68,68,68);fill-rule:nonzero;"/>
    <path d="M524.799,356.415L524.65,357.109L522.514,357.206C522.667,357.37 522.794,357.616 522.896,357.944C522.999,358.272 523.05,358.606 523.05,358.946C523.05,359.585 522.891,360.19 522.571,360.761C522.252,361.332 521.818,361.759 521.271,362.04C520.723,362.321 520.097,362.462 519.394,362.462C519.025,362.462 518.799,362.435 518.717,362.383C518.249,362.576 517.885,362.79 517.627,363.024C517.37,363.259 517.241,363.496 517.241,363.736C517.241,363.976 517.333,364.165 517.518,364.303C517.702,364.441 518.035,364.533 518.515,364.58L519.579,364.677C521.606,364.858 522.62,365.632 522.62,366.997C522.62,367.653 522.429,368.232 522.048,368.733C521.667,369.234 521.12,369.619 520.405,369.889C519.69,370.158 518.837,370.293 517.847,370.293C516.757,370.293 515.903,370.082 515.285,369.66C514.667,369.238 514.358,368.643 514.358,367.876C514.358,366.493 515.263,365.515 517.074,364.94C516.617,364.694 516.388,364.334 516.388,363.859C516.388,363.139 516.948,362.547 518.067,362.084C517.651,361.873 517.327,361.564 517.096,361.157C516.864,360.749 516.749,360.288 516.749,359.772C516.749,359.122 516.905,358.524 517.219,357.979C517.532,357.434 517.966,357.007 518.52,356.696C519.073,356.386 519.678,356.23 520.334,356.23C520.739,356.23 521.169,356.292 521.626,356.415L524.799,356.415ZM515.254,367.788C515.254,368.38 515.492,368.819 515.966,369.106C516.441,369.393 517.097,369.537 517.935,369.537C519.125,369.537 520.053,369.319 520.721,368.882C521.389,368.446 521.723,367.847 521.723,367.085C521.723,366.587 521.54,366.204 521.174,365.938C520.808,365.671 520.167,365.503 519.253,365.432L517.847,365.301C516.927,365.564 516.265,365.9 515.861,366.307C515.457,366.714 515.254,367.208 515.254,367.788ZM517.636,359.72C517.636,360.376 517.808,360.874 518.15,361.214C518.493,361.554 518.975,361.723 519.596,361.723C520.112,361.723 520.563,361.615 520.95,361.398C521.336,361.181 521.637,360.848 521.851,360.396C522.064,359.945 522.171,359.45 522.171,358.911C522.171,358.302 522.007,357.828 521.679,357.492C521.351,357.155 520.891,356.986 520.299,356.986C519.754,356.986 519.283,357.112 518.884,357.364C518.486,357.616 518.178,357.956 517.961,358.384C517.745,358.811 517.636,359.257 517.636,359.72Z" style="fill:rgb(68,68,68);fill-rule:nonzero;"/>
    <path d="M530.987,365.969L532.296,359.887C532.419,359.348 532.481,358.89 532.481,358.515C532.481,358.047 532.354,357.681 532.099,357.417C531.844,357.153 531.45,357.021 530.917,357.021C530.26,357.021 529.644,357.218 529.066,357.61C528.489,358.003 528.003,358.554 527.607,359.263C527.212,359.972 526.909,360.809 526.698,361.776L525.801,365.969L524.94,365.969L527.858,352.293L528.702,352.293L527.946,355.905C527.688,357.077 527.495,357.894 527.366,358.357L527.418,358.357C527.875,357.695 528.422,357.181 529.058,356.815C529.693,356.449 530.366,356.265 531.075,356.265C531.801,356.265 532.364,356.456 532.762,356.837C533.161,357.218 533.36,357.754 533.36,358.445C533.36,358.855 533.29,359.389 533.149,360.045L531.848,365.969L530.987,365.969Z" style="fill:rgb(68,68,68);fill-rule:nonzero;"/>
    <path d="M543.371,366.109C542.023,366.109 541.206,365.468 540.918,364.184L540.883,364.184C540.807,364.606 540.371,366.642 539.574,370.293L538.704,370.293L541.657,356.415L542.377,356.415L541.982,358.823L542.035,358.823C542.568,357.927 543.141,357.27 543.753,356.854C544.365,356.438 545.035,356.23 545.761,356.23C546.552,356.23 547.162,356.501 547.589,357.043C548.017,357.585 548.231,358.413 548.231,359.526C548.231,360.669 548.02,361.756 547.598,362.787C547.176,363.818 546.598,364.63 545.862,365.222C545.127,365.813 544.296,366.109 543.371,366.109ZM545.568,357.021C545.058,357.021 544.548,357.193 544.039,357.535C543.529,357.878 543.056,358.369 542.619,359.008C542.183,359.646 541.859,360.342 541.648,361.095C541.437,361.848 541.332,362.459 541.332,362.928C541.332,363.66 541.512,364.247 541.872,364.69C542.232,365.132 542.726,365.353 543.353,365.353C544.08,365.353 544.739,365.107 545.331,364.615C545.922,364.123 546.403,363.41 546.772,362.475C547.141,361.54 547.326,360.587 547.326,359.614C547.326,357.886 546.74,357.021 545.568,357.021Z" style="fill:rgb(68,68,68);fill-rule:nonzero;"/>
    <path d="M555.359,356.248C555.763,356.248 556.124,356.289 556.44,356.371L556.255,357.188C555.98,357.1 555.649,357.056 555.262,357.056C554.711,357.056 554.187,357.244 553.689,357.619C553.191,357.994 552.743,358.556 552.344,359.306C551.946,360.056 551.653,360.868 551.465,361.741L550.586,365.969L549.725,365.969L551.755,356.415L552.458,356.415L552.204,358.208L552.256,358.208C552.684,357.657 553.044,357.26 553.337,357.017C553.63,356.774 553.942,356.585 554.273,356.45C554.604,356.315 554.966,356.248 555.359,356.248Z" style="fill:rgb(68,68,68);fill-rule:nonzero;"/>
    <path d="M561.045,356.23C562.1,356.23 562.916,356.548 563.493,357.184C564.07,357.82 564.359,358.697 564.359,359.816C564.359,360.971 564.149,362.05 563.73,363.055C563.312,364.06 562.739,364.826 562.012,365.353C561.286,365.881 560.448,366.144 559.499,366.144C558.42,366.144 557.602,365.824 557.042,365.182C556.482,364.54 556.203,363.622 556.203,362.427C556.203,361.307 556.417,360.259 556.844,359.28C557.272,358.302 557.849,357.549 558.576,357.021C559.302,356.494 560.125,356.23 561.045,356.23ZM560.975,356.986C560.249,356.986 559.595,357.216 559.015,357.676C558.435,358.136 557.972,358.795 557.626,359.654C557.281,360.512 557.108,361.422 557.108,362.383C557.108,364.387 557.934,365.389 559.586,365.389C560.331,365.389 560.991,365.161 561.568,364.707C562.146,364.253 562.605,363.585 562.948,362.703C563.291,361.822 563.462,360.853 563.462,359.799C563.462,358.896 563.249,358.202 562.821,357.716C562.393,357.229 561.778,356.986 560.975,356.986Z" style="fill:rgb(68,68,68);fill-rule:nonzero;"/>
    <path d="M569.615,366.109C568.953,366.109 568.408,365.936 567.98,365.591C567.552,365.245 567.268,364.759 567.127,364.132L567.075,364.132L566.591,365.969L565.888,365.969L568.762,352.293L569.597,352.293C568.83,355.973 568.355,358.173 568.173,358.893L568.226,358.893C568.771,357.979 569.354,357.307 569.975,356.876C570.596,356.446 571.273,356.23 572.005,356.23C573.652,356.23 574.475,357.329 574.475,359.526C574.475,360.716 574.252,361.829 573.807,362.866C573.362,363.903 572.773,364.703 572.041,365.265C571.308,365.828 570.5,366.109 569.615,366.109ZM571.812,357.021C571.279,357.021 570.751,357.202 570.23,357.562C569.708,357.922 569.238,358.419 568.819,359.052C568.4,359.684 568.088,360.373 567.883,361.117C567.678,361.861 567.576,362.465 567.576,362.928C567.576,363.683 567.763,364.277 568.138,364.707C568.513,365.138 569,365.353 569.597,365.353C570.324,365.353 570.98,365.11 571.566,364.624C572.152,364.138 572.632,363.42 573.007,362.471C573.382,361.521 573.57,360.569 573.57,359.614C573.57,358.723 573.426,358.069 573.139,357.65C572.852,357.231 572.41,357.021 571.812,357.021Z" style="fill:rgb(68,68,68);fill-rule:nonzero;"/>
    <path d="M576.831,365.969L576.004,365.969L578.94,352.293L579.766,352.293L576.831,365.969Z" style="fill:rgb(68,68,68);fill-rule:nonzero;"/>
    <path d="M583.633,366.144C582.62,366.144 581.829,365.824 581.26,365.182C580.692,364.54 580.408,363.645 580.408,362.497C580.408,361.436 580.616,360.42 581.032,359.447C581.448,358.474 582.021,357.701 582.75,357.127C583.479,356.553 584.284,356.265 585.163,356.265C585.831,356.265 586.364,356.444 586.762,356.802C587.161,357.159 587.36,357.645 587.36,358.261C587.36,359.321 586.881,360.13 585.923,360.686C584.965,361.243 583.542,361.521 581.656,361.521L581.366,361.521C581.331,361.779 581.313,362.066 581.313,362.383C581.313,363.349 581.53,364.086 581.963,364.593C582.397,365.1 583.021,365.353 583.835,365.353C584.609,365.353 585.417,365.14 586.261,364.712L586.261,365.538C585.441,365.942 584.565,366.144 583.633,366.144ZM585.057,357.021C584.29,357.021 583.576,357.36 582.917,358.036C582.258,358.713 581.782,359.617 581.489,360.748L581.919,360.748C584.949,360.748 586.463,359.957 586.463,358.375C586.463,357.982 586.336,357.659 586.081,357.404C585.826,357.149 585.485,357.021 585.057,357.021Z" style="fill:rgb(68,68,68);fill-rule:nonzero;"/>
    <path d="M593.917,365.969L595.208,360.045C595.355,359.312 595.428,358.838 595.428,358.621C595.428,357.555 594.977,357.021 594.075,357.021C593.454,357.021 592.868,357.219 592.317,357.615C591.766,358.01 591.3,358.562 590.919,359.271C590.539,359.98 590.246,360.821 590.041,361.794L589.162,365.969L588.3,365.969L590.331,356.415L591.034,356.415L590.744,358.261L590.796,358.261C591.265,357.598 591.797,357.1 592.392,356.766C592.986,356.432 593.609,356.265 594.259,356.265C594.88,356.265 595.358,356.462 595.692,356.854C596.026,357.247 596.202,357.818 596.219,358.568L596.272,358.568C596.723,357.812 597.253,357.24 597.863,356.85C598.472,356.46 599.123,356.265 599.814,356.265C600.5,356.265 601.034,356.446 601.418,356.806C601.802,357.166 601.994,357.683 601.994,358.357C601.994,358.527 601.986,358.693 601.972,358.854C601.957,359.015 601.9,359.365 601.8,359.904L600.464,365.969L599.585,365.969L600.895,359.992C601.042,359.289 601.115,358.773 601.115,358.445C601.115,357.994 600.989,357.644 600.737,357.395C600.485,357.146 600.136,357.021 599.691,357.021C598.771,357.021 597.958,357.424 597.252,358.23C596.546,359.035 596.052,360.098 595.771,361.416L594.813,365.969L593.917,365.969Z" style="fill:rgb(68,68,68);fill-rule:nonzero;"/>
    <path d="M609.324,363.376C609.324,364.22 609.022,364.892 608.418,365.393C607.815,365.894 606.995,366.144 605.958,366.144C604.944,366.144 604.05,365.925 603.277,365.485L603.277,364.545C603.71,364.814 604.159,365.022 604.622,365.169C605.084,365.315 605.518,365.389 605.922,365.389C606.731,365.389 607.349,365.22 607.777,364.883C608.205,364.546 608.418,364.067 608.418,363.446C608.418,363.2 608.373,362.983 608.282,362.796C608.191,362.608 608.045,362.428 607.843,362.255C607.641,362.082 607.252,361.832 606.678,361.504C605.811,361.035 605.225,360.609 604.92,360.225C604.616,359.841 604.463,359.374 604.463,358.823C604.463,358.073 604.752,357.459 605.329,356.982C605.906,356.504 606.667,356.265 607.61,356.265C608.049,356.265 608.514,356.317 609.003,356.419C609.492,356.522 609.904,356.658 610.238,356.828L609.93,357.601C609.133,357.226 608.36,357.039 607.61,357.039C606.93,357.039 606.385,357.194 605.975,357.505C605.565,357.815 605.36,358.22 605.36,358.718C605.36,359.04 605.41,359.298 605.509,359.491C605.609,359.684 605.786,359.885 606.041,360.093C606.296,360.301 606.646,360.525 607.091,360.765C607.759,361.135 608.232,361.438 608.511,361.675C608.789,361.912 608.994,362.166 609.126,362.435C609.258,362.705 609.324,363.018 609.324,363.376Z" style="fill:rgb(68,68,68);fill-rule:nonzero;"/>
    <path d="M621.716,365.969L623.026,359.887C623.149,359.348 623.21,358.89 623.21,358.515C623.21,358.047 623.083,357.681 622.828,357.417C622.573,357.153 622.179,357.021 621.646,357.021C620.99,357.021 620.373,357.218 619.796,357.61C619.219,358.003 618.732,358.552 618.337,359.258C617.941,359.964 617.638,360.804 617.427,361.776L616.531,365.969L615.669,365.969L617.7,356.415L618.42,356.415L618.095,358.357L618.148,358.357C619.109,356.963 620.328,356.265 621.804,356.265C622.566,356.265 623.137,356.453 623.518,356.828C623.899,357.203 624.089,357.742 624.089,358.445C624.089,358.855 624.019,359.389 623.878,360.045L622.578,365.969L621.716,365.969Z" style="fill:rgb(68,68,68);fill-rule:nonzero;"/>
    <path d="M630.751,356.23C631.806,356.23 632.622,356.548 633.199,357.184C633.776,357.82 634.065,358.697 634.065,359.816C634.065,360.971 633.855,362.05 633.437,363.055C633.018,364.06 632.445,364.826 631.718,365.353C630.992,365.881 630.154,366.144 629.205,366.144C628.126,366.144 627.308,365.824 626.748,365.182C626.188,364.54 625.909,363.622 625.909,362.427C625.909,361.307 626.123,360.259 626.55,359.28C626.978,358.302 627.555,357.549 628.282,357.021C629.008,356.494 629.832,356.23 630.751,356.23ZM630.681,356.986C629.955,356.986 629.301,357.216 628.721,357.676C628.141,358.136 627.678,358.795 627.333,359.654C626.987,360.512 626.814,361.422 626.814,362.383C626.814,364.387 627.64,365.389 629.292,365.389C630.037,365.389 630.697,365.161 631.274,364.707C631.852,364.253 632.312,363.585 632.654,362.703C632.997,361.822 633.168,360.853 633.168,359.799C633.168,358.896 632.955,358.202 632.527,357.716C632.099,357.229 631.484,356.986 630.681,356.986Z" style="fill:rgb(68,68,68);fill-rule:nonzero;"/>
    <path d="M641.026,356.415L640.868,357.127L638.38,357.127L637.194,362.708C637.065,363.288 637,363.768 637,364.149C637,364.964 637.37,365.371 638.108,365.371C638.506,365.371 638.952,365.295 639.444,365.142L639.444,365.898C638.852,366.062 638.354,366.144 637.95,366.144C637.37,366.144 636.921,365.985 636.605,365.665C636.289,365.346 636.13,364.882 636.13,364.272C636.13,363.845 636.215,363.241 636.385,362.462L637.519,357.127L635.919,357.127L636.042,356.538L637.66,356.389L638.512,354.165L638.996,354.165L638.512,356.415L641.026,356.415Z" style="fill:rgb(68,68,68);fill-rule:nonzero;"/>
    <path d="M653.462,353.761C652.308,353.761 651.278,354.067 650.373,354.679C649.468,355.291 648.75,356.183 648.22,357.355C647.689,358.527 647.424,359.819 647.424,361.231C647.424,362.55 647.748,363.563 648.396,364.272C649.043,364.981 649.973,365.336 651.186,365.336C652.006,365.336 652.897,365.186 653.858,364.888L653.858,365.714C652.944,366.001 652.018,366.144 651.081,366.144C649.604,366.144 648.473,365.72 647.688,364.87C646.903,364.02 646.51,362.819 646.51,361.266C646.51,359.708 646.816,358.278 647.429,356.977C648.041,355.677 648.875,354.678 649.929,353.98C650.984,353.283 652.162,352.934 653.462,352.934C654.5,352.934 655.399,353.134 656.161,353.532L655.765,354.323C655.443,354.147 655.078,354.01 654.671,353.91C654.264,353.81 653.861,353.761 653.462,353.761Z" style="fill:rgb(68,68,68);fill-rule:nonzero;"/>
    <path d="M658.244,360.405L657.092,365.969L656.187,365.969L658.912,353.119L661.575,353.119C664.094,353.119 665.354,354.174 665.354,356.283C665.354,357.349 665.051,358.237 664.444,358.946C663.838,359.655 663.013,360.1 661.97,360.282C663.148,363.745 663.795,365.64 663.913,365.969L662.937,365.969L661.083,360.405L658.244,360.405ZM658.437,359.597L660.652,359.597C661.871,359.597 662.799,359.317 663.438,358.757C664.077,358.198 664.396,357.373 664.396,356.283C664.396,354.713 663.432,353.928 661.504,353.928L659.65,353.928L658.437,359.597Z" style="fill:rgb(68,68,68);fill-rule:nonzero;"/>
    <path d="M677.615,353.119L675.795,361.706C675.456,363.288 674.878,364.423 674.064,365.112C673.25,365.8 672.151,366.144 670.768,366.144C668.19,366.144 666.901,364.97 666.901,362.62C666.901,362.134 666.98,361.545 667.138,360.853L668.773,353.119L669.678,353.119L667.982,361.02C667.865,361.542 667.806,362.081 667.806,362.638C667.806,364.448 668.808,365.353 670.812,365.353C671.955,365.353 672.855,365.071 673.515,364.505C674.174,363.94 674.638,363.007 674.908,361.706L676.727,353.119L677.615,353.119Z" style="fill:rgb(68,68,68);fill-rule:nonzero;"/>
    <path d="M688.715,358.243C688.715,359.725 688.395,361.077 687.753,362.299C687.111,363.521 686.231,364.438 685.112,365.05C683.993,365.662 682.686,365.969 681.192,365.969L678.292,365.969L681.016,353.119L683.697,353.119C685.349,353.119 686.599,353.551 687.445,354.415C688.292,355.28 688.715,356.556 688.715,358.243ZM681.174,365.178C682.499,365.178 683.654,364.901 684.642,364.347C685.629,363.793 686.394,362.986 686.936,361.926C687.478,360.865 687.749,359.658 687.749,358.305C687.749,355.387 686.354,353.928 683.565,353.928L681.754,353.928L679.337,365.178L681.174,365.178Z" style="fill:rgb(68,68,68);fill-rule:nonzero;"/>
    <g transform="matrix(2.14365,0,0,2.14365,678.481,99.6099)">
        <path d="M86.263,98.481L62.784,98.481C62.804,98.293 62.816,90.646 62.816,90.646L80.309,90.646C83.197,90.646 85.539,88.304 85.539,85.416L85.539,73.799C85.539,71.671 84.71,69.669 83.204,68.165L62.552,47.512C62.642,44.161 62.712,40.809 62.77,37.457C63.341,27.231 60.439,16.685 53.648,8.859C51.901,6.849 49.958,4.966 47.623,3.545C46.529,2.928 45.496,2.362 44.102,2.336C42.706,2.373 41.682,2.941 40.594,3.565C38.275,5.004 36.353,6.9 34.629,8.921C34.391,9.203 34.165,9.493 33.936,9.782L33.936,2.329C33.936,1.043 32.894,0 31.607,0L8.845,0C7.559,0 6.516,1.043 6.516,2.329L6.516,66.648L5,68.165C3.494,69.669 2.666,71.671 2.666,73.799L2.666,85.417C2.666,87.827 4.298,89.851 6.516,90.456L6.516,98.481L1.941,98.481C0.869,98.481 0,99.35 0,100.422L0,101.198C0,102.27 0.869,103.139 1.941,103.139L86.263,103.139C87.334,103.139 88.203,102.27 88.203,101.198L88.203,100.422C88.203,99.35 87.334,98.481 86.263,98.481ZM26.225,27.42C26.107,28.12 26.007,28.823 25.927,29.528L20.323,34.422L12.305,27.42L26.225,27.42L26.225,27.42ZM14.38,22.762L20.2,16.107L26.019,22.762L14.38,22.762ZM25.855,45.364C25.856,45.417 25.857,45.471 25.858,45.524L14.19,45.524L20.092,38.765L25.855,45.364ZM25.745,39.157L22.344,36.186L25.702,32.34C25.7,32.394 25.695,32.447 25.692,32.501C25.697,34.72 25.717,36.938 25.745,39.157ZM29.35,17.261C29.095,17.813 28.855,18.371 28.626,18.933L22.45,13.533L29.278,5.724L29.278,16.713C29.278,16.903 29.307,17.085 29.35,17.261ZM28.099,4.658L20.2,11.565L12.3,4.658L28.099,4.658ZM11.174,5.785L17.949,13.533L11.174,19.457L11.174,5.785ZM11.174,28.551L18.04,36.414L11.174,42.41L11.174,28.551ZM11.174,50.182L22.982,50.182L11.174,61.99L11.174,50.182ZM11.174,90.646L25.388,90.646C25.388,90.646 25.4,98.293 25.421,98.481L11.174,98.481L11.174,90.646ZM46.44,98.481C46.463,95.965 46.454,93.449 46.402,90.934C46.363,87.9 46.279,84.867 46.165,81.834C45.944,75.767 45.642,69.7 44.811,63.634C44.769,63.323 44.525,63.066 44.199,63.021C43.807,62.968 43.446,63.242 43.393,63.634C42.562,69.7 42.26,75.767 42.039,81.834C41.925,84.867 41.841,87.9 41.802,90.934C41.75,93.449 41.741,95.965 41.764,98.481L30.617,98.481C30.303,98.481 30.046,98.224 30.046,97.91L30.046,87.929C30.046,86.857 29.177,85.988 28.105,85.988L7.895,85.988C7.581,85.988 7.324,85.731 7.324,85.417L7.324,73.799C7.324,72.921 7.672,72.079 8.293,71.458C8.293,71.458 10.493,69.259 10.494,69.257L26.069,53.682C26.312,61.177 26.662,68.671 27.095,76.165C27.114,76.474 27.361,76.729 27.678,76.748C28.022,76.77 28.317,76.509 28.339,76.165C29.194,62.457 29.538,48.748 29.777,35.037C29.845,26.707 32.803,18.34 38.285,12.057C39.971,10.221 41.807,8.315 44.093,7.374C46.364,8.347 48.183,10.264 49.846,12.12C51.788,14.38 53.387,16.956 54.694,19.663C57.399,25.159 58.297,31.369 58.204,37.457C58.428,50.373 58.821,63.277 59.888,76.165C59.912,76.451 60.14,76.687 60.436,76.713C60.767,76.741 61.058,76.496 61.087,76.165C61.701,68.748 62.087,61.325 62.351,53.898L79.911,71.458C80.532,72.079 80.881,72.921 80.881,73.799L80.881,85.416C80.881,85.732 80.625,85.988 80.309,85.988L60.099,85.988C59.027,85.988 58.158,86.857 58.158,87.929L58.158,97.91C58.158,98.224 57.901,98.481 57.587,98.481L46.44,98.481Z" style="fill:rgb(0,0,9);fill-rule:nonzero;"/>
    </g>
</svg>
