<?xml version="1.0" encoding="UTF-8" standalone="no"?><!DOCTYPE svg PUBLIC "-//W3C//DTD SVG 1.1//EN" "http://www.w3.org/Graphics/SVG/1.1/DTD/svg11.dtd"><svg width="100%" height="100%" viewBox="0 0 900 400" version="1.1" xmlns="http://www.w3.org/2000/svg" xmlns:xlink="http://www.w3.org/1999/xlink" xml:space="preserve" xmlns:serif="http://www.serif.com/" style="fill-rule:evenodd;clip-rule:evenodd;stroke-linejoin:round;stroke-miterlimit:1.41421;"><g><g id="rest"><path d="M70.729,146.792l0,15.351l-11.739,0l-9.029,9.029l3.611,47.858l-12.641,11.739l12.641,11.739l-3.611,47.858l9.029,9.029l11.739,0l0,15.351l-18.963,0l-18.059,-19.866l3.612,-48.76l-10.836,-9.933l0,-10.836l10.836,-9.933l-3.612,-48.761l18.059,-19.865l18.963,0Z" style="fill:#1ab88a;"/><path d="M603.244,146.792l0,15.351l11.739,0l9.029,9.029l-3.612,47.858l12.642,11.739l-12.642,11.739l3.612,47.858l-9.029,9.029l-11.739,0l0,15.351l18.962,0l18.06,-19.866l-3.612,-48.76l10.836,-9.933l0,-10.836l-10.836,-9.933l3.612,-48.761l-18.06,-19.865l-18.962,0Z" style="fill:#1ab88a;"/><path d="M225.499,183.698l0,37.132l-17.816,17.816l-9.752,0l21.004,41.631l12.001,0l0,16.129l-40.318,0l0,-16.129l11.252,0l-21.005,-41.631l-19.127,0l0,41.631l11.439,0l0,16.129l-41.258,0l0,-16.129l13.69,0l0,-98.829l-13.69,0l0,-16.316l75.201,0l18.379,18.566Zm-63.761,-2.25l0,44.82l38.256,0l9.377,-9.376l0,-26.067l-9.377,-9.377l-38.256,0Z" style="fill:#029fc6;fill-rule:nonzero;"/><path d="M335.392,199.076l-13.69,0l0,-17.628l-48.758,0l0,39.944l33.193,0l0,-8.814l11.627,0l0,29.818l-11.627,0l0,-8.814l-33.193,0l0,46.695l48.946,0l0,-17.627l13.69,0l0,33.756l-92.453,0l0,-16.129l13.69,0l0,-98.829l-13.69,0l0,-16.316l92.265,0l0,33.944Z" style="fill:#029fc6;fill-rule:nonzero;"/><path d="M433.472,183.698l0,18.566l-16.128,0l0,-11.439l-9.564,-9.565l-30.568,0l-9.564,9.565l0,23.253l7.126,6.752l45.008,0l15.003,14.627l0,41.445l-19.504,19.504l-44.257,0l-19.504,-19.504l0,-24.005l16.128,0l0,17.254l10.126,10.126l30.756,0l9.939,-10.126l0,-27.193l-6.751,-6.938l-45.008,0l-15.19,-15.002l0,-37.32l18.566,-18.566l45.008,0l18.378,18.566Z" style="fill:#029fc6;fill-rule:nonzero;"/><path d="M542.053,203.577l-13.877,0l0,-23.067l-25.692,0l0,99.767l15.565,0l0,16.129l-47.259,0l0,-16.129l15.566,0l0,-99.767l-25.692,0l0,23.067l-13.878,0l0,-38.445l95.267,0l0,38.445Z" style="fill:#029fc6;fill-rule:nonzero;"/></g><g id="rocket"><path d="M99.561,96.496c-9.42,5.488 -32.014,20.525 -40.555,42.725c-0.269,0.701 -0.158,1.498 0.283,2.103c0.264,0.35 0.624,0.609 1.018,0.753c0.288,0.106 0.605,0.144 0.922,0.125l27.645,-2.141c0.024,-0.091 0.019,-0.187 0.048,-0.274l10.639,-43.291Z" style="fill:#1f1f1f;fill-rule:nonzero;"/><path d="M170.867,179.267c7.446,-22.57 -0.298,-48.52 -3.918,-58.492l-19.771,40.224c-0.024,0.067 -0.058,0.1 -0.091,0.168l19.944,19.54c0.225,0.226 0.504,0.394 0.787,0.499c0.038,0.029 0.067,0.039 0.077,0.039c1.142,0.413 2.41,-0.178 2.823,-1.311c0.096,-0.226 0.129,-0.451 0.149,-0.667Z" style="fill:#1f1f1f;fill-rule:nonzero;"/><path d="M182.653,65.822c2.502,-13.338 1.1,-32.633 -6.64,-43.426c-0.187,-0.25 -0.336,-0.533 -0.513,-0.773c-0.471,-0.6 -0.985,-1.104 -1.493,-1.637c-0.308,-0.327 -0.601,-0.716 -0.918,-1.023c-0.364,-0.331 -0.768,-0.576 -1.142,-0.883c-0.523,-0.423 -1.042,-0.884 -1.604,-1.244c-0.264,-0.163 -0.571,-0.259 -0.835,-0.403c-0.739,-0.413 -1.484,-0.826 -2.29,-1.119c-0.581,-0.211 -1.181,-0.302 -1.791,-0.446c-0.523,-0.125 -1.042,-0.312 -1.584,-0.399c-0.845,-0.11 -1.705,-0.11 -2.579,-0.105c-0.297,0 -0.59,-0.053 -0.893,-0.039c-0.701,0.039 -1.392,0.183 -2.088,0.288c-0.499,0.077 -0.979,0.092 -1.474,0.202c-0.298,0.062 -0.595,0.187 -0.903,0.264c-9.275,2.377 -18.868,10.231 -26.007,18.94c-1.2,1.45 -2.295,2.939 -3.332,4.417c-2.175,3.087 -4.028,6.16 -5.372,9.055c-0.505,1.066 -0.937,2.098 -1.302,3.102l-22.454,91.398c-0.485,1.676 0.413,3.438 2.04,4.033l35.61,12.953c1.642,0.6 3.461,-0.177 4.162,-1.771l41.621,-84.653c0.715,-1.969 1.306,-4.239 1.781,-6.731Zm-42.173,22.944c-6.687,-2.434 -10.139,-9.828 -7.705,-16.52c2.434,-6.688 9.832,-10.14 16.535,-7.697c6.678,2.435 10.135,9.828 7.701,16.516c-2.444,6.683 -9.838,10.126 -16.531,7.701Z" style="fill:#1f1f1f;fill-rule:nonzero;"/><path d="M121.343,168.69c-5.19,6.611 -10.351,11.316 -13.635,10.116c-3.293,-1.2 -4.23,-8.109 -3.956,-16.521c-4.287,0.404 -7.821,2.756 -9.78,8.128c-3.264,8.974 -9.659,47.166 -1.469,50.157c8.186,2.972 27.851,-30.39 31.116,-39.364c1.949,-5.372 0.739,-9.448 -2.276,-12.516Z" style="fill:#1f1f1f;fill-rule:nonzero;"/></g><g id="spring-boot" serif:id="spring boot"><path d="M754.882,147.795c-4.942,1.744 -7.558,4.796 -13.591,15.334c-0.436,0.8 -1.526,2.69 -2.325,4.143c-0.873,1.526 -2.253,3.925 -3.053,5.305c-1.962,3.489 -3.343,5.742 -9.448,16.353c-2.907,5.014 -5.886,10.247 -6.686,11.629c-0.799,1.38 -1.671,2.834 -1.962,3.27c-1.091,1.744 -2.254,6.032 -2.254,8.358c0,2.326 1.163,6.613 2.254,8.357c0.291,0.364 1.163,1.89 1.962,3.271c0.8,1.381 3.779,6.614 6.686,11.629c6.105,10.611 7.486,12.863 9.448,16.352c0.8,1.381 2.18,3.779 3.053,5.233c0.799,1.526 1.889,3.416 2.325,4.215c4.506,7.922 6.033,10.175 8.504,12.21c1.526,1.381 4.07,2.834 5.669,3.271c3.924,1.235 61.63,1.235 65.555,0c4.651,-1.382 8.14,-5.016 13.154,-13.809c2.471,-4.434 5.378,-9.376 6.323,-11.047c0.945,-1.672 2.325,-3.998 2.98,-5.161c0.653,-1.235 2.252,-3.924 3.56,-6.031c1.236,-2.109 2.254,-3.998 2.254,-4.144c0,-0.145 1.599,-2.907 3.562,-6.104c5.45,-8.867 8.066,-14.754 8.066,-18.242c0,-3.489 -2.616,-9.376 -8.066,-18.243c-1.963,-3.197 -3.562,-5.959 -3.562,-6.104c0,-0.146 -1.018,-2.035 -2.253,-4.143c-1.309,-2.108 -2.907,-4.869 -3.561,-6.032c-0.654,-1.235 -2.035,-3.489 -2.98,-5.16c-0.945,-1.672 -3.852,-6.614 -6.323,-11.047c-5.014,-8.794 -8.503,-12.428 -13.154,-13.809c-3.998,-1.236 -62.721,-1.09 -66.137,0.146Zm37.502,22.384c1.671,1.526 1.671,1.599 1.671,21.658l0,20.131l-1.816,1.673c-2.545,2.397 -6.541,2.397 -8.431,0c-1.236,-1.673 -1.381,-3.344 -1.381,-21.731c0,-19.478 0,-19.986 1.599,-21.658c2.035,-2.181 6.032,-2.253 8.358,-0.073Zm-22.458,7.123c1.963,1.235 2.326,1.889 2.326,4.142c0,2.399 -0.582,3.343 -4.215,6.905c-6.468,6.322 -9.085,12.427 -9.085,21.294c0,8.576 2.107,13.954 7.995,20.059c6.177,6.469 12.355,9.012 21.658,8.94c5.886,-0.074 7.122,-0.364 11.555,-2.471c10.466,-5.088 17.006,-15.336 17.152,-26.819c0,-7.122 -3.489,-15.117 -8.94,-20.567c-5.232,-5.161 -5.959,-6.541 -4.578,-9.158c0.581,-1.09 1.889,-2.471 2.835,-2.98c1.671,-0.872 2.18,-0.799 5.087,0.872c5.596,3.271 11.41,11.12 14.317,19.478c2.471,6.686 2.471,18.678 0.072,25.292c-5.086,14.027 -15.189,23.039 -29.87,26.673c-20.713,5.087 -43.098,-9.667 -47.604,-31.325c-2.034,-9.593 -0.944,-16.497 4.143,-26.963c2.326,-4.724 7.777,-10.974 11.629,-13.372c2.907,-1.744 2.616,-1.744 5.523,0Z" style="fill-rule:nonzero;"/><path d="M705.036,303.638c0,-1.546 1.523,-2.799 4.827,-2.799c2.323,0 3.978,0.739 5.004,1.271c0.205,0.102 0.323,0.066 0.389,-0.047l0.403,-0.699c0.073,-0.132 0.014,-0.227 -0.118,-0.287c-1.296,-0.614 -2.974,-1.312 -5.699,-1.312c-4.132,0 -6.389,1.706 -6.389,3.987c0,5.174 11.04,2.637 11.04,7.078c0,1.988 -2.212,2.752 -4.959,2.752c-2.761,0 -4.293,-0.776 -5.802,-1.516c-0.147,-0.077 -0.286,-0.035 -0.359,0.078l-0.373,0.656c-0.082,0.131 -0.016,0.221 0.132,0.293c1.699,0.889 3.648,1.593 6.336,1.593c3.473,0 6.674,-1.17 6.674,-4.022c0,-5.337 -11.106,-2.937 -11.106,-7.026Z" style="fill-rule:nonzero;"/><path d="M726.061,299.944l-5.384,0l-1.099,0c-0.125,0 -0.242,0.095 -0.242,0.196l0,14.17c0,0.102 0.117,0.197 0.242,0.197l1.099,0c0.125,0 0.241,-0.095 0.241,-0.197l0,-5.306l5.143,0c4.63,0 6.733,-2.101 6.733,-4.53c0,-2.429 -2.103,-4.53 -6.733,-4.53Zm-0.285,7.961l-4.858,0l0,-6.857l4.858,0c3.963,0 5.362,1.605 5.362,3.426c0,1.82 -1.399,3.431 -5.362,3.431Z" style="fill-rule:nonzero;"/><path d="M748.574,314.108l-4.52,-5.51c3.135,-0.525 4.578,-2.232 4.578,-4.244c0,-2.429 -2.102,-4.41 -6.732,-4.41l-5.092,0l-1.098,0c-0.125,0 -0.242,0.095 -0.242,0.196l0,14.17c0,0.102 0.117,0.197 0.242,0.197l1.098,0c0.125,0 0.242,-0.095 0.242,-0.197l0,-5.545l4.85,0c0.176,0 0.345,0 0.513,-0.005l4.578,5.64c0.066,0.078 0.139,0.107 0.221,0.107l1.105,0c0.279,0 0.418,-0.209 0.257,-0.399Zm-6.96,-6.441l-4.564,0l0,-6.619l4.564,0c3.964,0 5.363,1.486 5.363,3.306c0,1.821 -1.399,3.313 -5.363,3.313Z" style="fill-rule:nonzero;"/><path d="M751.783,300.14l0,14.17c0,0.102 0.116,0.197 0.248,0.197l1.092,0c0.132,0 0.242,-0.095 0.242,-0.197l0,-14.17c0,-0.101 -0.11,-0.196 -0.242,-0.196l-1.092,0c-0.132,0 -0.248,0.095 -0.248,0.196Z" style="fill-rule:nonzero;"/><path d="M772.075,299.944l-1.091,0c-0.139,0 -0.242,0.083 -0.242,0.196l0,11.944l-13.282,-12.277c-0.102,-0.084 -0.213,-0.102 -0.322,-0.102l-0.074,0c-0.146,0 -0.248,0.083 -0.248,0.197l0,14.408c0,0.114 0.102,0.197 0.248,0.197l1.092,0c0.146,0 0.242,-0.083 0.242,-0.197l0,-11.943l13.281,12.277c0.096,0.084 0.213,0.102 0.323,0.102l0.073,0c0.147,0 0.249,-0.084 0.249,-0.197l0,-14.409c0,-0.113 -0.102,-0.196 -0.249,-0.196Z" style="fill-rule:nonzero;"/><path d="M791.599,308.12l-0.945,0c-0.146,0 -0.249,0.084 -0.249,0.204l0,3.987c-1.861,0.877 -3.59,1.271 -5.956,1.271c-4.08,0 -7.275,-2.548 -7.275,-6.357c0,-3.808 3.195,-6.356 7.275,-6.356c2.578,0 4.454,0.782 5.978,2.739c0.088,0.144 0.234,0.15 0.344,0.108l0.842,-0.323c0.117,-0.047 0.221,-0.149 0.117,-0.286c-1.794,-2.352 -4.043,-3.342 -7.281,-3.342c-4.689,0 -8.931,2.865 -8.931,7.46c0,4.596 4.242,7.461 8.931,7.461c3.011,0 5.253,-0.662 7.399,-1.862l0,-4.5c0,-0.12 -0.103,-0.204 -0.249,-0.204Z" style="fill-rule:nonzero;"/><path d="M810.346,307.047c2.073,-0.246 3.824,-1.35 3.824,-3.403c0,-2.083 -1.963,-3.7 -6.154,-3.7l-5.89,0l-1.098,0c-0.125,0 -0.242,0.095 -0.242,0.196l0,14.17c0,0.102 0.117,0.197 0.242,0.197l7.501,0c4.197,0 6.3,-1.796 6.3,-3.879c0,-2.197 -2.044,-3.457 -4.483,-3.581Zm2.168,-3.289c0,1.647 -1.326,2.769 -4.703,2.769l-5.443,0l0,-5.479l5.363,0c3.669,0 4.783,1.241 4.783,2.71Zm-4.27,9.645l-5.876,0l0,-5.784l5.737,0c3.625,0 5.068,1.188 5.068,2.895c0,1.588 -1.252,2.889 -4.929,2.889Z" style="fill-rule:nonzero;"/><path d="M826.697,299.765c-4.688,0 -8.937,2.865 -8.937,7.46c0,4.596 4.249,7.461 8.937,7.461c4.688,0 8.93,-2.865 8.93,-7.461c0,-4.595 -4.242,-7.46 -8.93,-7.46Zm0,13.817c-4.087,0 -7.282,-2.548 -7.282,-6.357c0,-3.808 3.195,-6.356 7.282,-6.356c4.081,0 7.274,2.548 7.274,6.356c0,3.809 -3.193,6.357 -7.274,6.357Z" style="fill-rule:nonzero;"/><path d="M847.496,299.765c-4.689,0 -8.938,2.865 -8.938,7.46c0,4.596 4.249,7.461 8.938,7.461c4.689,0 8.93,-2.865 8.93,-7.461c0,-4.595 -4.241,-7.46 -8.93,-7.46Zm0,13.817c-4.088,0 -7.282,-2.548 -7.282,-6.357c0,-3.808 3.194,-6.356 7.282,-6.356c4.08,0 7.274,2.548 7.274,6.356c0,3.809 -3.194,6.357 -7.274,6.357Z" style="fill-rule:nonzero;"/><path d="M873.275,299.944l-6.747,0l-7.838,0c-0.132,0 -0.25,0.095 -0.25,0.196l0,0.705c0,0.107 0.118,0.203 0.25,0.203l6.498,0l0,13.262c0,0.102 0.117,0.197 0.242,0.197l1.098,0c0.125,0 0.242,-0.095 0.242,-0.197l0,-13.262l6.505,0c0.125,0 0.242,-0.096 0.242,-0.203l0,-0.705c0,-0.101 -0.117,-0.196 -0.242,-0.196Z" style="fill-rule:nonzero;"/></g></g><rect id="hr" x="56.06" y="334.281" width="787.881" height="0.786" style="fill:#444;"/><path id="slogan" d="M217.332,363.376c0,0.844 -0.302,1.516 -0.906,2.017c-0.603,0.501 -1.424,0.751 -2.461,0.751c-1.013,0 -1.907,-0.219 -2.68,-0.659l0,-0.94c0.433,0.269 0.882,0.477 1.344,0.624c0.463,0.146 0.897,0.22 1.301,0.22c0.809,0 1.427,-0.169 1.855,-0.506c0.427,-0.337 0.641,-0.816 0.641,-1.437c0,-0.246 -0.045,-0.463 -0.136,-0.65c-0.091,-0.188 -0.237,-0.368 -0.439,-0.541c-0.203,-0.173 -0.591,-0.423 -1.165,-0.751c-0.867,-0.469 -1.453,-0.895 -1.758,-1.279c-0.304,-0.384 -0.457,-0.851 -0.457,-1.402c0,-0.75 0.289,-1.364 0.866,-1.841c0.577,-0.478 1.337,-0.717 2.281,-0.717c0.439,0 0.903,0.052 1.393,0.154c0.489,0.103 0.901,0.239 1.235,0.409l-0.308,0.773c-0.797,-0.375 -1.57,-0.562 -2.32,-0.562c-0.68,0 -1.225,0.155 -1.635,0.466c-0.41,0.31 -0.615,0.715 -0.615,1.213c0,0.322 0.049,0.58 0.149,0.773c0.1,0.193 0.277,0.394 0.532,0.602c0.255,0.208 0.605,0.432 1.05,0.672c0.668,0.37 1.141,0.673 1.42,0.91c0.278,0.237 0.483,0.491 0.615,0.76c0.132,0.27 0.198,0.583 0.198,0.941Z" style="fill:#444;fill-rule:nonzero;"/><path d="M222.71,366.109c-1.347,0 -2.165,-0.641 -2.452,-1.925l-0.035,0c-0.076,0.422 -0.513,2.458 -1.309,6.109l-0.871,0l2.954,-13.878l0.72,0l-0.395,2.408l0.053,0c0.533,-0.896 1.105,-1.553 1.718,-1.969c0.612,-0.416 1.282,-0.624 2.008,-0.624c0.791,0 1.4,0.271 1.828,0.813c0.428,0.542 0.642,1.37 0.642,2.483c0,1.143 -0.211,2.23 -0.633,3.261c-0.422,1.031 -1,1.843 -1.736,2.435c-0.735,0.591 -1.566,0.887 -2.492,0.887Zm2.198,-9.088c-0.51,0 -1.02,0.172 -1.53,0.514c-0.509,0.343 -0.982,0.834 -1.419,1.473c-0.437,0.638 -0.76,1.334 -0.971,2.087c-0.211,0.753 -0.317,1.364 -0.317,1.833c0,0.732 0.181,1.319 0.541,1.762c0.36,0.442 0.854,0.663 1.481,0.663c0.726,0 1.386,-0.246 1.977,-0.738c0.592,-0.492 1.073,-1.205 1.442,-2.14c0.369,-0.935 0.554,-1.888 0.554,-2.861c0,-1.728 -0.586,-2.593 -1.758,-2.593Z" style="fill:#444;fill-rule:nonzero;"/><path d="M232.554,366.144c-1.013,0 -1.804,-0.32 -2.373,-0.962c-0.568,-0.642 -0.852,-1.537 -0.852,-2.685c0,-1.061 0.208,-2.077 0.624,-3.05c0.416,-0.973 0.988,-1.746 1.718,-2.32c0.729,-0.574 1.534,-0.862 2.412,-0.862c0.668,0 1.202,0.179 1.6,0.537c0.399,0.357 0.598,0.843 0.598,1.459c0,1.06 -0.479,1.869 -1.437,2.425c-0.958,0.557 -2.381,0.835 -4.267,0.835l-0.29,0c-0.036,0.258 -0.053,0.545 -0.053,0.862c0,0.966 0.217,1.703 0.65,2.21c0.434,0.507 1.058,0.76 1.872,0.76c0.774,0 1.582,-0.213 2.426,-0.641l0,0.826c-0.82,0.404 -1.696,0.606 -2.628,0.606Zm1.424,-9.123c-0.768,0 -1.481,0.339 -2.14,1.015c-0.659,0.677 -1.135,1.581 -1.428,2.712l0.43,0c3.03,0 4.544,-0.791 4.544,-2.373c0,-0.393 -0.127,-0.716 -0.382,-0.971c-0.255,-0.255 -0.596,-0.383 -1.024,-0.383Z" style="fill:#444;fill-rule:nonzero;"/><path d="M240.71,366.144c-1.013,0 -1.804,-0.32 -2.373,-0.962c-0.568,-0.642 -0.852,-1.537 -0.852,-2.685c0,-1.061 0.208,-2.077 0.624,-3.05c0.416,-0.973 0.989,-1.746 1.718,-2.32c0.73,-0.574 1.534,-0.862 2.413,-0.862c0.668,0 1.201,0.179 1.599,0.537c0.399,0.357 0.598,0.843 0.598,1.459c0,1.06 -0.479,1.869 -1.437,2.425c-0.958,0.557 -2.38,0.835 -4.267,0.835l-0.29,0c-0.035,0.258 -0.053,0.545 -0.053,0.862c0,0.966 0.217,1.703 0.651,2.21c0.433,0.507 1.057,0.76 1.872,0.76c0.773,0 1.582,-0.213 2.425,-0.641l0,0.826c-0.82,0.404 -1.696,0.606 -2.628,0.606Zm1.424,-9.123c-0.767,0 -1.481,0.339 -2.14,1.015c-0.659,0.677 -1.135,1.581 -1.428,2.712l0.431,0c3.029,0 4.544,-0.791 4.544,-2.373c0,-0.393 -0.128,-0.716 -0.383,-0.971c-0.255,-0.255 -0.596,-0.383 -1.024,-0.383Z" style="fill:#444;fill-rule:nonzero;"/><path d="M250.501,356.265c1.348,0 2.166,0.642 2.453,1.925l0.035,0c0.07,-0.386 0.489,-2.352 1.257,-5.897l0.87,0l-2.901,13.676l-0.72,0l0.395,-2.409l-0.053,0c-1.013,1.723 -2.255,2.584 -3.726,2.584c-1.647,0 -2.47,-1.095 -2.47,-3.287c0,-1.131 0.21,-2.215 0.629,-3.252c0.418,-1.037 0.997,-1.853 1.735,-2.447c0.739,-0.595 1.571,-0.893 2.496,-0.893Zm-2.188,9.088c0.521,0 1.044,-0.183 1.569,-0.549c0.524,-0.366 0.993,-0.858 1.406,-1.477c0.413,-0.618 0.725,-1.294 0.936,-2.03c0.211,-0.735 0.317,-1.349 0.317,-1.841c0,-0.738 -0.181,-1.329 -0.541,-1.771c-0.36,-0.442 -0.854,-0.664 -1.481,-0.664c-0.727,0 -1.383,0.244 -1.969,0.73c-0.586,0.486 -1.066,1.197 -1.441,2.131c-0.375,0.935 -0.563,1.894 -0.563,2.879c0,1.728 0.589,2.592 1.767,2.592Z" style="fill:#444;fill-rule:nonzero;"/><path d="M262.727,356.415l-1.336,6.135c-0.129,0.621 -0.193,1.084 -0.193,1.388c0,0.434 0.139,0.778 0.417,1.033c0.279,0.255 0.684,0.382 1.218,0.382c0.644,0 1.252,-0.192 1.823,-0.575c0.572,-0.384 1.052,-0.932 1.442,-1.644c0.389,-0.712 0.681,-1.531 0.874,-2.456l0.923,-4.263l0.861,0l-2.03,9.554l-0.703,0l0.246,-1.802l-0.053,0c-0.978,1.295 -2.159,1.942 -3.542,1.942c-0.767,0 -1.349,-0.181 -1.744,-0.545c-0.396,-0.363 -0.594,-0.893 -0.594,-1.591c0,-0.351 0.065,-0.849 0.194,-1.494l1.318,-6.064l0.879,0Z" style="fill:#444;fill-rule:nonzero;"/><path d="M273.801,366.109c-1.347,0 -2.165,-0.641 -2.452,-1.925l-0.035,0c-0.076,0.422 -0.513,2.458 -1.31,6.109l-0.87,0l2.953,-13.878l0.721,0l-0.395,2.408l0.052,0c0.534,-0.896 1.106,-1.553 1.719,-1.969c0.612,-0.416 1.281,-0.624 2.008,-0.624c0.791,0 1.4,0.271 1.828,0.813c0.428,0.542 0.642,1.37 0.642,2.483c0,1.143 -0.211,2.23 -0.633,3.261c-0.422,1.031 -1.001,1.843 -1.736,2.435c-0.735,0.591 -1.566,0.887 -2.492,0.887Zm2.198,-9.088c-0.51,0 -1.02,0.172 -1.53,0.514c-0.51,0.343 -0.983,0.834 -1.419,1.473c-0.437,0.638 -0.76,1.334 -0.971,2.087c-0.211,0.753 -0.317,1.364 -0.317,1.833c0,0.732 0.18,1.319 0.541,1.762c0.36,0.442 0.854,0.663 1.481,0.663c0.726,0 1.385,-0.246 1.977,-0.738c0.592,-0.492 1.072,-1.205 1.442,-2.14c0.369,-0.935 0.553,-1.888 0.553,-2.861c0,-1.728 -0.586,-2.593 -1.757,-2.593Z" style="fill:#444;fill-rule:nonzero;"/><path d="M289.956,356.265c1.347,0 2.165,0.642 2.452,1.925l0.035,0c0.07,-0.386 0.489,-2.352 1.257,-5.897l0.87,0l-2.901,13.676l-0.72,0l0.395,-2.409l-0.052,0c-1.014,1.723 -2.256,2.584 -3.727,2.584c-1.647,0 -2.47,-1.095 -2.47,-3.287c0,-1.131 0.21,-2.215 0.629,-3.252c0.419,-1.037 0.997,-1.853 1.735,-2.447c0.739,-0.595 1.571,-0.893 2.497,-0.893Zm-2.189,9.088c0.522,0 1.045,-0.183 1.569,-0.549c0.524,-0.366 0.993,-0.858 1.406,-1.477c0.413,-0.618 0.725,-1.294 0.936,-2.03c0.211,-0.735 0.317,-1.349 0.317,-1.841c0,-0.738 -0.181,-1.329 -0.541,-1.771c-0.36,-0.442 -0.854,-0.664 -1.481,-0.664c-0.726,0 -1.383,0.244 -1.969,0.73c-0.586,0.486 -1.066,1.197 -1.441,2.131c-0.375,0.935 -0.563,1.894 -0.563,2.879c0,1.728 0.589,2.592 1.767,2.592Z" style="fill:#444;fill-rule:nonzero;"/><path d="M298.279,366.144c-1.014,0 -1.805,-0.32 -2.373,-0.962c-0.569,-0.642 -0.853,-1.537 -0.853,-2.685c0,-1.061 0.208,-2.077 0.624,-3.05c0.416,-0.973 0.989,-1.746 1.719,-2.32c0.729,-0.574 1.533,-0.862 2.412,-0.862c0.668,0 1.201,0.179 1.6,0.537c0.398,0.357 0.597,0.843 0.597,1.459c0,1.06 -0.479,1.869 -1.437,2.425c-0.958,0.557 -2.38,0.835 -4.267,0.835l-0.29,0c-0.035,0.258 -0.053,0.545 -0.053,0.862c0,0.966 0.217,1.703 0.651,2.21c0.433,0.507 1.058,0.76 1.872,0.76c0.773,0 1.582,-0.213 2.426,-0.641l0,0.826c-0.821,0.404 -1.697,0.606 -2.628,0.606Zm1.424,-9.123c-0.768,0 -1.481,0.339 -2.14,1.015c-0.66,0.677 -1.136,1.581 -1.429,2.712l0.431,0c3.029,0 4.544,-0.791 4.544,-2.373c0,-0.393 -0.128,-0.716 -0.382,-0.971c-0.255,-0.255 -0.597,-0.383 -1.024,-0.383Z" style="fill:#444;fill-rule:nonzero;"/><path d="M304.378,365.969l-1.511,-9.554l0.887,0l0.95,6.46c0.152,0.967 0.249,1.711 0.29,2.232l0.052,0c0.299,-0.674 0.677,-1.424 1.134,-2.25l3.569,-6.442l0.896,0l-5.273,9.554l-0.994,0Z" style="fill:#444;fill-rule:nonzero;"/><path d="M313.941,366.144c-1.014,0 -1.805,-0.32 -2.373,-0.962c-0.568,-0.642 -0.853,-1.537 -0.853,-2.685c0,-1.061 0.208,-2.077 0.624,-3.05c0.416,-0.973 0.989,-1.746 1.719,-2.32c0.729,-0.574 1.533,-0.862 2.412,-0.862c0.668,0 1.201,0.179 1.6,0.537c0.398,0.357 0.597,0.843 0.597,1.459c0,1.06 -0.479,1.869 -1.437,2.425c-0.958,0.557 -2.38,0.835 -4.267,0.835l-0.29,0c-0.035,0.258 -0.052,0.545 -0.052,0.862c0,0.966 0.216,1.703 0.65,2.21c0.434,0.507 1.058,0.76 1.872,0.76c0.774,0 1.582,-0.213 2.426,-0.641l0,0.826c-0.82,0.404 -1.696,0.606 -2.628,0.606Zm1.424,-9.123c-0.768,0 -1.481,0.339 -2.14,1.015c-0.66,0.677 -1.136,1.581 -1.429,2.712l0.431,0c3.029,0 4.544,-0.791 4.544,-2.373c0,-0.393 -0.127,-0.716 -0.382,-0.971c-0.255,-0.255 -0.597,-0.383 -1.024,-0.383Z" style="fill:#444;fill-rule:nonzero;"/><path d="M319.469,365.969l-0.826,0l2.936,-13.676l0.826,0l-2.936,13.676Z" style="fill:#444;fill-rule:nonzero;"/><path d="M327.854,356.23c1.055,0 1.871,0.318 2.448,0.954c0.577,0.636 0.865,1.513 0.865,2.632c0,1.155 -0.209,2.234 -0.628,3.239c-0.419,1.005 -0.992,1.771 -1.718,2.298c-0.727,0.528 -1.565,0.791 -2.514,0.791c-1.078,0 -1.897,-0.32 -2.456,-0.962c-0.56,-0.642 -0.84,-1.56 -0.84,-2.755c0,-1.12 0.214,-2.168 0.642,-3.147c0.428,-0.978 1.005,-1.731 1.731,-2.259c0.727,-0.527 1.55,-0.791 2.47,-0.791Zm-0.07,0.756c-0.727,0 -1.38,0.23 -1.96,0.69c-0.58,0.46 -1.043,1.119 -1.389,1.978c-0.346,0.858 -0.518,1.768 -0.518,2.729c0,2.004 0.826,3.006 2.478,3.006c0.744,0 1.405,-0.228 1.982,-0.682c0.577,-0.454 1.037,-1.122 1.38,-2.004c0.343,-0.881 0.514,-1.85 0.514,-2.904c0,-0.903 -0.214,-1.597 -0.642,-2.083c-0.427,-0.487 -1.043,-0.73 -1.845,-0.73Z" style="fill:#444;fill-rule:nonzero;"/><path d="M336.406,366.109c-1.348,0 -2.165,-0.641 -2.452,-1.925l-0.036,0c-0.076,0.422 -0.512,2.458 -1.309,6.109l-0.87,0l2.953,-13.878l0.721,0l-0.396,2.408l0.053,0c0.533,-0.896 1.106,-1.553 1.718,-1.969c0.612,-0.416 1.282,-0.624 2.008,-0.624c0.791,0 1.401,0.271 1.829,0.813c0.427,0.542 0.641,1.37 0.641,2.483c0,1.143 -0.211,2.23 -0.633,3.261c-0.422,1.031 -1,1.843 -1.736,2.435c-0.735,0.591 -1.565,0.887 -2.491,0.887Zm2.197,-9.088c-0.51,0 -1.02,0.172 -1.529,0.514c-0.51,0.343 -0.983,0.834 -1.42,1.473c-0.436,0.638 -0.76,1.334 -0.971,2.087c-0.211,0.753 -0.316,1.364 -0.316,1.833c0,0.732 0.18,1.319 0.54,1.762c0.361,0.442 0.854,0.663 1.481,0.663c0.727,0 1.386,-0.246 1.978,-0.738c0.592,-0.492 1.072,-1.205 1.441,-2.14c0.369,-0.935 0.554,-1.888 0.554,-2.861c0,-1.728 -0.586,-2.593 -1.758,-2.593Z" style="fill:#444;fill-rule:nonzero;"/><path d="M348.376,365.969l1.292,-5.924c0.147,-0.733 0.22,-1.207 0.22,-1.424c0,-1.066 -0.451,-1.6 -1.353,-1.6c-0.621,0 -1.207,0.198 -1.758,0.594c-0.551,0.395 -1.017,0.947 -1.398,1.656c-0.38,0.709 -0.673,1.55 -0.879,2.523l-0.878,4.175l-0.862,0l2.031,-9.554l0.703,0l-0.29,1.846l0.052,0c0.469,-0.663 1.001,-1.161 1.596,-1.495c0.594,-0.334 1.217,-0.501 1.867,-0.501c0.621,0 1.099,0.197 1.433,0.589c0.334,0.393 0.51,0.964 0.527,1.714l0.053,0c0.451,-0.756 0.981,-1.328 1.591,-1.718c0.609,-0.39 1.26,-0.585 1.951,-0.585c0.685,0 1.22,0.181 1.604,0.541c0.384,0.36 0.576,0.877 0.576,1.551c0,0.17 -0.008,0.336 -0.022,0.497c-0.015,0.161 -0.072,0.511 -0.172,1.05l-1.336,6.065l-0.879,0l1.31,-5.977c0.146,-0.703 0.22,-1.219 0.22,-1.547c0,-0.451 -0.126,-0.801 -0.378,-1.05c-0.252,-0.249 -0.601,-0.374 -1.046,-0.374c-0.92,0 -1.733,0.403 -2.439,1.209c-0.706,0.805 -1.2,1.868 -1.481,3.186l-0.958,4.553l-0.897,0Z" style="fill:#444;fill-rule:nonzero;"/><path d="M361.639,366.144c-1.014,0 -1.805,-0.32 -2.373,-0.962c-0.568,-0.642 -0.852,-1.537 -0.852,-2.685c0,-1.061 0.208,-2.077 0.624,-3.05c0.416,-0.973 0.988,-1.746 1.718,-2.32c0.729,-0.574 1.534,-0.862 2.412,-0.862c0.668,0 1.202,0.179 1.6,0.537c0.399,0.357 0.598,0.843 0.598,1.459c0,1.06 -0.479,1.869 -1.437,2.425c-0.958,0.557 -2.381,0.835 -4.267,0.835l-0.29,0c-0.036,0.258 -0.053,0.545 -0.053,0.862c0,0.966 0.217,1.703 0.65,2.21c0.434,0.507 1.058,0.76 1.872,0.76c0.774,0 1.582,-0.213 2.426,-0.641l0,0.826c-0.82,0.404 -1.696,0.606 -2.628,0.606Zm1.424,-9.123c-0.768,0 -1.481,0.339 -2.14,1.015c-0.659,0.677 -1.135,1.581 -1.428,2.712l0.43,0c3.03,0 4.544,-0.791 4.544,-2.373c0,-0.393 -0.127,-0.716 -0.382,-0.971c-0.255,-0.255 -0.596,-0.383 -1.024,-0.383Z" style="fill:#444;fill-rule:nonzero;"/><path d="M372.388,365.969l1.31,-6.082c0.123,-0.539 0.184,-0.997 0.184,-1.372c0,-0.468 -0.127,-0.834 -0.382,-1.098c-0.255,-0.264 -0.649,-0.396 -1.182,-0.396c-0.656,0 -1.273,0.197 -1.85,0.589c-0.577,0.393 -1.064,0.942 -1.459,1.648c-0.396,0.706 -0.699,1.546 -0.91,2.518l-0.896,4.193l-0.862,0l2.031,-9.554l0.72,0l-0.325,1.942l0.053,0c0.961,-1.394 2.18,-2.092 3.656,-2.092c0.762,0 1.333,0.188 1.714,0.563c0.381,0.375 0.571,0.914 0.571,1.617c0,0.41 -0.07,0.944 -0.211,1.6l-1.3,5.924l-0.862,0Z" style="fill:#444;fill-rule:nonzero;"/><path d="M381.819,356.415l-0.158,0.712l-2.488,0l-1.186,5.581c-0.129,0.58 -0.194,1.06 -0.194,1.441c0,0.815 0.37,1.222 1.108,1.222c0.398,0 0.844,-0.076 1.336,-0.229l0,0.756c-0.592,0.164 -1.09,0.246 -1.494,0.246c-0.58,0 -1.029,-0.159 -1.345,-0.479c-0.316,-0.319 -0.475,-0.783 -0.475,-1.393c0,-0.427 0.085,-1.031 0.255,-1.81l1.134,-5.335l-1.6,0l0.123,-0.589l1.618,-0.149l0.852,-2.224l0.484,0l-0.484,2.25l2.514,0Z" style="fill:#444;fill-rule:nonzero;"/><path d="M391.566,356.265c1.359,0 2.177,0.642 2.452,1.925l0.053,0l0.518,-1.775l0.703,0l-2.012,9.554l-0.721,0l0.396,-2.409l-0.053,0c-0.492,0.832 -1.04,1.471 -1.644,1.916c-0.603,0.446 -1.298,0.668 -2.083,0.668c-1.646,0 -2.469,-1.095 -2.469,-3.287c0,-1.154 0.219,-2.256 0.659,-3.304c0.439,-1.049 1.027,-1.859 1.762,-2.431c0.735,-0.571 1.548,-0.857 2.439,-0.857Zm-2.189,9.088c0.522,0 1.042,-0.181 1.561,-0.545c0.518,-0.363 0.984,-0.849 1.397,-1.459c0.413,-0.609 0.728,-1.283 0.945,-2.021c0.217,-0.738 0.325,-1.362 0.325,-1.872c0,-0.463 -0.076,-0.878 -0.229,-1.244c-0.152,-0.366 -0.377,-0.656 -0.676,-0.87c-0.299,-0.214 -0.671,-0.321 -1.117,-0.321c-0.726,0 -1.382,0.241 -1.968,0.721c-0.586,0.481 -1.067,1.2 -1.442,2.158c-0.375,0.958 -0.562,1.911 -0.562,2.861c0,0.89 0.146,1.545 0.439,1.964c0.293,0.419 0.736,0.628 1.327,0.628Z" style="fill:#444;fill-rule:nonzero;"/><path d="M402.482,365.969l1.31,-6.082c0.123,-0.539 0.184,-0.997 0.184,-1.372c0,-0.468 -0.127,-0.834 -0.382,-1.098c-0.255,-0.264 -0.649,-0.396 -1.182,-0.396c-0.657,0 -1.273,0.197 -1.85,0.589c-0.578,0.393 -1.064,0.942 -1.459,1.648c-0.396,0.706 -0.699,1.546 -0.91,2.518l-0.897,4.193l-0.861,0l2.03,-9.554l0.721,0l-0.325,1.942l0.053,0c0.961,-1.394 2.179,-2.092 3.656,-2.092c0.762,0 1.333,0.188 1.714,0.563c0.381,0.375 0.571,0.914 0.571,1.617c0,0.41 -0.07,0.944 -0.211,1.6l-1.301,5.924l-0.861,0Z" style="fill:#444;fill-rule:nonzero;"/><path d="M411.57,356.265c1.347,0 2.165,0.642 2.452,1.925l0.035,0c0.07,-0.386 0.489,-2.352 1.257,-5.897l0.87,0l-2.9,13.676l-0.721,0l0.395,-2.409l-0.052,0c-1.014,1.723 -2.256,2.584 -3.727,2.584c-1.646,0 -2.47,-1.095 -2.47,-3.287c0,-1.131 0.21,-2.215 0.629,-3.252c0.419,-1.037 0.997,-1.853 1.736,-2.447c0.738,-0.595 1.57,-0.893 2.496,-0.893Zm-2.189,9.088c0.522,0 1.045,-0.183 1.569,-0.549c0.525,-0.366 0.993,-0.858 1.406,-1.477c0.414,-0.618 0.726,-1.294 0.936,-2.03c0.211,-0.735 0.317,-1.349 0.317,-1.841c0,-0.738 -0.18,-1.329 -0.541,-1.771c-0.36,-0.442 -0.854,-0.664 -1.481,-0.664c-0.726,0 -1.382,0.244 -1.968,0.73c-0.586,0.486 -1.067,1.197 -1.442,2.131c-0.375,0.935 -0.562,1.894 -0.562,2.879c0,1.728 0.589,2.592 1.766,2.592Z" style="fill:#444;fill-rule:nonzero;"/><path d="M419.295,370.293c-0.281,0 -0.58,-0.056 -0.896,-0.167l0,-0.791c0.31,0.094 0.603,0.14 0.879,0.14c0.515,0 0.908,-0.155 1.178,-0.465c0.269,-0.311 0.489,-0.856 0.659,-1.635l2.162,-10.248l-1.802,0l0.123,-0.589l1.802,-0.123l0.308,-1.406c0.205,-0.985 0.546,-1.7 1.023,-2.145c0.478,-0.445 1.144,-0.668 2,-0.668c0.428,0 0.914,0.091 1.459,0.273l-0.22,0.703c-0.51,-0.158 -0.94,-0.238 -1.292,-0.238c-0.562,0 -1.012,0.157 -1.349,0.471c-0.337,0.313 -0.584,0.836 -0.743,1.568l-0.307,1.442l2.179,0l-0.14,0.712l-2.18,0l-2.215,10.459c-0.193,0.943 -0.498,1.63 -0.914,2.061c-0.416,0.43 -0.987,0.646 -1.714,0.646Z" style="fill:#444;fill-rule:nonzero;"/><path d="M431.231,356.23c1.055,0 1.871,0.318 2.448,0.954c0.577,0.636 0.865,1.513 0.865,2.632c0,1.155 -0.209,2.234 -0.628,3.239c-0.419,1.005 -0.992,1.771 -1.718,2.298c-0.727,0.528 -1.565,0.791 -2.514,0.791c-1.078,0 -1.897,-0.32 -2.456,-0.962c-0.56,-0.642 -0.84,-1.56 -0.84,-2.755c0,-1.12 0.214,-2.168 0.642,-3.147c0.428,-0.978 1.005,-1.731 1.731,-2.259c0.727,-0.527 1.55,-0.791 2.47,-0.791Zm-0.07,0.756c-0.727,0 -1.38,0.23 -1.96,0.69c-0.58,0.46 -1.043,1.119 -1.389,1.978c-0.346,0.858 -0.519,1.768 -0.519,2.729c0,2.004 0.827,3.006 2.479,3.006c0.744,0 1.405,-0.228 1.982,-0.682c0.577,-0.454 1.037,-1.122 1.38,-2.004c0.343,-0.881 0.514,-1.85 0.514,-2.904c0,-0.903 -0.214,-1.597 -0.642,-2.083c-0.427,-0.487 -1.043,-0.73 -1.845,-0.73Z" style="fill:#444;fill-rule:nonzero;"/><path d="M439.598,366.144c-1.019,0 -1.824,-0.323 -2.412,-0.971c-0.589,-0.647 -0.884,-1.545 -0.884,-2.694c0,-1.131 0.216,-2.19 0.646,-3.177c0.431,-0.987 1.012,-1.74 1.745,-2.259c0.732,-0.518 1.582,-0.778 2.549,-0.778c0.785,0 1.491,0.126 2.118,0.378l-0.246,0.791c-0.627,-0.275 -1.266,-0.413 -1.916,-0.413c-0.756,0 -1.437,0.226 -2.044,0.677c-0.606,0.451 -1.082,1.102 -1.428,1.951c-0.346,0.85 -0.518,1.787 -0.518,2.813c0,0.926 0.215,1.639 0.646,2.14c0.43,0.501 1.041,0.751 1.832,0.751c0.416,0 0.801,-0.038 1.156,-0.114c0.354,-0.076 0.74,-0.211 1.156,-0.404l0,0.808c-0.68,0.334 -1.48,0.501 -2.4,0.501Z" style="fill:#444;fill-rule:nonzero;"/><path d="M446.55,356.415l-1.336,6.135c-0.129,0.621 -0.193,1.084 -0.193,1.388c0,0.434 0.139,0.778 0.417,1.033c0.279,0.255 0.685,0.382 1.218,0.382c0.644,0 1.252,-0.192 1.823,-0.575c0.572,-0.384 1.052,-0.932 1.442,-1.644c0.39,-0.712 0.681,-1.531 0.874,-2.456l0.923,-4.263l0.862,0l-2.031,9.554l-0.703,0l0.246,-1.802l-0.052,0c-0.979,1.295 -2.16,1.942 -3.542,1.942c-0.768,0 -1.35,-0.181 -1.745,-0.545c-0.396,-0.363 -0.593,-0.893 -0.593,-1.591c0,-0.351 0.064,-0.849 0.193,-1.494l1.318,-6.064l0.879,0Z" style="fill:#444;fill-rule:nonzero;"/><path d="M459.514,363.376c0,0.844 -0.302,1.516 -0.905,2.017c-0.604,0.501 -1.424,0.751 -2.461,0.751c-1.014,0 -1.907,-0.219 -2.681,-0.659l0,-0.94c0.434,0.269 0.882,0.477 1.345,0.624c0.463,0.146 0.896,0.22 1.301,0.22c0.808,0 1.427,-0.169 1.854,-0.506c0.428,-0.337 0.642,-0.816 0.642,-1.437c0,-0.246 -0.046,-0.463 -0.136,-0.65c-0.091,-0.188 -0.238,-0.368 -0.44,-0.541c-0.202,-0.173 -0.59,-0.423 -1.164,-0.751c-0.868,-0.469 -1.453,-0.895 -1.758,-1.279c-0.305,-0.384 -0.457,-0.851 -0.457,-1.402c0,-0.75 0.288,-1.364 0.866,-1.841c0.577,-0.478 1.337,-0.717 2.28,-0.717c0.44,0 0.904,0.052 1.393,0.154c0.49,0.103 0.901,0.239 1.235,0.409l-0.307,0.773c-0.797,-0.375 -1.571,-0.562 -2.321,-0.562c-0.679,0 -1.224,0.155 -1.634,0.466c-0.411,0.31 -0.616,0.715 -0.616,1.213c0,0.322 0.05,0.58 0.15,0.773c0.099,0.193 0.277,0.394 0.531,0.602c0.255,0.208 0.605,0.432 1.051,0.672c0.668,0.37 1.141,0.673 1.419,0.91c0.278,0.237 0.484,0.491 0.615,0.76c0.132,0.27 0.198,0.583 0.198,0.941Z" style="fill:#444;fill-rule:nonzero;"/><path d="M470.896,356.23c1.055,0 1.871,0.318 2.448,0.954c0.577,0.636 0.865,1.513 0.865,2.632c0,1.155 -0.209,2.234 -0.628,3.239c-0.419,1.005 -0.992,1.771 -1.718,2.298c-0.727,0.528 -1.565,0.791 -2.514,0.791c-1.078,0 -1.897,-0.32 -2.456,-0.962c-0.56,-0.642 -0.84,-1.56 -0.84,-2.755c0,-1.12 0.214,-2.168 0.642,-3.147c0.428,-0.978 1.005,-1.731 1.731,-2.259c0.727,-0.527 1.55,-0.791 2.47,-0.791Zm-0.07,0.756c-0.727,0 -1.38,0.23 -1.96,0.69c-0.58,0.46 -1.043,1.119 -1.389,1.978c-0.346,0.858 -0.519,1.768 -0.519,2.729c0,2.004 0.827,3.006 2.479,3.006c0.744,0 1.405,-0.228 1.982,-0.682c0.577,-0.454 1.037,-1.122 1.38,-2.004c0.343,-0.881 0.514,-1.85 0.514,-2.904c0,-0.903 -0.214,-1.597 -0.642,-2.083c-0.427,-0.487 -1.043,-0.73 -1.845,-0.73Z" style="fill:#444;fill-rule:nonzero;"/><path d="M481.786,365.969l1.309,-6.082c0.123,-0.539 0.185,-0.997 0.185,-1.372c0,-0.468 -0.128,-0.834 -0.383,-1.098c-0.254,-0.264 -0.648,-0.396 -1.182,-0.396c-0.656,0 -1.273,0.197 -1.85,0.589c-0.577,0.393 -1.063,0.942 -1.459,1.648c-0.395,0.706 -0.698,1.546 -0.909,2.518l-0.897,4.193l-0.861,0l2.03,-9.554l0.721,0l-0.325,1.942l0.052,0c0.961,-1.394 2.18,-2.092 3.657,-2.092c0.761,0 1.333,0.188 1.713,0.563c0.381,0.375 0.572,0.914 0.572,1.617c0,0.41 -0.071,0.944 -0.211,1.6l-1.301,5.924l-0.861,0Z" style="fill:#444;fill-rule:nonzero;"/><path d="M495.892,356.415l-0.158,0.712l-2.487,0l-1.187,5.581c-0.129,0.58 -0.193,1.06 -0.193,1.441c0,0.815 0.369,1.222 1.107,1.222c0.399,0 0.844,-0.076 1.336,-0.229l0,0.756c-0.592,0.164 -1.09,0.246 -1.494,0.246c-0.58,0 -1.028,-0.159 -1.345,-0.479c-0.316,-0.319 -0.474,-0.783 -0.474,-1.393c0,-0.427 0.085,-1.031 0.254,-1.81l1.134,-5.335l-1.599,0l0.123,-0.589l1.617,-0.149l0.852,-2.224l0.484,0l-0.484,2.25l2.514,0Z" style="fill:#444;fill-rule:nonzero;"/><path d="M500.911,356.23c1.054,0 1.87,0.318 2.447,0.954c0.578,0.636 0.866,1.513 0.866,2.632c0,1.155 -0.209,2.234 -0.628,3.239c-0.419,1.005 -0.992,1.771 -1.719,2.298c-0.726,0.528 -1.564,0.791 -2.513,0.791c-1.078,0 -1.897,-0.32 -2.457,-0.962c-0.559,-0.642 -0.839,-1.56 -0.839,-2.755c0,-1.12 0.214,-2.168 0.641,-3.147c0.428,-0.978 1.005,-1.731 1.732,-2.259c0.726,-0.527 1.55,-0.791 2.47,-0.791Zm-0.071,0.756c-0.726,0 -1.38,0.23 -1.96,0.69c-0.58,0.46 -1.043,1.119 -1.388,1.978c-0.346,0.858 -0.519,1.768 -0.519,2.729c0,2.004 0.826,3.006 2.479,3.006c0.744,0 1.404,-0.228 1.982,-0.682c0.577,-0.454 1.037,-1.122 1.379,-2.004c0.343,-0.881 0.515,-1.85 0.515,-2.904c0,-0.903 -0.214,-1.597 -0.642,-2.083c-0.428,-0.487 -1.043,-0.73 -1.846,-0.73Z" style="fill:#444;fill-rule:nonzero;"/><path d="M508.434,356.415l-1.336,6.135c-0.129,0.621 -0.193,1.084 -0.193,1.388c0,0.434 0.139,0.778 0.417,1.033c0.279,0.255 0.684,0.382 1.218,0.382c0.644,0 1.252,-0.192 1.823,-0.575c0.572,-0.384 1.052,-0.932 1.442,-1.644c0.389,-0.712 0.681,-1.531 0.874,-2.456l0.923,-4.263l0.861,0l-2.03,9.554l-0.703,0l0.246,-1.802l-0.053,0c-0.978,1.295 -2.159,1.942 -3.542,1.942c-0.767,0 -1.349,-0.181 -1.744,-0.545c-0.396,-0.363 -0.594,-0.893 -0.594,-1.591c0,-0.351 0.065,-0.849 0.194,-1.494l1.318,-6.064l0.879,0Z" style="fill:#444;fill-rule:nonzero;"/><path d="M524.799,356.415l-0.149,0.694l-2.136,0.097c0.153,0.164 0.28,0.41 0.382,0.738c0.103,0.328 0.154,0.662 0.154,1.002c0,0.639 -0.159,1.244 -0.479,1.815c-0.319,0.571 -0.753,0.998 -1.3,1.279c-0.548,0.281 -1.174,0.422 -1.877,0.422c-0.369,0 -0.595,-0.027 -0.677,-0.079c-0.468,0.193 -0.832,0.407 -1.09,0.641c-0.257,0.235 -0.386,0.472 -0.386,0.712c0,0.24 0.092,0.429 0.277,0.567c0.184,0.138 0.517,0.23 0.997,0.277l1.064,0.097c2.027,0.181 3.041,0.955 3.041,2.32c0,0.656 -0.191,1.235 -0.572,1.736c-0.381,0.501 -0.928,0.886 -1.643,1.156c-0.715,0.269 -1.568,0.404 -2.558,0.404c-1.09,0 -1.944,-0.211 -2.562,-0.633c-0.618,-0.422 -0.927,-1.017 -0.927,-1.784c0,-1.383 0.905,-2.361 2.716,-2.936c-0.457,-0.246 -0.686,-0.606 -0.686,-1.081c0,-0.72 0.56,-1.312 1.679,-1.775c-0.416,-0.211 -0.74,-0.52 -0.971,-0.927c-0.232,-0.408 -0.347,-0.869 -0.347,-1.385c0,-0.65 0.156,-1.248 0.47,-1.793c0.313,-0.545 0.747,-0.972 1.301,-1.283c0.553,-0.31 1.158,-0.466 1.814,-0.466c0.405,0 0.835,0.062 1.292,0.185l3.173,0Zm-9.545,11.373c0,0.592 0.238,1.031 0.712,1.318c0.475,0.287 1.131,0.431 1.969,0.431c1.19,0 2.118,-0.218 2.786,-0.655c0.668,-0.436 1.002,-1.035 1.002,-1.797c0,-0.498 -0.183,-0.881 -0.549,-1.147c-0.366,-0.267 -1.007,-0.435 -1.921,-0.506l-1.406,-0.131c-0.92,0.263 -1.582,0.599 -1.986,1.006c-0.404,0.407 -0.607,0.901 -0.607,1.481Zm2.382,-8.068c0,0.656 0.172,1.154 0.514,1.494c0.343,0.34 0.825,0.509 1.446,0.509c0.516,0 0.967,-0.108 1.354,-0.325c0.386,-0.217 0.687,-0.55 0.901,-1.002c0.213,-0.451 0.32,-0.946 0.32,-1.485c0,-0.609 -0.164,-1.083 -0.492,-1.419c-0.328,-0.337 -0.788,-0.506 -1.38,-0.506c-0.545,0 -1.016,0.126 -1.415,0.378c-0.398,0.252 -0.706,0.592 -0.923,1.02c-0.216,0.427 -0.325,0.873 -0.325,1.336Z" style="fill:#444;fill-rule:nonzero;"/><path d="M530.987,365.969l1.309,-6.082c0.123,-0.539 0.185,-0.997 0.185,-1.372c0,-0.468 -0.127,-0.834 -0.382,-1.098c-0.255,-0.264 -0.649,-0.396 -1.182,-0.396c-0.657,0 -1.273,0.197 -1.851,0.589c-0.577,0.393 -1.063,0.944 -1.459,1.653c-0.395,0.709 -0.698,1.546 -0.909,2.513l-0.897,4.193l-0.861,0l2.918,-13.676l0.844,0l-0.756,3.612c-0.258,1.172 -0.451,1.989 -0.58,2.452l0.052,0c0.457,-0.662 1.004,-1.176 1.64,-1.542c0.635,-0.366 1.308,-0.55 2.017,-0.55c0.726,0 1.289,0.191 1.687,0.572c0.399,0.381 0.598,0.917 0.598,1.608c0,0.41 -0.07,0.944 -0.211,1.6l-1.301,5.924l-0.861,0Z" style="fill:#444;fill-rule:nonzero;"/><path d="M543.371,366.109c-1.348,0 -2.165,-0.641 -2.453,-1.925l-0.035,0c-0.076,0.422 -0.512,2.458 -1.309,6.109l-0.87,0l2.953,-13.878l0.72,0l-0.395,2.408l0.053,0c0.533,-0.896 1.106,-1.553 1.718,-1.969c0.612,-0.416 1.282,-0.624 2.008,-0.624c0.791,0 1.401,0.271 1.828,0.813c0.428,0.542 0.642,1.37 0.642,2.483c0,1.143 -0.211,2.23 -0.633,3.261c-0.422,1.031 -1,1.843 -1.736,2.435c-0.735,0.591 -1.566,0.887 -2.491,0.887Zm2.197,-9.088c-0.51,0 -1.02,0.172 -1.529,0.514c-0.51,0.343 -0.983,0.834 -1.42,1.473c-0.436,0.638 -0.76,1.334 -0.971,2.087c-0.211,0.753 -0.316,1.364 -0.316,1.833c0,0.732 0.18,1.319 0.54,1.762c0.36,0.442 0.854,0.663 1.481,0.663c0.727,0 1.386,-0.246 1.978,-0.738c0.591,-0.492 1.072,-1.205 1.441,-2.14c0.369,-0.935 0.554,-1.888 0.554,-2.861c0,-1.728 -0.586,-2.593 -1.758,-2.593Z" style="fill:#444;fill-rule:nonzero;"/><path d="M555.359,356.248c0.404,0 0.765,0.041 1.081,0.123l-0.185,0.817c-0.275,-0.088 -0.606,-0.132 -0.993,-0.132c-0.551,0 -1.075,0.188 -1.573,0.563c-0.498,0.375 -0.946,0.937 -1.345,1.687c-0.398,0.75 -0.691,1.562 -0.879,2.435l-0.879,4.228l-0.861,0l2.03,-9.554l0.703,0l-0.254,1.793l0.052,0c0.428,-0.551 0.788,-0.948 1.081,-1.191c0.293,-0.243 0.605,-0.432 0.936,-0.567c0.331,-0.135 0.693,-0.202 1.086,-0.202Z" style="fill:#444;fill-rule:nonzero;"/><path d="M561.045,356.23c1.055,0 1.871,0.318 2.448,0.954c0.577,0.636 0.866,1.513 0.866,2.632c0,1.155 -0.21,2.234 -0.629,3.239c-0.418,1.005 -0.991,1.771 -1.718,2.298c-0.726,0.528 -1.564,0.791 -2.513,0.791c-1.079,0 -1.897,-0.32 -2.457,-0.962c-0.56,-0.642 -0.839,-1.56 -0.839,-2.755c0,-1.12 0.214,-2.168 0.641,-3.147c0.428,-0.978 1.005,-1.731 1.732,-2.259c0.726,-0.527 1.549,-0.791 2.469,-0.791Zm-0.07,0.756c-0.726,0 -1.38,0.23 -1.96,0.69c-0.58,0.46 -1.043,1.119 -1.389,1.978c-0.345,0.858 -0.518,1.768 -0.518,2.729c0,2.004 0.826,3.006 2.478,3.006c0.745,0 1.405,-0.228 1.982,-0.682c0.578,-0.454 1.037,-1.122 1.38,-2.004c0.343,-0.881 0.514,-1.85 0.514,-2.904c0,-0.903 -0.213,-1.597 -0.641,-2.083c-0.428,-0.487 -1.043,-0.73 -1.846,-0.73Z" style="fill:#444;fill-rule:nonzero;"/><path d="M569.615,366.109c-0.662,0 -1.207,-0.173 -1.635,-0.518c-0.428,-0.346 -0.712,-0.832 -0.853,-1.459l-0.052,0l-0.484,1.837l-0.703,0l2.874,-13.676l0.835,0c-0.767,3.68 -1.242,5.88 -1.424,6.6l0.053,0c0.545,-0.914 1.128,-1.586 1.749,-2.017c0.621,-0.43 1.298,-0.646 2.03,-0.646c1.647,0 2.47,1.099 2.47,3.296c0,1.19 -0.223,2.303 -0.668,3.34c-0.445,1.037 -1.034,1.837 -1.766,2.399c-0.733,0.563 -1.541,0.844 -2.426,0.844Zm2.197,-9.088c-0.533,0 -1.061,0.181 -1.582,0.541c-0.522,0.36 -0.992,0.857 -1.411,1.49c-0.419,0.632 -0.731,1.321 -0.936,2.065c-0.205,0.744 -0.307,1.348 -0.307,1.811c0,0.755 0.187,1.349 0.562,1.779c0.375,0.431 0.862,0.646 1.459,0.646c0.727,0 1.383,-0.243 1.969,-0.729c0.586,-0.486 1.066,-1.204 1.441,-2.153c0.375,-0.95 0.563,-1.902 0.563,-2.857c0,-0.891 -0.144,-1.545 -0.431,-1.964c-0.287,-0.419 -0.729,-0.629 -1.327,-0.629Z" style="fill:#444;fill-rule:nonzero;"/><path d="M576.831,365.969l-0.827,0l2.936,-13.676l0.826,0l-2.935,13.676Z" style="fill:#444;fill-rule:nonzero;"/><path d="M583.633,366.144c-1.013,0 -1.804,-0.32 -2.373,-0.962c-0.568,-0.642 -0.852,-1.537 -0.852,-2.685c0,-1.061 0.208,-2.077 0.624,-3.05c0.416,-0.973 0.989,-1.746 1.718,-2.32c0.729,-0.574 1.534,-0.862 2.413,-0.862c0.668,0 1.201,0.179 1.599,0.537c0.399,0.357 0.598,0.843 0.598,1.459c0,1.06 -0.479,1.869 -1.437,2.425c-0.958,0.557 -2.381,0.835 -4.267,0.835l-0.29,0c-0.035,0.258 -0.053,0.545 -0.053,0.862c0,0.966 0.217,1.703 0.65,2.21c0.434,0.507 1.058,0.76 1.872,0.76c0.774,0 1.582,-0.213 2.426,-0.641l0,0.826c-0.82,0.404 -1.696,0.606 -2.628,0.606Zm1.424,-9.123c-0.767,0 -1.481,0.339 -2.14,1.015c-0.659,0.677 -1.135,1.581 -1.428,2.712l0.43,0c3.03,0 4.544,-0.791 4.544,-2.373c0,-0.393 -0.127,-0.716 -0.382,-0.971c-0.255,-0.255 -0.596,-0.383 -1.024,-0.383Z" style="fill:#444;fill-rule:nonzero;"/><path d="M593.917,365.969l1.291,-5.924c0.147,-0.733 0.22,-1.207 0.22,-1.424c0,-1.066 -0.451,-1.6 -1.353,-1.6c-0.621,0 -1.207,0.198 -1.758,0.594c-0.551,0.395 -1.017,0.947 -1.398,1.656c-0.38,0.709 -0.673,1.55 -0.878,2.523l-0.879,4.175l-0.862,0l2.031,-9.554l0.703,0l-0.29,1.846l0.052,0c0.469,-0.663 1.001,-1.161 1.596,-1.495c0.594,-0.334 1.217,-0.501 1.867,-0.501c0.621,0 1.099,0.197 1.433,0.589c0.334,0.393 0.51,0.964 0.527,1.714l0.053,0c0.451,-0.756 0.981,-1.328 1.591,-1.718c0.609,-0.39 1.26,-0.585 1.951,-0.585c0.686,0 1.22,0.181 1.604,0.541c0.384,0.36 0.576,0.877 0.576,1.551c0,0.17 -0.008,0.336 -0.022,0.497c-0.015,0.161 -0.072,0.511 -0.172,1.05l-1.336,6.065l-0.879,0l1.31,-5.977c0.147,-0.703 0.22,-1.219 0.22,-1.547c0,-0.451 -0.126,-0.801 -0.378,-1.05c-0.252,-0.249 -0.601,-0.374 -1.046,-0.374c-0.92,0 -1.733,0.403 -2.439,1.209c-0.706,0.805 -1.2,1.868 -1.481,3.186l-0.958,4.553l-0.896,0Z" style="fill:#444;fill-rule:nonzero;"/><path d="M609.324,363.376c0,0.844 -0.302,1.516 -0.906,2.017c-0.603,0.501 -1.423,0.751 -2.46,0.751c-1.014,0 -1.908,-0.219 -2.681,-0.659l0,-0.94c0.433,0.269 0.882,0.477 1.345,0.624c0.462,0.146 0.896,0.22 1.3,0.22c0.809,0 1.427,-0.169 1.855,-0.506c0.428,-0.337 0.641,-0.816 0.641,-1.437c0,-0.246 -0.045,-0.463 -0.136,-0.65c-0.091,-0.188 -0.237,-0.368 -0.439,-0.541c-0.202,-0.173 -0.591,-0.423 -1.165,-0.751c-0.867,-0.469 -1.453,-0.895 -1.758,-1.279c-0.304,-0.384 -0.457,-0.851 -0.457,-1.402c0,-0.75 0.289,-1.364 0.866,-1.841c0.577,-0.478 1.338,-0.717 2.281,-0.717c0.439,0 0.904,0.052 1.393,0.154c0.489,0.103 0.901,0.239 1.235,0.409l-0.308,0.773c-0.797,-0.375 -1.57,-0.562 -2.32,-0.562c-0.68,0 -1.225,0.155 -1.635,0.466c-0.41,0.31 -0.615,0.715 -0.615,1.213c0,0.322 0.05,0.58 0.149,0.773c0.1,0.193 0.277,0.394 0.532,0.602c0.255,0.208 0.605,0.432 1.05,0.672c0.668,0.37 1.141,0.673 1.42,0.91c0.278,0.237 0.483,0.491 0.615,0.76c0.132,0.27 0.198,0.583 0.198,0.941Z" style="fill:#444;fill-rule:nonzero;"/><path d="M621.716,365.969l1.31,-6.082c0.123,-0.539 0.184,-0.997 0.184,-1.372c0,-0.468 -0.127,-0.834 -0.382,-1.098c-0.255,-0.264 -0.649,-0.396 -1.182,-0.396c-0.656,0 -1.273,0.197 -1.85,0.589c-0.577,0.393 -1.064,0.942 -1.459,1.648c-0.396,0.706 -0.699,1.546 -0.91,2.518l-0.896,4.193l-0.862,0l2.031,-9.554l0.72,0l-0.325,1.942l0.053,0c0.961,-1.394 2.18,-2.092 3.656,-2.092c0.762,0 1.333,0.188 1.714,0.563c0.381,0.375 0.571,0.914 0.571,1.617c0,0.41 -0.07,0.944 -0.211,1.6l-1.3,5.924l-0.862,0Z" style="fill:#444;fill-rule:nonzero;"/><path d="M630.751,356.23c1.055,0 1.871,0.318 2.448,0.954c0.577,0.636 0.866,1.513 0.866,2.632c0,1.155 -0.21,2.234 -0.628,3.239c-0.419,1.005 -0.992,1.771 -1.719,2.298c-0.726,0.528 -1.564,0.791 -2.513,0.791c-1.079,0 -1.897,-0.32 -2.457,-0.962c-0.56,-0.642 -0.839,-1.56 -0.839,-2.755c0,-1.12 0.214,-2.168 0.641,-3.147c0.428,-0.978 1.005,-1.731 1.732,-2.259c0.726,-0.527 1.55,-0.791 2.469,-0.791Zm-0.07,0.756c-0.726,0 -1.38,0.23 -1.96,0.69c-0.58,0.46 -1.043,1.119 -1.388,1.978c-0.346,0.858 -0.519,1.768 -0.519,2.729c0,2.004 0.826,3.006 2.478,3.006c0.745,0 1.405,-0.228 1.982,-0.682c0.578,-0.454 1.038,-1.122 1.38,-2.004c0.343,-0.881 0.514,-1.85 0.514,-2.904c0,-0.903 -0.213,-1.597 -0.641,-2.083c-0.428,-0.487 -1.043,-0.73 -1.846,-0.73Z" style="fill:#444;fill-rule:nonzero;"/><path d="M641.026,356.415l-0.158,0.712l-2.488,0l-1.186,5.581c-0.129,0.58 -0.194,1.06 -0.194,1.441c0,0.815 0.37,1.222 1.108,1.222c0.398,0 0.844,-0.076 1.336,-0.229l0,0.756c-0.592,0.164 -1.09,0.246 -1.494,0.246c-0.58,0 -1.029,-0.159 -1.345,-0.479c-0.316,-0.319 -0.475,-0.783 -0.475,-1.393c0,-0.427 0.085,-1.031 0.255,-1.81l1.134,-5.335l-1.6,0l0.123,-0.589l1.618,-0.149l0.852,-2.224l0.484,0l-0.484,2.25l2.514,0Z" style="fill:#444;fill-rule:nonzero;"/><path d="M653.462,353.761c-1.154,0 -2.184,0.306 -3.089,0.918c-0.905,0.612 -1.623,1.504 -2.153,2.676c-0.531,1.172 -0.796,2.464 -0.796,3.876c0,1.319 0.324,2.332 0.972,3.041c0.647,0.709 1.577,1.064 2.79,1.064c0.82,0 1.711,-0.15 2.672,-0.448l0,0.826c-0.914,0.287 -1.84,0.43 -2.777,0.43c-1.477,0 -2.608,-0.424 -3.393,-1.274c-0.785,-0.85 -1.178,-2.051 -1.178,-3.604c0,-1.558 0.306,-2.988 0.919,-4.289c0.612,-1.3 1.446,-2.299 2.5,-2.997c1.055,-0.697 2.233,-1.046 3.533,-1.046c1.038,0 1.937,0.2 2.699,0.598l-0.396,0.791c-0.322,-0.176 -0.687,-0.313 -1.094,-0.413c-0.407,-0.1 -0.81,-0.149 -1.209,-0.149Z" style="fill:#444;fill-rule:nonzero;"/><path d="M658.244,360.405l-1.152,5.564l-0.905,0l2.725,-12.85l2.663,0c2.519,0 3.779,1.055 3.779,3.164c0,1.066 -0.303,1.954 -0.91,2.663c-0.606,0.709 -1.431,1.154 -2.474,1.336c1.178,3.463 1.825,5.358 1.943,5.687l-0.976,0l-1.854,-5.564l-2.839,0Zm0.193,-0.808l2.215,0c1.219,0 2.147,-0.28 2.786,-0.84c0.639,-0.559 0.958,-1.384 0.958,-2.474c0,-1.57 -0.964,-2.355 -2.892,-2.355l-1.854,0l-1.213,5.669Z" style="fill:#444;fill-rule:nonzero;"/><path d="M677.615,353.119l-1.82,8.587c-0.339,1.582 -0.917,2.717 -1.731,3.406c-0.814,0.688 -1.913,1.032 -3.296,1.032c-2.578,0 -3.867,-1.174 -3.867,-3.524c0,-0.486 0.079,-1.075 0.237,-1.767l1.635,-7.734l0.905,0l-1.696,7.901c-0.117,0.522 -0.176,1.061 -0.176,1.618c0,1.81 1.002,2.715 3.006,2.715c1.143,0 2.043,-0.282 2.703,-0.848c0.659,-0.565 1.123,-1.498 1.393,-2.799l1.819,-8.587l0.888,0Z" style="fill:#444;fill-rule:nonzero;"/><path d="M688.715,358.243c0,1.482 -0.32,2.834 -0.962,4.056c-0.642,1.222 -1.522,2.139 -2.641,2.751c-1.119,0.612 -2.426,0.919 -3.92,0.919l-2.9,0l2.724,-12.85l2.681,0c1.652,0 2.902,0.432 3.748,1.296c0.847,0.865 1.27,2.141 1.27,3.828Zm-7.541,6.935c1.325,0 2.48,-0.277 3.468,-0.831c0.987,-0.554 1.752,-1.361 2.294,-2.421c0.542,-1.061 0.813,-2.268 0.813,-3.621c0,-2.918 -1.395,-4.377 -4.184,-4.377l-1.811,0l-2.417,11.25l1.837,0Z" style="fill:#444;fill-rule:nonzero;"/></svg>