<?xml version="1.0" encoding="UTF-8" standalone="no"?><!DOCTYPE svg PUBLIC "-//W3C//DTD SVG 1.1//EN" "http://www.w3.org/Graphics/SVG/1.1/DTD/svg11.dtd"><svg width="100%" height="100%" viewBox="0 0 960 400" version="1.1" xmlns="http://www.w3.org/2000/svg" xmlns:xlink="http://www.w3.org/1999/xlink" xml:space="preserve" xmlns:serif="http://www.serif.com/" style="fill-rule:evenodd;clip-rule:evenodd;stroke-linejoin:round;stroke-miterlimit:1.41421;"><g id="rest"><path d="M65.839,146.792l0,15.351l-11.739,0l-9.03,9.029l3.612,47.858l-12.642,11.739l12.642,11.739l-3.612,47.858l9.03,9.029l11.739,0l0,15.351l-18.963,0l-18.059,-19.866l3.612,-48.76l-10.836,-9.933l0,-10.836l10.836,-9.933l-3.612,-48.761l18.059,-19.865l18.963,0Z" style="fill:#1ab88a;"/><path d="M598.354,146.792l0,15.351l11.738,0l9.03,9.029l-3.612,47.858l12.642,11.739l-12.642,11.739l3.612,47.858l-9.03,9.029l-11.738,0l0,15.351l18.962,0l18.06,-19.866l-3.612,-48.76l10.836,-9.933l0,-10.836l-10.836,-9.933l3.612,-48.761l-18.06,-19.865l-18.962,0Z" style="fill:#1ab88a;"/><path d="M220.608,183.698l0,37.132l-17.815,17.816l-9.752,0l21.004,41.631l12.001,0l0,16.129l-40.319,0l0,-16.129l11.252,0l-21.004,-41.631l-19.128,0l0,41.631l11.439,0l0,16.129l-41.257,0l0,-16.129l13.69,0l0,-98.829l-13.69,0l0,-16.316l75.201,0l18.378,18.566Zm-63.761,-2.25l0,44.82l38.257,0l9.376,-9.376l0,-26.067l-9.376,-9.377l-38.257,0Z" style="fill:#029fc6;fill-rule:nonzero;"/><path d="M330.502,199.076l-13.69,0l0,-17.628l-48.758,0l0,39.944l33.193,0l0,-8.814l11.627,0l0,29.818l-11.627,0l0,-8.814l-33.193,0l0,46.695l48.946,0l0,-17.627l13.69,0l0,33.756l-92.454,0l0,-16.129l13.691,0l0,-98.829l-13.691,0l0,-16.316l92.266,0l0,33.944Z" style="fill:#029fc6;fill-rule:nonzero;"/><path d="M428.582,183.698l0,18.566l-16.128,0l0,-11.439l-9.565,-9.565l-30.567,0l-9.565,9.565l0,23.253l7.127,6.752l45.008,0l15.003,14.627l0,41.445l-19.504,19.504l-44.257,0l-19.504,-19.504l0,-24.005l16.127,0l0,17.254l10.127,10.126l30.756,0l9.939,-10.126l0,-27.193l-6.751,-6.938l-45.008,0l-15.19,-15.002l0,-37.32l18.565,-18.566l45.008,0l18.379,18.566Z" style="fill:#029fc6;fill-rule:nonzero;"/><path d="M537.163,203.577l-13.878,0l0,-23.067l-25.691,0l0,99.767l15.564,0l0,16.129l-47.258,0l0,-16.129l15.566,0l0,-99.767l-25.692,0l0,23.067l-13.878,0l0,-38.445l95.267,0l0,38.445Z" style="fill:#029fc6;fill-rule:nonzero;"/></g><g id="rocketbase"><path d="M94.671,96.496c-9.42,5.488 -32.014,20.525 -40.555,42.725c-0.269,0.701 -0.159,1.498 0.283,2.103c0.264,0.35 0.624,0.609 1.018,0.753c0.288,0.106 0.605,0.144 0.922,0.125l27.644,-2.141c0.024,-0.091 0.02,-0.187 0.048,-0.274l10.64,-43.291Z" style="fill:#1f1f1f;fill-rule:nonzero;"/><path d="M165.976,179.267c7.447,-22.57 -0.297,-48.52 -3.917,-58.492l-19.771,40.224c-0.024,0.067 -0.058,0.1 -0.091,0.168l19.943,19.54c0.226,0.226 0.504,0.394 0.788,0.499c0.038,0.029 0.067,0.039 0.076,0.039c1.143,0.413 2.411,-0.178 2.823,-1.311c0.097,-0.226 0.13,-0.451 0.149,-0.667Z" style="fill:#1f1f1f;fill-rule:nonzero;"/><path d="M177.763,65.822c2.501,-13.338 1.099,-32.633 -6.64,-43.426c-0.187,-0.25 -0.336,-0.533 -0.514,-0.773c-0.47,-0.6 -0.984,-1.104 -1.493,-1.637c-0.307,-0.327 -0.6,-0.716 -0.917,-1.023c-0.365,-0.331 -0.768,-0.576 -1.142,-0.883c-0.524,-0.423 -1.042,-0.884 -1.604,-1.244c-0.264,-0.163 -0.571,-0.259 -0.835,-0.403c-0.74,-0.413 -1.484,-0.826 -2.291,-1.119c-0.58,-0.211 -1.181,-0.302 -1.79,-0.446c-0.524,-0.125 -1.042,-0.312 -1.585,-0.399c-0.845,-0.11 -1.704,-0.11 -2.578,-0.105c-0.298,0 -0.59,-0.053 -0.893,-0.039c-0.701,0.039 -1.392,0.183 -2.088,0.288c-0.5,0.077 -0.98,0.092 -1.474,0.202c-0.298,0.062 -0.596,0.187 -0.903,0.264c-9.276,2.377 -18.868,10.231 -26.007,18.94c-1.201,1.45 -2.295,2.939 -3.332,4.417c-2.175,3.087 -4.028,6.16 -5.373,9.055c-0.504,1.066 -0.936,2.098 -1.301,3.102l-22.455,91.398c-0.484,1.676 0.413,3.438 2.041,4.033l35.61,12.953c1.642,0.6 3.461,-0.177 4.162,-1.771l41.621,-84.653c0.715,-1.969 1.306,-4.239 1.781,-6.731Zm-42.173,22.944c-6.688,-2.434 -10.14,-9.828 -7.706,-16.52c2.435,-6.688 9.833,-10.14 16.535,-7.697c6.679,2.435 10.136,9.828 7.701,16.516c-2.443,6.683 -9.837,10.126 -16.53,7.701Z" style="fill:#1f1f1f;fill-rule:nonzero;"/><path d="M116.453,168.69c-5.19,6.611 -10.351,11.316 -13.635,10.116c-3.294,-1.2 -4.23,-8.109 -3.956,-16.521c-4.287,0.404 -7.821,2.756 -9.78,8.128c-3.265,8.974 -9.66,47.166 -1.469,50.157c8.186,2.972 27.851,-30.39 31.116,-39.364c1.949,-5.372 0.739,-9.448 -2.276,-12.516Z" style="fill:#1f1f1f;fill-rule:nonzero;"/></g><g id="spring-boot"><path d="M771.234,79.488c-6.964,2.458 -10.651,6.759 -19.152,21.608c-0.614,1.127 -2.15,3.79 -3.277,5.838c-1.229,2.15 -3.174,5.531 -4.301,7.476c-2.765,4.916 -4.711,8.091 -13.314,23.043c-4.097,7.066 -8.295,14.44 -9.422,16.386c-1.126,1.946 -2.355,3.994 -2.765,4.608c-1.536,2.458 -3.175,8.501 -3.175,11.779c0,3.277 1.639,9.318 3.175,11.776c0.41,0.513 1.639,2.663 2.765,4.61c1.127,1.945 5.325,9.319 9.422,16.386c8.603,14.952 10.549,18.126 13.314,23.042c1.127,1.946 3.072,5.325 4.301,7.374c1.127,2.151 2.663,4.814 3.277,5.94c6.35,11.163 8.501,14.338 11.983,17.205c2.15,1.947 5.735,3.995 7.988,4.609c5.531,1.741 86.847,1.741 92.377,0c6.554,-1.946 11.47,-7.067 18.536,-19.458c3.482,-6.248 7.579,-13.212 8.909,-15.567c1.332,-2.356 3.277,-5.633 4.2,-7.272c0.921,-1.74 3.174,-5.53 5.017,-8.5c1.742,-2.97 3.176,-5.633 3.176,-5.838c0,-0.205 2.253,-4.096 5.019,-8.602c7.68,-12.495 11.367,-20.79 11.367,-25.705c0,-4.916 -3.687,-13.212 -11.367,-25.707c-2.766,-4.506 -5.019,-8.398 -5.019,-8.602c0,-0.205 -1.434,-2.868 -3.174,-5.837c-1.845,-2.971 -4.097,-6.863 -5.019,-8.501c-0.921,-1.741 -2.868,-4.916 -4.198,-7.271c-1.332,-2.356 -5.429,-9.32 -8.911,-15.567c-7.066,-12.392 -11.982,-17.513 -18.536,-19.458c-5.634,-1.742 -88.383,-1.537 -93.196,0.205Zm52.845,31.543c2.355,2.15 2.355,2.253 2.355,30.519l0,28.368l-2.56,2.356c-3.585,3.379 -9.217,3.379 -11.88,0c-1.741,-2.356 -1.946,-4.711 -1.946,-30.622c0,-27.447 0,-28.163 2.253,-30.519c2.868,-3.073 8.501,-3.175 11.778,-0.102Zm-31.646,10.036c2.766,1.741 3.277,2.663 3.277,5.837c0,3.38 -0.819,4.711 -5.94,9.73c-9.114,8.909 -12.801,17.512 -12.801,30.006c0,12.085 2.969,19.664 11.266,28.266c8.704,9.116 17.41,12.7 30.519,12.598c8.294,-0.103 10.036,-0.513 16.283,-3.482c14.747,-7.169 23.964,-21.61 24.169,-37.791c0,-10.037 -4.916,-21.302 -12.597,-28.982c-7.373,-7.272 -8.397,-9.218 -6.452,-12.904c0.82,-1.537 2.663,-3.483 3.995,-4.2c2.355,-1.229 3.072,-1.126 7.169,1.229c7.885,4.609 16.078,15.67 20.175,27.447c3.482,9.422 3.482,26.32 0.101,35.639c-7.167,19.767 -21.403,32.466 -42.091,37.587c-29.188,7.168 -60.731,-13.622 -67.081,-44.141c-2.866,-13.519 -1.331,-23.247 5.838,-37.995c3.278,-6.657 10.959,-15.465 16.386,-18.844c4.097,-2.458 3.687,-2.458 7.784,0Z" style="fill-rule:nonzero;"/><path d="M700.994,299.094c0,-2.179 2.146,-3.945 6.802,-3.945c3.273,0 5.605,1.042 7.051,1.791c0.289,0.143 0.454,0.093 0.547,-0.067l0.568,-0.984c0.103,-0.186 0.02,-0.32 -0.165,-0.404c-1.828,-0.866 -4.191,-1.85 -8.031,-1.85c-5.824,0 -9.003,2.405 -9.003,5.618c0,7.292 15.557,3.717 15.557,9.975c0,2.801 -3.118,3.878 -6.988,3.878c-3.892,0 -6.049,-1.093 -8.177,-2.136c-0.206,-0.109 -0.402,-0.05 -0.505,0.109l-0.526,0.925c-0.115,0.185 -0.022,0.312 0.186,0.412c2.395,1.253 5.14,2.246 8.929,2.246c4.893,0 9.404,-1.649 9.404,-5.669c0,-7.519 -15.649,-4.138 -15.649,-9.899Z" style="fill-rule:nonzero;"/><path d="M730.621,293.888l-7.588,0l-1.548,0c-0.176,0 -0.34,0.134 -0.34,0.276l0,19.968c0,0.143 0.164,0.277 0.34,0.277l1.548,0c0.176,0 0.341,-0.134 0.341,-0.277l0,-7.477l7.247,0c6.524,0 9.487,-2.961 9.487,-6.384c0,-3.423 -2.963,-6.383 -9.487,-6.383Zm-0.402,11.219l-6.845,0l0,-9.664l6.845,0c5.584,0 7.555,2.262 7.555,4.828c0,2.565 -1.971,4.836 -7.555,4.836Z" style="fill-rule:nonzero;"/><path d="M762.345,313.846l-6.37,-7.763c4.418,-0.74 6.451,-3.145 6.451,-5.98c0,-3.423 -2.961,-6.215 -9.486,-6.215l-7.175,0l-1.548,0c-0.176,0 -0.34,0.134 -0.34,0.276l0,19.968c0,0.143 0.164,0.277 0.34,0.277l1.548,0c0.176,0 0.341,-0.134 0.341,-0.277l0,-7.814l6.834,0c0.248,0 0.485,0 0.723,-0.008l6.451,7.948c0.093,0.11 0.196,0.151 0.311,0.151l1.558,0c0.392,0 0.588,-0.294 0.362,-0.563Zm-9.808,-9.075l-6.431,0l0,-9.328l6.431,0c5.586,0 7.557,2.094 7.557,4.66c0,2.565 -1.971,4.668 -7.557,4.668Z" style="fill-rule:nonzero;"/><path d="M766.866,294.164l0,19.968c0,0.143 0.165,0.277 0.351,0.277l1.538,0c0.186,0 0.34,-0.134 0.34,-0.277l0,-19.968c0,-0.142 -0.154,-0.276 -0.34,-0.276l-1.538,0c-0.186,0 -0.351,0.134 -0.351,0.276Z" style="fill-rule:nonzero;"/><path d="M795.461,293.888l-1.538,0c-0.196,0 -0.34,0.117 -0.34,0.276l0,16.831l-18.716,-17.301c-0.145,-0.118 -0.301,-0.143 -0.455,-0.143l-0.103,0c-0.206,0 -0.351,0.117 -0.351,0.278l0,20.303c0,0.16 0.145,0.277 0.351,0.277l1.538,0c0.206,0 0.341,-0.117 0.341,-0.277l0,-16.83l18.715,17.301c0.135,0.118 0.301,0.143 0.455,0.143l0.103,0c0.206,0 0.351,-0.118 0.351,-0.278l0,-20.304c0,-0.159 -0.145,-0.276 -0.351,-0.276Z" style="fill-rule:nonzero;"/><path d="M822.973,305.409l-1.332,0c-0.206,0 -0.35,0.119 -0.35,0.287l0,5.618c-2.623,1.237 -5.059,1.792 -8.393,1.792c-5.75,0 -10.251,-3.591 -10.251,-8.958c0,-5.366 4.501,-8.957 10.251,-8.957c3.633,0 6.275,1.102 8.423,3.86c0.124,0.202 0.33,0.211 0.485,0.152l1.187,-0.455c0.165,-0.066 0.311,-0.21 0.165,-0.403c-2.528,-3.314 -5.697,-4.71 -10.26,-4.71c-6.607,0 -12.585,4.038 -12.585,10.513c0,6.476 5.978,10.514 12.585,10.514c4.242,0 7.401,-0.934 10.426,-2.624l0,-6.342c0,-0.168 -0.145,-0.287 -0.351,-0.287Z" style="fill-rule:nonzero;"/><path d="M849.39,303.897c2.921,-0.346 5.389,-1.902 5.389,-4.796c0,-2.935 -2.767,-5.213 -8.672,-5.213l-8.3,0l-1.548,0c-0.176,0 -0.34,0.134 -0.34,0.276l0,19.968c0,0.143 0.164,0.277 0.34,0.277l10.571,0c5.915,0 8.878,-2.531 8.878,-5.466c0,-3.096 -2.88,-4.871 -6.318,-5.046Zm3.056,-4.635c0,2.321 -1.869,3.902 -6.628,3.902l-7.67,0l0,-7.721l7.557,0c5.171,0 6.741,1.75 6.741,3.819Zm-6.018,13.592l-8.28,0l0,-8.151l8.084,0c5.109,0 7.142,1.674 7.142,4.079c0,2.238 -1.764,4.072 -6.946,4.072Z" style="fill-rule:nonzero;"/><path d="M872.432,293.635c-6.607,0 -12.595,4.038 -12.595,10.513c0,6.476 5.988,10.514 12.595,10.514c6.606,0 12.583,-4.038 12.583,-10.514c0,-6.475 -5.977,-10.513 -12.583,-10.513Zm0,19.471c-5.76,0 -10.262,-3.591 -10.262,-8.958c0,-5.366 4.502,-8.957 10.262,-8.957c5.75,0 10.25,3.591 10.25,8.957c0,5.367 -4.5,8.958 -10.25,8.958Z" style="fill-rule:nonzero;"/><path d="M901.74,293.635c-6.608,0 -12.595,4.038 -12.595,10.513c0,6.476 5.987,10.514 12.595,10.514c6.607,0 12.583,-4.038 12.583,-10.514c0,-6.475 -5.976,-10.513 -12.583,-10.513Zm0,19.471c-5.761,0 -10.262,-3.591 -10.262,-8.958c0,-5.366 4.501,-8.957 10.262,-8.957c5.75,0 10.25,3.591 10.25,8.957c0,5.367 -4.5,8.958 -10.25,8.958Z" style="fill-rule:nonzero;"/><path d="M938.067,293.888l-9.508,0l-11.045,0c-0.186,0 -0.352,0.134 -0.352,0.276l0,0.993c0,0.152 0.166,0.286 0.352,0.286l9.157,0l0,18.689c0,0.143 0.164,0.277 0.34,0.277l1.548,0c0.176,0 0.341,-0.134 0.341,-0.277l0,-18.689l9.167,0c0.176,0 0.34,-0.134 0.34,-0.286l0,-0.993c0,-0.142 -0.164,-0.276 -0.34,-0.276Z" style="fill-rule:nonzero;"/></g><rect id="hr" x="86.06" y="334.281" width="787.881" height="0.786" style="fill:#444;"/><g id="slogan"><path d="M198.236,363.376c0,0.844 -0.302,1.516 -0.905,2.017c-0.604,0.501 -1.424,0.751 -2.461,0.751c-1.014,0 -1.908,-0.219 -2.681,-0.659l0,-0.94c0.434,0.269 0.882,0.477 1.345,0.624c0.463,0.146 0.896,0.22 1.3,0.22c0.809,0 1.427,-0.169 1.855,-0.506c0.428,-0.337 0.642,-0.816 0.642,-1.437c0,-0.246 -0.046,-0.463 -0.137,-0.65c-0.09,-0.188 -0.237,-0.368 -0.439,-0.541c-0.202,-0.173 -0.59,-0.423 -1.165,-0.751c-0.867,-0.469 -1.453,-0.895 -1.757,-1.279c-0.305,-0.384 -0.458,-0.851 -0.458,-1.402c0,-0.75 0.289,-1.364 0.866,-1.841c0.577,-0.478 1.338,-0.717 2.281,-0.717c0.439,0 0.904,0.052 1.393,0.154c0.489,0.103 0.901,0.239 1.235,0.409l-0.308,0.773c-0.797,-0.375 -1.57,-0.562 -2.32,-0.562c-0.68,0 -1.225,0.155 -1.635,0.466c-0.41,0.31 -0.615,0.715 -0.615,1.213c0,0.322 0.05,0.58 0.149,0.773c0.1,0.193 0.277,0.394 0.532,0.602c0.255,0.208 0.605,0.432 1.05,0.672c0.668,0.37 1.142,0.673 1.42,0.91c0.278,0.237 0.483,0.491 0.615,0.76c0.132,0.27 0.198,0.583 0.198,0.941Z" style="fill:#444;fill-rule:nonzero;"/><path d="M203.615,366.109c-1.348,0 -2.165,-0.641 -2.452,-1.925l-0.036,0c-0.076,0.422 -0.512,2.458 -1.309,6.109l-0.87,0l2.953,-13.878l0.721,0l-0.396,2.408l0.053,0c0.533,-0.896 1.106,-1.553 1.718,-1.969c0.612,-0.416 1.282,-0.624 2.008,-0.624c0.791,0 1.401,0.271 1.828,0.813c0.428,0.542 0.642,1.37 0.642,2.483c0,1.143 -0.211,2.23 -0.633,3.261c-0.422,1.031 -1,1.843 -1.736,2.435c-0.735,0.591 -1.565,0.887 -2.491,0.887Zm2.197,-9.088c-0.51,0 -1.02,0.172 -1.529,0.514c-0.51,0.343 -0.983,0.834 -1.42,1.473c-0.436,0.638 -0.76,1.334 -0.971,2.087c-0.211,0.753 -0.316,1.364 -0.316,1.833c0,0.732 0.18,1.319 0.54,1.762c0.361,0.442 0.854,0.663 1.481,0.663c0.727,0 1.386,-0.246 1.978,-0.738c0.592,-0.492 1.072,-1.205 1.441,-2.14c0.369,-0.935 0.554,-1.888 0.554,-2.861c0,-1.728 -0.586,-2.593 -1.758,-2.593Z" style="fill:#444;fill-rule:nonzero;"/><path d="M213.458,366.144c-1.013,0 -1.804,-0.32 -2.373,-0.962c-0.568,-0.642 -0.852,-1.537 -0.852,-2.685c0,-1.061 0.208,-2.077 0.624,-3.05c0.416,-0.973 0.989,-1.746 1.718,-2.32c0.73,-0.574 1.534,-0.862 2.413,-0.862c0.668,0 1.201,0.179 1.599,0.537c0.399,0.357 0.598,0.843 0.598,1.459c0,1.06 -0.479,1.869 -1.437,2.425c-0.958,0.557 -2.38,0.835 -4.267,0.835l-0.29,0c-0.035,0.258 -0.053,0.545 -0.053,0.862c0,0.966 0.217,1.703 0.651,2.21c0.433,0.507 1.057,0.76 1.872,0.76c0.773,0 1.582,-0.213 2.425,-0.641l0,0.826c-0.82,0.404 -1.696,0.606 -2.628,0.606Zm1.424,-9.123c-0.767,0 -1.481,0.339 -2.14,1.015c-0.659,0.677 -1.135,1.581 -1.428,2.712l0.431,0c3.029,0 4.544,-0.791 4.544,-2.373c0,-0.393 -0.128,-0.716 -0.383,-0.971c-0.255,-0.255 -0.596,-0.383 -1.024,-0.383Z" style="fill:#444;fill-rule:nonzero;"/><path d="M221.615,366.144c-1.014,0 -1.805,-0.32 -2.373,-0.962c-0.569,-0.642 -0.853,-1.537 -0.853,-2.685c0,-1.061 0.208,-2.077 0.624,-3.05c0.416,-0.973 0.989,-1.746 1.718,-2.32c0.73,-0.574 1.534,-0.862 2.413,-0.862c0.668,0 1.201,0.179 1.6,0.537c0.398,0.357 0.597,0.843 0.597,1.459c0,1.06 -0.479,1.869 -1.437,2.425c-0.958,0.557 -2.38,0.835 -4.267,0.835l-0.29,0c-0.035,0.258 -0.053,0.545 -0.053,0.862c0,0.966 0.217,1.703 0.651,2.21c0.433,0.507 1.057,0.76 1.872,0.76c0.773,0 1.582,-0.213 2.426,-0.641l0,0.826c-0.821,0.404 -1.697,0.606 -2.628,0.606Zm1.424,-9.123c-0.768,0 -1.481,0.339 -2.141,1.015c-0.659,0.677 -1.135,1.581 -1.428,2.712l0.431,0c3.029,0 4.544,-0.791 4.544,-2.373c0,-0.393 -0.128,-0.716 -0.383,-0.971c-0.254,-0.255 -0.596,-0.383 -1.023,-0.383Z" style="fill:#444;fill-rule:nonzero;"/><path d="M231.406,356.265c1.347,0 2.165,0.642 2.452,1.925l0.035,0c0.07,-0.386 0.489,-2.352 1.257,-5.897l0.87,0l-2.9,13.676l-0.721,0l0.395,-2.409l-0.052,0c-1.014,1.723 -2.256,2.584 -3.727,2.584c-1.646,0 -2.47,-1.095 -2.47,-3.287c0,-1.131 0.21,-2.215 0.629,-3.252c0.419,-1.037 0.997,-1.853 1.736,-2.447c0.738,-0.595 1.57,-0.893 2.496,-0.893Zm-2.189,9.088c0.522,0 1.045,-0.183 1.569,-0.549c0.525,-0.366 0.993,-0.858 1.406,-1.477c0.413,-0.618 0.725,-1.294 0.936,-2.03c0.211,-0.735 0.317,-1.349 0.317,-1.841c0,-0.738 -0.18,-1.329 -0.541,-1.771c-0.36,-0.442 -0.854,-0.664 -1.481,-0.664c-0.726,0 -1.382,0.244 -1.968,0.73c-0.586,0.486 -1.067,1.197 -1.442,2.131c-0.375,0.935 -0.562,1.894 -0.562,2.879c0,1.728 0.589,2.592 1.766,2.592Z" style="fill:#444;fill-rule:nonzero;"/><path d="M243.631,356.415l-1.336,6.135c-0.128,0.621 -0.193,1.084 -0.193,1.388c0,0.434 0.139,0.778 0.418,1.033c0.278,0.255 0.684,0.382 1.217,0.382c0.644,0 1.252,-0.192 1.824,-0.575c0.571,-0.384 1.051,-0.932 1.441,-1.644c0.39,-0.712 0.681,-1.531 0.874,-2.456l0.923,-4.263l0.862,0l-2.031,9.554l-0.703,0l0.246,-1.802l-0.052,0c-0.979,1.295 -2.16,1.942 -3.542,1.942c-0.768,0 -1.35,-0.181 -1.745,-0.545c-0.396,-0.363 -0.593,-0.893 -0.593,-1.591c0,-0.351 0.064,-0.849 0.193,-1.494l1.318,-6.064l0.879,0Z" style="fill:#444;fill-rule:nonzero;"/><path d="M254.706,366.109c-1.348,0 -2.165,-0.641 -2.453,-1.925l-0.035,0c-0.076,0.422 -0.512,2.458 -1.309,6.109l-0.87,0l2.953,-13.878l0.72,0l-0.395,2.408l0.053,0c0.533,-0.896 1.106,-1.553 1.718,-1.969c0.612,-0.416 1.282,-0.624 2.008,-0.624c0.791,0 1.401,0.271 1.828,0.813c0.428,0.542 0.642,1.37 0.642,2.483c0,1.143 -0.211,2.23 -0.633,3.261c-0.422,1.031 -1,1.843 -1.736,2.435c-0.735,0.591 -1.566,0.887 -2.491,0.887Zm2.197,-9.088c-0.51,0 -1.02,0.172 -1.529,0.514c-0.51,0.343 -0.983,0.834 -1.42,1.473c-0.436,0.638 -0.76,1.334 -0.971,2.087c-0.211,0.753 -0.316,1.364 -0.316,1.833c0,0.732 0.18,1.319 0.54,1.762c0.36,0.442 0.854,0.663 1.481,0.663c0.727,0 1.386,-0.246 1.978,-0.738c0.591,-0.492 1.072,-1.205 1.441,-2.14c0.369,-0.935 0.554,-1.888 0.554,-2.861c0,-1.728 -0.586,-2.593 -1.758,-2.593Z" style="fill:#444;fill-rule:nonzero;"/><path d="M271.352,365.969l1.292,-5.924c0.147,-0.733 0.22,-1.207 0.22,-1.424c0,-1.066 -0.451,-1.6 -1.354,-1.6c-0.621,0 -1.207,0.198 -1.758,0.594c-0.55,0.395 -1.016,0.947 -1.397,1.656c-0.381,0.709 -0.674,1.55 -0.879,2.523l-0.879,4.175l-0.861,0l2.03,-9.554l0.703,0l-0.29,1.846l0.053,0c0.469,-0.663 1,-1.161 1.595,-1.495c0.595,-0.334 1.217,-0.501 1.868,-0.501c0.621,0 1.098,0.197 1.432,0.589c0.334,0.393 0.51,0.964 0.528,1.714l0.053,0c0.451,-0.756 0.981,-1.328 1.59,-1.718c0.61,-0.39 1.26,-0.585 1.952,-0.585c0.685,0 1.22,0.181 1.604,0.541c0.383,0.36 0.575,0.877 0.575,1.551c0,0.17 -0.007,0.336 -0.022,0.497c-0.014,0.161 -0.072,0.511 -0.171,1.05l-1.336,6.065l-0.879,0l1.31,-5.977c0.146,-0.703 0.219,-1.219 0.219,-1.547c0,-0.451 -0.126,-0.801 -0.378,-1.05c-0.252,-0.249 -0.6,-0.374 -1.046,-0.374c-0.919,0 -1.732,0.403 -2.438,1.209c-0.707,0.805 -1.2,1.868 -1.481,3.186l-0.958,4.553l-0.897,0Z" style="fill:#444;fill-rule:nonzero;"/><path d="M282.022,365.969l-0.861,0l2.03,-9.554l0.844,0l-2.013,9.554Zm1.547,-12.006c0,-0.323 0.064,-0.58 0.193,-0.774c0.129,-0.193 0.305,-0.29 0.528,-0.29c0.334,0 0.501,0.211 0.501,0.633c0,0.334 -0.065,0.598 -0.194,0.791c-0.129,0.193 -0.296,0.29 -0.501,0.29c-0.17,0 -0.3,-0.057 -0.391,-0.171c-0.091,-0.115 -0.136,-0.274 -0.136,-0.479Z" style="fill:#444;fill-rule:nonzero;"/><path d="M288.86,366.144c-1.02,0 -1.824,-0.323 -2.413,-0.971c-0.589,-0.647 -0.883,-1.545 -0.883,-2.694c0,-1.131 0.215,-2.19 0.646,-3.177c0.431,-0.987 1.012,-1.74 1.745,-2.259c0.732,-0.518 1.582,-0.778 2.548,-0.778c0.786,0 1.492,0.126 2.119,0.378l-0.247,0.791c-0.626,-0.275 -1.265,-0.413 -1.916,-0.413c-0.755,0 -1.437,0.226 -2.043,0.677c-0.606,0.451 -1.083,1.102 -1.428,1.951c-0.346,0.85 -0.519,1.787 -0.519,2.813c0,0.926 0.216,1.639 0.646,2.14c0.431,0.501 1.042,0.751 1.833,0.751c0.416,0 0.801,-0.038 1.156,-0.114c0.354,-0.076 0.739,-0.211 1.155,-0.404l0,0.808c-0.679,0.334 -1.479,0.501 -2.399,0.501Z" style="fill:#444;fill-rule:nonzero;"/><path d="M298.73,356.248c0.404,0 0.765,0.041 1.081,0.123l-0.185,0.817c-0.275,-0.088 -0.606,-0.132 -0.993,-0.132c-0.55,0 -1.075,0.188 -1.573,0.563c-0.498,0.375 -0.946,0.937 -1.345,1.687c-0.398,0.75 -0.691,1.562 -0.879,2.435l-0.878,4.228l-0.862,0l2.03,-9.554l0.704,0l-0.255,1.793l0.052,0c0.428,-0.551 0.789,-0.948 1.081,-1.191c0.293,-0.243 0.605,-0.432 0.937,-0.567c0.331,-0.135 0.692,-0.202 1.085,-0.202Z" style="fill:#444;fill-rule:nonzero;"/><path d="M304.417,356.23c1.054,0 1.87,0.318 2.447,0.954c0.577,0.636 0.866,1.513 0.866,2.632c0,1.155 -0.209,2.234 -0.628,3.239c-0.419,1.005 -0.992,1.771 -1.719,2.298c-0.726,0.528 -1.564,0.791 -2.513,0.791c-1.078,0 -1.897,-0.32 -2.457,-0.962c-0.559,-0.642 -0.839,-1.56 -0.839,-2.755c0,-1.12 0.214,-2.168 0.641,-3.147c0.428,-0.978 1.005,-1.731 1.732,-2.259c0.726,-0.527 1.55,-0.791 2.47,-0.791Zm-0.071,0.756c-0.726,0 -1.38,0.23 -1.96,0.69c-0.58,0.46 -1.043,1.119 -1.388,1.978c-0.346,0.858 -0.519,1.768 -0.519,2.729c0,2.004 0.826,3.006 2.479,3.006c0.744,0 1.404,-0.228 1.981,-0.682c0.578,-0.454 1.038,-1.122 1.38,-2.004c0.343,-0.881 0.514,-1.85 0.514,-2.904c0,-0.903 -0.213,-1.597 -0.641,-2.083c-0.428,-0.487 -1.043,-0.73 -1.846,-0.73Z" style="fill:#444;fill-rule:nonzero;"/><path d="M314.858,363.376c0,0.844 -0.302,1.516 -0.905,2.017c-0.604,0.501 -1.424,0.751 -2.461,0.751c-1.014,0 -1.908,-0.219 -2.681,-0.659l0,-0.94c0.434,0.269 0.882,0.477 1.345,0.624c0.463,0.146 0.896,0.22 1.301,0.22c0.808,0 1.426,-0.169 1.854,-0.506c0.428,-0.337 0.642,-0.816 0.642,-1.437c0,-0.246 -0.046,-0.463 -0.137,-0.65c-0.09,-0.188 -0.237,-0.368 -0.439,-0.541c-0.202,-0.173 -0.59,-0.423 -1.165,-0.751c-0.867,-0.469 -1.453,-0.895 -1.757,-1.279c-0.305,-0.384 -0.457,-0.851 -0.457,-1.402c0,-0.75 0.288,-1.364 0.865,-1.841c0.577,-0.478 1.338,-0.717 2.281,-0.717c0.439,0 0.904,0.052 1.393,0.154c0.489,0.103 0.901,0.239 1.235,0.409l-0.308,0.773c-0.797,-0.375 -1.57,-0.562 -2.32,-0.562c-0.68,0 -1.225,0.155 -1.635,0.466c-0.41,0.31 -0.615,0.715 -0.615,1.213c0,0.322 0.05,0.58 0.149,0.773c0.1,0.193 0.277,0.394 0.532,0.602c0.255,0.208 0.605,0.432 1.05,0.672c0.668,0.37 1.142,0.673 1.42,0.91c0.278,0.237 0.483,0.491 0.615,0.76c0.132,0.27 0.198,0.583 0.198,0.941Z" style="fill:#444;fill-rule:nonzero;"/><path d="M319.982,366.144c-1.014,0 -1.805,-0.32 -2.373,-0.962c-0.568,-0.642 -0.853,-1.537 -0.853,-2.685c0,-1.061 0.208,-2.077 0.624,-3.05c0.416,-0.973 0.989,-1.746 1.719,-2.32c0.729,-0.574 1.533,-0.862 2.412,-0.862c0.668,0 1.201,0.179 1.6,0.537c0.398,0.357 0.597,0.843 0.597,1.459c0,1.06 -0.479,1.869 -1.437,2.425c-0.958,0.557 -2.38,0.835 -4.267,0.835l-0.29,0c-0.035,0.258 -0.052,0.545 -0.052,0.862c0,0.966 0.216,1.703 0.65,2.21c0.434,0.507 1.058,0.76 1.872,0.76c0.774,0 1.582,-0.213 2.426,-0.641l0,0.826c-0.82,0.404 -1.696,0.606 -2.628,0.606Zm1.424,-9.123c-0.768,0 -1.481,0.339 -2.14,1.015c-0.66,0.677 -1.136,1.581 -1.429,2.712l0.431,0c3.029,0 4.544,-0.791 4.544,-2.373c0,-0.393 -0.127,-0.716 -0.382,-0.971c-0.255,-0.255 -0.597,-0.383 -1.024,-0.383Z" style="fill:#444;fill-rule:nonzero;"/><path d="M330.283,356.248c0.404,0 0.764,0.041 1.081,0.123l-0.185,0.817c-0.275,-0.088 -0.606,-0.132 -0.993,-0.132c-0.551,0 -1.075,0.188 -1.573,0.563c-0.498,0.375 -0.946,0.937 -1.345,1.687c-0.398,0.75 -0.691,1.562 -0.879,2.435l-0.879,4.228l-0.861,0l2.03,-9.554l0.703,0l-0.255,1.793l0.053,0c0.428,-0.551 0.788,-0.948 1.081,-1.191c0.293,-0.243 0.605,-0.432 0.936,-0.567c0.331,-0.135 0.693,-0.202 1.086,-0.202Z" style="fill:#444;fill-rule:nonzero;"/><path d="M333.051,365.969l-1.511,-9.554l0.887,0l0.949,6.46c0.153,0.967 0.249,1.711 0.291,2.232l0.052,0c0.299,-0.674 0.677,-1.424 1.134,-2.25l3.568,-6.442l0.897,0l-5.274,9.554l-0.993,0Z" style="fill:#444;fill-rule:nonzero;"/><path d="M340.021,365.969l-0.861,0l2.03,-9.554l0.844,0l-2.013,9.554Zm1.547,-12.006c0,-0.323 0.064,-0.58 0.193,-0.774c0.129,-0.193 0.305,-0.29 0.528,-0.29c0.334,0 0.501,0.211 0.501,0.633c0,0.334 -0.065,0.598 -0.194,0.791c-0.129,0.193 -0.296,0.29 -0.501,0.29c-0.17,0 -0.3,-0.057 -0.391,-0.171c-0.091,-0.115 -0.136,-0.274 -0.136,-0.479Z" style="fill:#444;fill-rule:nonzero;"/><path d="M346.859,366.144c-1.02,0 -1.824,-0.323 -2.413,-0.971c-0.589,-0.647 -0.883,-1.545 -0.883,-2.694c0,-1.131 0.215,-2.19 0.646,-3.177c0.431,-0.987 1.012,-1.74 1.745,-2.259c0.732,-0.518 1.582,-0.778 2.548,-0.778c0.786,0 1.492,0.126 2.119,0.378l-0.246,0.791c-0.627,-0.275 -1.266,-0.413 -1.917,-0.413c-0.755,0 -1.437,0.226 -2.043,0.677c-0.606,0.451 -1.082,1.102 -1.428,1.951c-0.346,0.85 -0.519,1.787 -0.519,2.813c0,0.926 0.216,1.639 0.646,2.14c0.431,0.501 1.042,0.751 1.833,0.751c0.416,0 0.801,-0.038 1.156,-0.114c0.354,-0.076 0.739,-0.211 1.155,-0.404l0,0.808c-0.679,0.334 -1.479,0.501 -2.399,0.501Z" style="fill:#444;fill-rule:nonzero;"/><path d="M354.584,366.144c-1.013,0 -1.804,-0.32 -2.373,-0.962c-0.568,-0.642 -0.852,-1.537 -0.852,-2.685c0,-1.061 0.208,-2.077 0.624,-3.05c0.416,-0.973 0.989,-1.746 1.718,-2.32c0.73,-0.574 1.534,-0.862 2.413,-0.862c0.668,0 1.201,0.179 1.599,0.537c0.399,0.357 0.598,0.843 0.598,1.459c0,1.06 -0.479,1.869 -1.437,2.425c-0.958,0.557 -2.38,0.835 -4.267,0.835l-0.29,0c-0.035,0.258 -0.053,0.545 -0.053,0.862c0,0.966 0.217,1.703 0.651,2.21c0.433,0.507 1.057,0.76 1.872,0.76c0.773,0 1.582,-0.213 2.425,-0.641l0,0.826c-0.82,0.404 -1.696,0.606 -2.628,0.606Zm1.424,-9.123c-0.767,0 -1.481,0.339 -2.14,1.015c-0.659,0.677 -1.135,1.581 -1.428,2.712l0.431,0c3.029,0 4.544,-0.791 4.544,-2.373c0,-0.393 -0.128,-0.716 -0.383,-0.971c-0.255,-0.255 -0.596,-0.383 -1.024,-0.383Z" style="fill:#444;fill-rule:nonzero;"/><path d="M369.051,356.265c1.348,0 2.165,0.642 2.452,1.925l0.036,0c0.07,-0.386 0.489,-2.352 1.256,-5.897l0.871,0l-2.901,13.676l-0.721,0l0.396,-2.409l-0.053,0c-1.013,1.723 -2.256,2.584 -3.726,2.584c-1.647,0 -2.47,-1.095 -2.47,-3.287c0,-1.131 0.209,-2.215 0.628,-3.252c0.419,-1.037 0.998,-1.853 1.736,-2.447c0.738,-0.595 1.57,-0.893 2.496,-0.893Zm-2.188,9.088c0.521,0 1.044,-0.183 1.569,-0.549c0.524,-0.366 0.993,-0.858 1.406,-1.477c0.413,-0.618 0.725,-1.294 0.936,-2.03c0.211,-0.735 0.316,-1.349 0.316,-1.841c0,-0.738 -0.18,-1.329 -0.54,-1.771c-0.361,-0.442 -0.854,-0.664 -1.481,-0.664c-0.727,0 -1.383,0.244 -1.969,0.73c-0.586,0.486 -1.066,1.197 -1.441,2.131c-0.375,0.935 -0.563,1.894 -0.563,2.879c0,1.728 0.589,2.592 1.767,2.592Z" style="fill:#444;fill-rule:nonzero;"/><path d="M377.375,366.144c-1.014,0 -1.805,-0.32 -2.374,-0.962c-0.568,-0.642 -0.852,-1.537 -0.852,-2.685c0,-1.061 0.208,-2.077 0.624,-3.05c0.416,-0.973 0.989,-1.746 1.718,-2.32c0.73,-0.574 1.534,-0.862 2.413,-0.862c0.668,0 1.201,0.179 1.599,0.537c0.399,0.357 0.598,0.843 0.598,1.459c0,1.06 -0.479,1.869 -1.437,2.425c-0.958,0.557 -2.38,0.835 -4.267,0.835l-0.29,0c-0.035,0.258 -0.053,0.545 -0.053,0.862c0,0.966 0.217,1.703 0.651,2.21c0.433,0.507 1.057,0.76 1.872,0.76c0.773,0 1.582,-0.213 2.425,-0.641l0,0.826c-0.82,0.404 -1.696,0.606 -2.627,0.606Zm1.423,-9.123c-0.767,0 -1.481,0.339 -2.14,1.015c-0.659,0.677 -1.135,1.581 -1.428,2.712l0.431,0c3.029,0 4.544,-0.791 4.544,-2.373c0,-0.393 -0.128,-0.716 -0.383,-0.971c-0.255,-0.255 -0.596,-0.383 -1.024,-0.383Z" style="fill:#444;fill-rule:nonzero;"/><path d="M383.474,365.969l-1.512,-9.554l0.888,0l0.949,6.46c0.153,0.967 0.249,1.711 0.29,2.232l0.053,0c0.299,-0.674 0.677,-1.424 1.134,-2.25l3.568,-6.442l0.897,0l-5.274,9.554l-0.993,0Z" style="fill:#444;fill-rule:nonzero;"/><path d="M393.037,366.144c-1.014,0 -1.805,-0.32 -2.373,-0.962c-0.569,-0.642 -0.853,-1.537 -0.853,-2.685c0,-1.061 0.208,-2.077 0.624,-3.05c0.416,-0.973 0.989,-1.746 1.718,-2.32c0.73,-0.574 1.534,-0.862 2.413,-0.862c0.668,0 1.201,0.179 1.6,0.537c0.398,0.357 0.597,0.843 0.597,1.459c0,1.06 -0.479,1.869 -1.437,2.425c-0.958,0.557 -2.38,0.835 -4.267,0.835l-0.29,0c-0.035,0.258 -0.053,0.545 -0.053,0.862c0,0.966 0.217,1.703 0.651,2.21c0.433,0.507 1.057,0.76 1.872,0.76c0.773,0 1.582,-0.213 2.426,-0.641l0,0.826c-0.821,0.404 -1.697,0.606 -2.628,0.606Zm1.423,-9.123c-0.767,0 -1.481,0.339 -2.14,1.015c-0.659,0.677 -1.135,1.581 -1.428,2.712l0.431,0c3.029,0 4.544,-0.791 4.544,-2.373c0,-0.393 -0.128,-0.716 -0.383,-0.971c-0.255,-0.255 -0.596,-0.383 -1.024,-0.383Z" style="fill:#444;fill-rule:nonzero;"/><path d="M398.565,365.969l-0.826,0l2.935,-13.676l0.826,0l-2.935,13.676Z" style="fill:#444;fill-rule:nonzero;"/><path d="M406.95,356.23c1.054,0 1.87,0.318 2.447,0.954c0.578,0.636 0.866,1.513 0.866,2.632c0,1.155 -0.209,2.234 -0.628,3.239c-0.419,1.005 -0.992,1.771 -1.718,2.298c-0.727,0.528 -1.565,0.791 -2.514,0.791c-1.078,0 -1.897,-0.32 -2.457,-0.962c-0.559,-0.642 -0.839,-1.56 -0.839,-2.755c0,-1.12 0.214,-2.168 0.642,-3.147c0.427,-0.978 1.004,-1.731 1.731,-2.259c0.727,-0.527 1.55,-0.791 2.47,-0.791Zm-0.071,0.756c-0.726,0 -1.379,0.23 -1.96,0.69c-0.58,0.46 -1.043,1.119 -1.388,1.978c-0.346,0.858 -0.519,1.768 -0.519,2.729c0,2.004 0.826,3.006 2.479,3.006c0.744,0 1.405,-0.228 1.982,-0.682c0.577,-0.454 1.037,-1.122 1.38,-2.004c0.342,-0.881 0.514,-1.85 0.514,-2.904c0,-0.903 -0.214,-1.597 -0.642,-2.083c-0.428,-0.487 -1.043,-0.73 -1.846,-0.73Z" style="fill:#444;fill-rule:nonzero;"/><path d="M415.501,366.109c-1.347,0 -2.165,-0.641 -2.452,-1.925l-0.035,0c-0.076,0.422 -0.513,2.458 -1.309,6.109l-0.871,0l2.954,-13.878l0.72,0l-0.395,2.408l0.053,0c0.533,-0.896 1.105,-1.553 1.718,-1.969c0.612,-0.416 1.282,-0.624 2.008,-0.624c0.791,0 1.4,0.271 1.828,0.813c0.428,0.542 0.642,1.37 0.642,2.483c0,1.143 -0.211,2.23 -0.633,3.261c-0.422,1.031 -1,1.843 -1.736,2.435c-0.735,0.591 -1.566,0.887 -2.492,0.887Zm2.198,-9.088c-0.51,0 -1.02,0.172 -1.53,0.514c-0.509,0.343 -0.982,0.834 -1.419,1.473c-0.437,0.638 -0.76,1.334 -0.971,2.087c-0.211,0.753 -0.317,1.364 -0.317,1.833c0,0.732 0.181,1.319 0.541,1.762c0.36,0.442 0.854,0.663 1.481,0.663c0.726,0 1.386,-0.246 1.977,-0.738c0.592,-0.492 1.073,-1.205 1.442,-2.14c0.369,-0.935 0.554,-1.888 0.554,-2.861c0,-1.728 -0.586,-2.593 -1.758,-2.593Z" style="fill:#444;fill-rule:nonzero;"/><path d="M427.472,365.969l1.292,-5.924c0.147,-0.733 0.22,-1.207 0.22,-1.424c0,-1.066 -0.451,-1.6 -1.354,-1.6c-0.621,0 -1.207,0.198 -1.757,0.594c-0.551,0.395 -1.017,0.947 -1.398,1.656c-0.381,0.709 -0.674,1.55 -0.879,2.523l-0.879,4.175l-0.861,0l2.03,-9.554l0.703,0l-0.29,1.846l0.053,0c0.469,-0.663 1.001,-1.161 1.595,-1.495c0.595,-0.334 1.218,-0.501 1.868,-0.501c0.621,0 1.099,0.197 1.433,0.589c0.334,0.393 0.509,0.964 0.527,1.714l0.053,0c0.451,-0.756 0.981,-1.328 1.59,-1.718c0.61,-0.39 1.26,-0.585 1.952,-0.585c0.685,0 1.22,0.181 1.604,0.541c0.383,0.36 0.575,0.877 0.575,1.551c0,0.17 -0.007,0.336 -0.022,0.497c-0.014,0.161 -0.071,0.511 -0.171,1.05l-1.336,6.065l-0.879,0l1.31,-5.977c0.146,-0.703 0.219,-1.219 0.219,-1.547c0,-0.451 -0.126,-0.801 -0.378,-1.05c-0.251,-0.249 -0.6,-0.374 -1.045,-0.374c-0.92,0 -1.733,0.403 -2.439,1.209c-0.706,0.805 -1.2,1.868 -1.481,3.186l-0.958,4.553l-0.897,0Z" style="fill:#444;fill-rule:nonzero;"/><path d="M440.735,366.144c-1.014,0 -1.805,-0.32 -2.373,-0.962c-0.569,-0.642 -0.853,-1.537 -0.853,-2.685c0,-1.061 0.208,-2.077 0.624,-3.05c0.416,-0.973 0.989,-1.746 1.719,-2.32c0.729,-0.574 1.533,-0.862 2.412,-0.862c0.668,0 1.201,0.179 1.6,0.537c0.398,0.357 0.597,0.843 0.597,1.459c0,1.06 -0.479,1.869 -1.437,2.425c-0.958,0.557 -2.38,0.835 -4.267,0.835l-0.29,0c-0.035,0.258 -0.052,0.545 -0.052,0.862c0,0.966 0.216,1.703 0.65,2.21c0.434,0.507 1.058,0.76 1.872,0.76c0.773,0 1.582,-0.213 2.426,-0.641l0,0.826c-0.821,0.404 -1.696,0.606 -2.628,0.606Zm1.424,-9.123c-0.768,0 -1.481,0.339 -2.14,1.015c-0.66,0.677 -1.136,1.581 -1.429,2.712l0.431,0c3.029,0 4.544,-0.791 4.544,-2.373c0,-0.393 -0.127,-0.716 -0.382,-0.971c-0.255,-0.255 -0.597,-0.383 -1.024,-0.383Z" style="fill:#444;fill-rule:nonzero;"/><path d="M451.484,365.969l1.309,-6.082c0.124,-0.539 0.185,-0.997 0.185,-1.372c0,-0.468 -0.127,-0.834 -0.382,-1.098c-0.255,-0.264 -0.649,-0.396 -1.182,-0.396c-0.657,0 -1.273,0.197 -1.851,0.589c-0.577,0.393 -1.063,0.942 -1.459,1.648c-0.395,0.706 -0.698,1.546 -0.909,2.518l-0.897,4.193l-0.861,0l2.03,-9.554l0.721,0l-0.325,1.942l0.053,0c0.96,-1.394 2.179,-2.092 3.656,-2.092c0.761,0 1.333,0.188 1.714,0.563c0.381,0.375 0.571,0.914 0.571,1.617c0,0.41 -0.07,0.944 -0.211,1.6l-1.301,5.924l-0.861,0Z" style="fill:#444;fill-rule:nonzero;"/><path d="M460.915,356.415l-0.159,0.712l-2.487,0l-1.186,5.581c-0.129,0.58 -0.194,1.06 -0.194,1.441c0,0.815 0.369,1.222 1.108,1.222c0.398,0 0.843,-0.076 1.336,-0.229l0,0.756c-0.592,0.164 -1.09,0.246 -1.495,0.246c-0.58,0 -1.028,-0.159 -1.344,-0.479c-0.317,-0.319 -0.475,-0.783 -0.475,-1.393c0,-0.427 0.085,-1.031 0.255,-1.81l1.134,-5.335l-1.6,0l0.123,-0.589l1.617,-0.149l0.853,-2.224l0.483,0l-0.483,2.25l2.514,0Z" style="fill:#444;fill-rule:nonzero;"/><path d="M470.662,356.265c1.359,0 2.176,0.642 2.452,1.925l0.053,0l0.518,-1.775l0.703,0l-2.013,9.554l-0.72,0l0.395,-2.409l-0.052,0c-0.493,0.832 -1.04,1.471 -1.644,1.916c-0.604,0.446 -1.298,0.668 -2.083,0.668c-1.646,0 -2.47,-1.095 -2.47,-3.287c0,-1.154 0.22,-2.256 0.659,-3.304c0.44,-1.049 1.027,-1.859 1.763,-2.431c0.735,-0.571 1.548,-0.857 2.439,-0.857Zm-2.189,9.088c0.522,0 1.042,-0.181 1.56,-0.545c0.519,-0.363 0.985,-0.849 1.398,-1.459c0.413,-0.609 0.728,-1.283 0.944,-2.021c0.217,-0.738 0.326,-1.362 0.326,-1.872c0,-0.463 -0.076,-0.878 -0.229,-1.244c-0.152,-0.366 -0.378,-0.656 -0.677,-0.87c-0.298,-0.214 -0.67,-0.321 -1.116,-0.321c-0.726,0 -1.383,0.241 -1.969,0.721c-0.585,0.481 -1.066,1.2 -1.441,2.158c-0.375,0.958 -0.562,1.911 -0.562,2.861c0,0.89 0.146,1.545 0.439,1.964c0.293,0.419 0.735,0.628 1.327,0.628Z" style="fill:#444;fill-rule:nonzero;"/><path d="M481.578,365.969l1.309,-6.082c0.123,-0.539 0.185,-0.997 0.185,-1.372c0,-0.468 -0.128,-0.834 -0.383,-1.098c-0.254,-0.264 -0.648,-0.396 -1.182,-0.396c-0.656,0 -1.273,0.197 -1.85,0.589c-0.577,0.393 -1.063,0.942 -1.459,1.648c-0.395,0.706 -0.698,1.546 -0.909,2.518l-0.897,4.193l-0.861,0l2.03,-9.554l0.721,0l-0.325,1.942l0.052,0c0.961,-1.394 2.18,-2.092 3.657,-2.092c0.761,0 1.333,0.188 1.713,0.563c0.381,0.375 0.572,0.914 0.572,1.617c0,0.41 -0.071,0.944 -0.211,1.6l-1.301,5.924l-0.861,0Z" style="fill:#444;fill-rule:nonzero;"/><path d="M490.666,356.265c1.347,0 2.165,0.642 2.452,1.925l0.035,0c0.07,-0.386 0.489,-2.352 1.257,-5.897l0.87,0l-2.901,13.676l-0.72,0l0.395,-2.409l-0.053,0c-1.013,1.723 -2.255,2.584 -3.726,2.584c-1.647,0 -2.47,-1.095 -2.47,-3.287c0,-1.131 0.21,-2.215 0.629,-3.252c0.419,-1.037 0.997,-1.853 1.735,-2.447c0.739,-0.595 1.571,-0.893 2.497,-0.893Zm-2.189,9.088c0.522,0 1.044,-0.183 1.569,-0.549c0.524,-0.366 0.993,-0.858 1.406,-1.477c0.413,-0.618 0.725,-1.294 0.936,-2.03c0.211,-0.735 0.317,-1.349 0.317,-1.841c0,-0.738 -0.181,-1.329 -0.541,-1.771c-0.36,-0.442 -0.854,-0.664 -1.481,-0.664c-0.726,0 -1.383,0.244 -1.969,0.73c-0.586,0.486 -1.066,1.197 -1.441,2.131c-0.375,0.935 -0.563,1.894 -0.563,2.879c0,1.728 0.589,2.592 1.767,2.592Z" style="fill:#444;fill-rule:nonzero;"/><path d="M498.391,370.293c-0.281,0 -0.58,-0.056 -0.896,-0.167l0,-0.791c0.31,0.094 0.603,0.14 0.879,0.14c0.515,0 0.908,-0.155 1.177,-0.465c0.27,-0.311 0.49,-0.856 0.659,-1.635l2.163,-10.248l-1.802,0l0.123,-0.589l1.802,-0.123l0.307,-1.406c0.205,-0.985 0.547,-1.7 1.024,-2.145c0.478,-0.445 1.144,-0.668 2,-0.668c0.427,0 0.914,0.091 1.459,0.273l-0.22,0.703c-0.51,-0.158 -0.941,-0.238 -1.292,-0.238c-0.563,0 -1.012,0.157 -1.349,0.471c-0.337,0.313 -0.585,0.836 -0.743,1.568l-0.307,1.442l2.179,0l-0.14,0.712l-2.18,0l-2.215,10.459c-0.193,0.943 -0.498,1.63 -0.914,2.061c-0.416,0.43 -0.987,0.646 -1.714,0.646Z" style="fill:#444;fill-rule:nonzero;"/><path d="M510.327,356.23c1.054,0 1.87,0.318 2.447,0.954c0.578,0.636 0.866,1.513 0.866,2.632c0,1.155 -0.209,2.234 -0.628,3.239c-0.419,1.005 -0.992,1.771 -1.719,2.298c-0.726,0.528 -1.564,0.791 -2.513,0.791c-1.078,0 -1.897,-0.32 -2.457,-0.962c-0.559,-0.642 -0.839,-1.56 -0.839,-2.755c0,-1.12 0.214,-2.168 0.641,-3.147c0.428,-0.978 1.005,-1.731 1.732,-2.259c0.726,-0.527 1.55,-0.791 2.47,-0.791Zm-0.071,0.756c-0.726,0 -1.38,0.23 -1.96,0.69c-0.58,0.46 -1.043,1.119 -1.388,1.978c-0.346,0.858 -0.519,1.768 -0.519,2.729c0,2.004 0.826,3.006 2.479,3.006c0.744,0 1.404,-0.228 1.982,-0.682c0.577,-0.454 1.037,-1.122 1.379,-2.004c0.343,-0.881 0.515,-1.85 0.515,-2.904c0,-0.903 -0.214,-1.597 -0.642,-2.083c-0.428,-0.487 -1.043,-0.73 -1.846,-0.73Z" style="fill:#444;fill-rule:nonzero;"/><path d="M518.694,366.144c-1.02,0 -1.824,-0.323 -2.413,-0.971c-0.589,-0.647 -0.883,-1.545 -0.883,-2.694c0,-1.131 0.215,-2.19 0.646,-3.177c0.431,-0.987 1.012,-1.74 1.745,-2.259c0.732,-0.518 1.582,-0.778 2.548,-0.778c0.786,0 1.492,0.126 2.119,0.378l-0.247,0.791c-0.626,-0.275 -1.265,-0.413 -1.916,-0.413c-0.755,0 -1.437,0.226 -2.043,0.677c-0.606,0.451 -1.083,1.102 -1.428,1.951c-0.346,0.85 -0.519,1.787 -0.519,2.813c0,0.926 0.216,1.639 0.646,2.14c0.431,0.501 1.042,0.751 1.833,0.751c0.416,0 0.801,-0.038 1.156,-0.114c0.354,-0.076 0.739,-0.211 1.155,-0.404l0,0.808c-0.679,0.334 -1.479,0.501 -2.399,0.501Z" style="fill:#444;fill-rule:nonzero;"/><path d="M525.646,356.415l-1.336,6.135c-0.129,0.621 -0.193,1.084 -0.193,1.388c0,0.434 0.139,0.778 0.417,1.033c0.279,0.255 0.684,0.382 1.217,0.382c0.645,0 1.253,-0.192 1.824,-0.575c0.571,-0.384 1.052,-0.932 1.442,-1.644c0.389,-0.712 0.681,-1.531 0.874,-2.456l0.923,-4.263l0.861,0l-2.03,9.554l-0.703,0l0.246,-1.802l-0.053,0c-0.978,1.295 -2.159,1.942 -3.542,1.942c-0.767,0 -1.349,-0.181 -1.744,-0.545c-0.396,-0.363 -0.594,-0.893 -0.594,-1.591c0,-0.351 0.065,-0.849 0.194,-1.494l1.318,-6.064l0.879,0Z" style="fill:#444;fill-rule:nonzero;"/><path d="M538.61,363.376c0,0.844 -0.302,1.516 -0.905,2.017c-0.604,0.501 -1.424,0.751 -2.461,0.751c-1.014,0 -1.908,-0.219 -2.681,-0.659l0,-0.94c0.434,0.269 0.882,0.477 1.345,0.624c0.463,0.146 0.896,0.22 1.3,0.22c0.809,0 1.427,-0.169 1.855,-0.506c0.428,-0.337 0.642,-0.816 0.642,-1.437c0,-0.246 -0.046,-0.463 -0.137,-0.65c-0.09,-0.188 -0.237,-0.368 -0.439,-0.541c-0.202,-0.173 -0.59,-0.423 -1.165,-0.751c-0.867,-0.469 -1.453,-0.895 -1.757,-1.279c-0.305,-0.384 -0.457,-0.851 -0.457,-1.402c0,-0.75 0.288,-1.364 0.865,-1.841c0.577,-0.478 1.338,-0.717 2.281,-0.717c0.439,0 0.904,0.052 1.393,0.154c0.489,0.103 0.901,0.239 1.235,0.409l-0.308,0.773c-0.797,-0.375 -1.57,-0.562 -2.32,-0.562c-0.68,0 -1.225,0.155 -1.635,0.466c-0.41,0.31 -0.615,0.715 -0.615,1.213c0,0.322 0.05,0.58 0.149,0.773c0.1,0.193 0.277,0.394 0.532,0.602c0.255,0.208 0.605,0.432 1.05,0.672c0.668,0.37 1.142,0.673 1.42,0.91c0.278,0.237 0.483,0.491 0.615,0.76c0.132,0.27 0.198,0.583 0.198,0.941Z" style="fill:#444;fill-rule:nonzero;"/><path d="M549.992,356.23c1.054,0 1.87,0.318 2.447,0.954c0.578,0.636 0.866,1.513 0.866,2.632c0,1.155 -0.209,2.234 -0.628,3.239c-0.419,1.005 -0.992,1.771 -1.719,2.298c-0.726,0.528 -1.564,0.791 -2.513,0.791c-1.078,0 -1.897,-0.32 -2.457,-0.962c-0.559,-0.642 -0.839,-1.56 -0.839,-2.755c0,-1.12 0.214,-2.168 0.642,-3.147c0.427,-0.978 1.004,-1.731 1.731,-2.259c0.727,-0.527 1.55,-0.791 2.47,-0.791Zm-0.071,0.756c-0.726,0 -1.379,0.23 -1.96,0.69c-0.58,0.46 -1.043,1.119 -1.388,1.978c-0.346,0.858 -0.519,1.768 -0.519,2.729c0,2.004 0.826,3.006 2.479,3.006c0.744,0 1.405,-0.228 1.982,-0.682c0.577,-0.454 1.037,-1.122 1.38,-2.004c0.342,-0.881 0.514,-1.85 0.514,-2.904c0,-0.903 -0.214,-1.597 -0.642,-2.083c-0.428,-0.487 -1.043,-0.73 -1.846,-0.73Z" style="fill:#444;fill-rule:nonzero;"/><path d="M560.881,365.969l1.31,-6.082c0.123,-0.539 0.184,-0.997 0.184,-1.372c0,-0.468 -0.127,-0.834 -0.382,-1.098c-0.255,-0.264 -0.649,-0.396 -1.182,-0.396c-0.656,0 -1.273,0.197 -1.85,0.589c-0.577,0.393 -1.064,0.942 -1.459,1.648c-0.396,0.706 -0.699,1.546 -0.91,2.518l-0.896,4.193l-0.862,0l2.031,-9.554l0.72,0l-0.325,1.942l0.053,0c0.961,-1.394 2.18,-2.092 3.656,-2.092c0.762,0 1.333,0.188 1.714,0.563c0.381,0.375 0.571,0.914 0.571,1.617c0,0.41 -0.07,0.944 -0.211,1.6l-1.3,5.924l-0.862,0Z" style="fill:#444;fill-rule:nonzero;"/><path d="M574.988,356.415l-0.158,0.712l-2.488,0l-1.186,5.581c-0.129,0.58 -0.194,1.06 -0.194,1.441c0,0.815 0.37,1.222 1.108,1.222c0.398,0 0.844,-0.076 1.336,-0.229l0,0.756c-0.592,0.164 -1.09,0.246 -1.494,0.246c-0.58,0 -1.029,-0.159 -1.345,-0.479c-0.317,-0.319 -0.475,-0.783 -0.475,-1.393c0,-0.427 0.085,-1.031 0.255,-1.81l1.134,-5.335l-1.6,0l0.123,-0.589l1.618,-0.149l0.852,-2.224l0.484,0l-0.484,2.25l2.514,0Z" style="fill:#444;fill-rule:nonzero;"/><path d="M580.006,356.23c1.055,0 1.871,0.318 2.448,0.954c0.577,0.636 0.866,1.513 0.866,2.632c0,1.155 -0.21,2.234 -0.629,3.239c-0.419,1.005 -0.991,1.771 -1.718,2.298c-0.726,0.528 -1.564,0.791 -2.514,0.791c-1.078,0 -1.896,-0.32 -2.456,-0.962c-0.56,-0.642 -0.839,-1.56 -0.839,-2.755c0,-1.12 0.213,-2.168 0.641,-3.147c0.428,-0.978 1.005,-1.731 1.732,-2.259c0.726,-0.527 1.549,-0.791 2.469,-0.791Zm-0.07,0.756c-0.727,0 -1.38,0.23 -1.96,0.69c-0.58,0.46 -1.043,1.119 -1.389,1.978c-0.345,0.858 -0.518,1.768 -0.518,2.729c0,2.004 0.826,3.006 2.478,3.006c0.745,0 1.405,-0.228 1.982,-0.682c0.577,-0.454 1.037,-1.122 1.38,-2.004c0.343,-0.881 0.514,-1.85 0.514,-2.904c0,-0.903 -0.214,-1.597 -0.641,-2.083c-0.428,-0.487 -1.043,-0.73 -1.846,-0.73Z" style="fill:#444;fill-rule:nonzero;"/><path d="M587.53,356.415l-1.336,6.135c-0.129,0.621 -0.194,1.084 -0.194,1.388c0,0.434 0.14,0.778 0.418,1.033c0.278,0.255 0.684,0.382 1.217,0.382c0.645,0 1.253,-0.192 1.824,-0.575c0.571,-0.384 1.052,-0.932 1.441,-1.644c0.39,-0.712 0.682,-1.531 0.875,-2.456l0.923,-4.263l0.861,0l-2.03,9.554l-0.703,0l0.246,-1.802l-0.053,0c-0.978,1.295 -2.159,1.942 -3.542,1.942c-0.768,0 -1.349,-0.181 -1.745,-0.545c-0.395,-0.363 -0.593,-0.893 -0.593,-1.591c0,-0.351 0.065,-0.849 0.194,-1.494l1.318,-6.064l0.879,0Z" style="fill:#444;fill-rule:nonzero;"/><path d="M603.895,356.415l-0.149,0.694l-2.136,0.097c0.152,0.164 0.28,0.41 0.382,0.738c0.103,0.328 0.154,0.662 0.154,1.002c0,0.639 -0.16,1.244 -0.479,1.815c-0.319,0.571 -0.753,0.998 -1.301,1.279c-0.548,0.281 -1.173,0.422 -1.876,0.422c-0.369,0 -0.595,-0.027 -0.677,-0.079c-0.469,0.193 -0.832,0.407 -1.09,0.641c-0.258,0.235 -0.387,0.472 -0.387,0.712c0,0.24 0.093,0.429 0.277,0.567c0.185,0.138 0.517,0.23 0.998,0.277l1.063,0.097c2.028,0.181 3.041,0.955 3.041,2.32c0,0.656 -0.19,1.235 -0.571,1.736c-0.381,0.501 -0.929,0.886 -1.644,1.156c-0.714,0.269 -1.567,0.404 -2.557,0.404c-1.09,0 -1.944,-0.211 -2.562,-0.633c-0.618,-0.422 -0.927,-1.017 -0.927,-1.784c0,-1.383 0.905,-2.361 2.715,-2.936c-0.457,-0.246 -0.685,-0.606 -0.685,-1.081c0,-0.72 0.559,-1.312 1.679,-1.775c-0.416,-0.211 -0.74,-0.52 -0.972,-0.927c-0.231,-0.408 -0.347,-0.869 -0.347,-1.385c0,-0.65 0.157,-1.248 0.47,-1.793c0.314,-0.545 0.748,-0.972 1.301,-1.283c0.554,-0.31 1.159,-0.466 1.815,-0.466c0.404,0 0.835,0.062 1.292,0.185l3.173,0Zm-9.545,11.373c0,0.592 0.237,1.031 0.712,1.318c0.475,0.287 1.131,0.431 1.969,0.431c1.189,0 2.118,-0.218 2.786,-0.655c0.668,-0.436 1.002,-1.035 1.002,-1.797c0,-0.498 -0.183,-0.881 -0.549,-1.147c-0.367,-0.267 -1.007,-0.435 -1.921,-0.506l-1.406,-0.131c-0.92,0.263 -1.582,0.599 -1.986,1.006c-0.405,0.407 -0.607,0.901 -0.607,1.481Zm2.382,-8.068c0,0.656 0.171,1.154 0.514,1.494c0.343,0.34 0.825,0.509 1.446,0.509c0.516,0 0.967,-0.108 1.353,-0.325c0.387,-0.217 0.687,-0.55 0.901,-1.002c0.214,-0.451 0.321,-0.946 0.321,-1.485c0,-0.609 -0.164,-1.083 -0.492,-1.419c-0.328,-0.337 -0.788,-0.506 -1.38,-0.506c-0.545,0 -1.017,0.126 -1.415,0.378c-0.398,0.252 -0.706,0.592 -0.923,1.02c-0.217,0.427 -0.325,0.873 -0.325,1.336Z" style="fill:#444;fill-rule:nonzero;"/><path d="M610.083,365.969l1.309,-6.082c0.123,-0.539 0.185,-0.997 0.185,-1.372c0,-0.468 -0.128,-0.834 -0.383,-1.098c-0.255,-0.264 -0.649,-0.396 -1.182,-0.396c-0.656,0 -1.273,0.197 -1.85,0.589c-0.577,0.393 -1.063,0.944 -1.459,1.653c-0.395,0.709 -0.699,1.546 -0.91,2.513l-0.896,4.193l-0.861,0l2.918,-13.676l0.843,0l-0.755,3.612c-0.258,1.172 -0.452,1.989 -0.581,2.452l0.053,0c0.457,-0.662 1.004,-1.176 1.639,-1.542c0.636,-0.366 1.308,-0.55 2.017,-0.55c0.727,0 1.289,0.191 1.688,0.572c0.398,0.381 0.598,0.917 0.598,1.608c0,0.41 -0.071,0.944 -0.211,1.6l-1.301,5.924l-0.861,0Z" style="fill:#444;fill-rule:nonzero;"/><path d="M622.466,366.109c-1.347,0 -2.165,-0.641 -2.452,-1.925l-0.035,0c-0.076,0.422 -0.513,2.458 -1.31,6.109l-0.87,0l2.953,-13.878l0.721,0l-0.395,2.408l0.052,0c0.534,-0.896 1.106,-1.553 1.719,-1.969c0.612,-0.416 1.281,-0.624 2.008,-0.624c0.791,0 1.4,0.271 1.828,0.813c0.428,0.542 0.642,1.37 0.642,2.483c0,1.143 -0.211,2.23 -0.633,3.261c-0.422,1.031 -1.001,1.843 -1.736,2.435c-0.735,0.591 -1.566,0.887 -2.492,0.887Zm2.198,-9.088c-0.51,0 -1.02,0.172 -1.53,0.514c-0.509,0.343 -0.983,0.834 -1.419,1.473c-0.437,0.638 -0.76,1.334 -0.971,2.087c-0.211,0.753 -0.317,1.364 -0.317,1.833c0,0.732 0.18,1.319 0.541,1.762c0.36,0.442 0.854,0.663 1.481,0.663c0.726,0 1.385,-0.246 1.977,-0.738c0.592,-0.492 1.073,-1.205 1.442,-2.14c0.369,-0.935 0.553,-1.888 0.553,-2.861c0,-1.728 -0.586,-2.593 -1.757,-2.593Z" style="fill:#444;fill-rule:nonzero;"/><path d="M634.455,356.248c0.404,0 0.764,0.041 1.081,0.123l-0.185,0.817c-0.275,-0.088 -0.606,-0.132 -0.993,-0.132c-0.551,0 -1.075,0.188 -1.573,0.563c-0.498,0.375 -0.947,0.937 -1.345,1.687c-0.398,0.75 -0.691,1.562 -0.879,2.435l-0.879,4.228l-0.861,0l2.03,-9.554l0.703,0l-0.255,1.793l0.053,0c0.428,-0.551 0.788,-0.948 1.081,-1.191c0.293,-0.243 0.605,-0.432 0.936,-0.567c0.331,-0.135 0.693,-0.202 1.086,-0.202Z" style="fill:#444;fill-rule:nonzero;"/><path d="M640.141,356.23c1.055,0 1.871,0.318 2.448,0.954c0.577,0.636 0.866,1.513 0.866,2.632c0,1.155 -0.21,2.234 -0.629,3.239c-0.419,1.005 -0.992,1.771 -1.718,2.298c-0.727,0.528 -1.565,0.791 -2.514,0.791c-1.078,0 -1.897,-0.32 -2.456,-0.962c-0.56,-0.642 -0.84,-1.56 -0.84,-2.755c0,-1.12 0.214,-2.168 0.642,-3.147c0.428,-0.978 1.005,-1.731 1.731,-2.259c0.727,-0.527 1.55,-0.791 2.47,-0.791Zm-0.07,0.756c-0.727,0 -1.38,0.23 -1.96,0.69c-0.58,0.46 -1.043,1.119 -1.389,1.978c-0.346,0.858 -0.518,1.768 -0.518,2.729c0,2.004 0.826,3.006 2.478,3.006c0.744,0 1.405,-0.228 1.982,-0.682c0.577,-0.454 1.037,-1.122 1.38,-2.004c0.343,-0.881 0.514,-1.85 0.514,-2.904c0,-0.903 -0.214,-1.597 -0.641,-2.083c-0.428,-0.487 -1.043,-0.73 -1.846,-0.73Z" style="fill:#444;fill-rule:nonzero;"/><path d="M648.71,366.109c-0.662,0 -1.207,-0.173 -1.634,-0.518c-0.428,-0.346 -0.712,-0.832 -0.853,-1.459l-0.053,0l-0.483,1.837l-0.703,0l2.874,-13.676l0.835,0c-0.768,3.68 -1.242,5.88 -1.424,6.6l0.053,0c0.545,-0.914 1.128,-1.586 1.749,-2.017c0.621,-0.43 1.298,-0.646 2.03,-0.646c1.647,0 2.47,1.099 2.47,3.296c0,1.19 -0.223,2.303 -0.668,3.34c-0.445,1.037 -1.034,1.837 -1.767,2.399c-0.732,0.563 -1.541,0.844 -2.426,0.844Zm2.198,-9.088c-0.533,0 -1.061,0.181 -1.582,0.541c-0.522,0.36 -0.992,0.857 -1.411,1.49c-0.419,0.632 -0.731,1.321 -0.936,2.065c-0.205,0.744 -0.308,1.348 -0.308,1.811c0,0.755 0.188,1.349 0.563,1.779c0.375,0.431 0.861,0.646 1.459,0.646c0.726,0 1.383,-0.243 1.969,-0.729c0.586,-0.486 1.066,-1.204 1.441,-2.153c0.375,-0.95 0.563,-1.902 0.563,-2.857c0,-0.891 -0.144,-1.545 -0.431,-1.964c-0.287,-0.419 -0.73,-0.629 -1.327,-0.629Z" style="fill:#444;fill-rule:nonzero;"/><path d="M655.926,365.969l-0.826,0l2.936,-13.676l0.826,0l-2.936,13.676Z" style="fill:#444;fill-rule:nonzero;"/><path d="M662.729,366.144c-1.014,0 -1.805,-0.32 -2.373,-0.962c-0.568,-0.642 -0.853,-1.537 -0.853,-2.685c0,-1.061 0.208,-2.077 0.624,-3.05c0.416,-0.973 0.989,-1.746 1.719,-2.32c0.729,-0.574 1.533,-0.862 2.412,-0.862c0.668,0 1.201,0.179 1.6,0.537c0.398,0.357 0.598,0.843 0.598,1.459c0,1.06 -0.479,1.869 -1.437,2.425c-0.958,0.557 -2.381,0.835 -4.268,0.835l-0.29,0c-0.035,0.258 -0.052,0.545 -0.052,0.862c0,0.966 0.216,1.703 0.65,2.21c0.434,0.507 1.058,0.76 1.872,0.76c0.774,0 1.582,-0.213 2.426,-0.641l0,0.826c-0.82,0.404 -1.696,0.606 -2.628,0.606Zm1.424,-9.123c-0.768,0 -1.481,0.339 -2.14,1.015c-0.659,0.677 -1.136,1.581 -1.429,2.712l0.431,0c3.029,0 4.544,-0.791 4.544,-2.373c0,-0.393 -0.127,-0.716 -0.382,-0.971c-0.255,-0.255 -0.596,-0.383 -1.024,-0.383Z" style="fill:#444;fill-rule:nonzero;"/><path d="M673.012,365.969l1.292,-5.924c0.147,-0.733 0.22,-1.207 0.22,-1.424c0,-1.066 -0.451,-1.6 -1.354,-1.6c-0.621,0 -1.207,0.198 -1.757,0.594c-0.551,0.395 -1.017,0.947 -1.398,1.656c-0.381,0.709 -0.674,1.55 -0.879,2.523l-0.879,4.175l-0.861,0l2.03,-9.554l0.703,0l-0.29,1.846l0.053,0c0.469,-0.663 1.001,-1.161 1.595,-1.495c0.595,-0.334 1.218,-0.501 1.868,-0.501c0.621,0 1.099,0.197 1.433,0.589c0.334,0.393 0.509,0.964 0.527,1.714l0.053,0c0.451,-0.756 0.981,-1.328 1.59,-1.718c0.61,-0.39 1.26,-0.585 1.952,-0.585c0.685,0 1.22,0.181 1.604,0.541c0.383,0.36 0.575,0.877 0.575,1.551c0,0.17 -0.007,0.336 -0.022,0.497c-0.014,0.161 -0.071,0.511 -0.171,1.05l-1.336,6.065l-0.879,0l1.31,-5.977c0.146,-0.703 0.219,-1.219 0.219,-1.547c0,-0.451 -0.126,-0.801 -0.377,-1.05c-0.252,-0.249 -0.601,-0.374 -1.046,-0.374c-0.92,0 -1.733,0.403 -2.439,1.209c-0.706,0.805 -1.2,1.868 -1.481,3.186l-0.958,4.553l-0.897,0Z" style="fill:#444;fill-rule:nonzero;"/><path d="M688.419,363.376c0,0.844 -0.301,1.516 -0.905,2.017c-0.603,0.501 -1.424,0.751 -2.461,0.751c-1.013,0 -1.907,-0.219 -2.68,-0.659l0,-0.94c0.433,0.269 0.881,0.477 1.344,0.624c0.463,0.146 0.897,0.22 1.301,0.22c0.809,0 1.427,-0.169 1.855,-0.506c0.427,-0.337 0.641,-0.816 0.641,-1.437c0,-0.246 -0.045,-0.463 -0.136,-0.65c-0.091,-0.188 -0.237,-0.368 -0.44,-0.541c-0.202,-0.173 -0.59,-0.423 -1.164,-0.751c-0.867,-0.469 -1.453,-0.895 -1.758,-1.279c-0.305,-0.384 -0.457,-0.851 -0.457,-1.402c0,-0.75 0.289,-1.364 0.866,-1.841c0.577,-0.478 1.337,-0.717 2.281,-0.717c0.439,0 0.903,0.052 1.393,0.154c0.489,0.103 0.901,0.239 1.234,0.409l-0.307,0.773c-0.797,-0.375 -1.57,-0.562 -2.32,-0.562c-0.68,0 -1.225,0.155 -1.635,0.466c-0.41,0.31 -0.615,0.715 -0.615,1.213c0,0.322 0.049,0.58 0.149,0.773c0.1,0.193 0.277,0.394 0.532,0.602c0.255,0.208 0.605,0.432 1.05,0.672c0.668,0.37 1.141,0.673 1.419,0.91c0.279,0.237 0.484,0.491 0.616,0.76c0.132,0.27 0.197,0.583 0.197,0.941Z" style="fill:#444;fill-rule:nonzero;"/><path d="M700.812,365.969l1.31,-6.082c0.123,-0.539 0.184,-0.997 0.184,-1.372c0,-0.468 -0.127,-0.834 -0.382,-1.098c-0.255,-0.264 -0.649,-0.396 -1.182,-0.396c-0.657,0 -1.273,0.197 -1.85,0.589c-0.578,0.393 -1.064,0.942 -1.459,1.648c-0.396,0.706 -0.699,1.546 -0.91,2.518l-0.897,4.193l-0.861,0l2.03,-9.554l0.721,0l-0.325,1.942l0.053,0c0.961,-1.394 2.179,-2.092 3.656,-2.092c0.762,0 1.333,0.188 1.714,0.563c0.381,0.375 0.571,0.914 0.571,1.617c0,0.41 -0.07,0.944 -0.211,1.6l-1.301,5.924l-0.861,0Z" style="fill:#444;fill-rule:nonzero;"/><path d="M709.847,356.23c1.055,0 1.871,0.318 2.448,0.954c0.577,0.636 0.866,1.513 0.866,2.632c0,1.155 -0.21,2.234 -0.629,3.239c-0.419,1.005 -0.991,1.771 -1.718,2.298c-0.727,0.528 -1.564,0.791 -2.514,0.791c-1.078,0 -1.897,-0.32 -2.456,-0.962c-0.56,-0.642 -0.84,-1.56 -0.84,-2.755c0,-1.12 0.214,-2.168 0.642,-3.147c0.428,-0.978 1.005,-1.731 1.731,-2.259c0.727,-0.527 1.55,-0.791 2.47,-0.791Zm-0.07,0.756c-0.727,0 -1.38,0.23 -1.96,0.69c-0.58,0.46 -1.043,1.119 -1.389,1.978c-0.345,0.858 -0.518,1.768 -0.518,2.729c0,2.004 0.826,3.006 2.478,3.006c0.744,0 1.405,-0.228 1.982,-0.682c0.577,-0.454 1.037,-1.122 1.38,-2.004c0.343,-0.881 0.514,-1.85 0.514,-2.904c0,-0.903 -0.214,-1.597 -0.641,-2.083c-0.428,-0.487 -1.043,-0.73 -1.846,-0.73Z" style="fill:#444;fill-rule:nonzero;"/><path d="M720.122,356.415l-0.159,0.712l-2.487,0l-1.186,5.581c-0.129,0.58 -0.194,1.06 -0.194,1.441c0,0.815 0.369,1.222 1.108,1.222c0.398,0 0.843,-0.076 1.336,-0.229l0,0.756c-0.592,0.164 -1.09,0.246 -1.495,0.246c-0.58,0 -1.028,-0.159 -1.344,-0.479c-0.317,-0.319 -0.475,-0.783 -0.475,-1.393c0,-0.427 0.085,-1.031 0.255,-1.81l1.134,-5.335l-1.6,0l0.123,-0.589l1.617,-0.149l0.853,-2.224l0.483,0l-0.483,2.25l2.514,0Z" style="fill:#444;fill-rule:nonzero;"/><path d="M732.558,353.761c-1.154,0 -2.184,0.306 -3.089,0.918c-0.906,0.612 -1.623,1.504 -2.154,2.676c-0.53,1.172 -0.795,2.464 -0.795,3.876c0,1.319 0.324,2.332 0.971,3.041c0.648,0.709 1.578,1.064 2.791,1.064c0.82,0 1.711,-0.15 2.672,-0.448l0,0.826c-0.914,0.287 -1.84,0.43 -2.778,0.43c-1.476,0 -2.607,-0.424 -3.392,-1.274c-0.785,-0.85 -1.178,-2.051 -1.178,-3.604c0,-1.558 0.306,-2.988 0.918,-4.289c0.613,-1.3 1.446,-2.299 2.501,-2.997c1.055,-0.697 2.232,-1.046 3.533,-1.046c1.037,0 1.937,0.2 2.698,0.598l-0.395,0.791c-0.322,-0.176 -0.687,-0.313 -1.094,-0.413c-0.408,-0.1 -0.81,-0.149 -1.209,-0.149Z" style="fill:#444;fill-rule:nonzero;"/><path d="M737.339,360.405l-1.151,5.564l-0.905,0l2.724,-12.85l2.663,0c2.52,0 3.78,1.055 3.78,3.164c0,1.066 -0.304,1.954 -0.91,2.663c-0.606,0.709 -1.431,1.154 -2.474,1.336c1.178,3.463 1.825,5.358 1.942,5.687l-0.975,0l-1.855,-5.564l-2.839,0Zm0.194,-0.808l2.215,0c1.218,0 2.147,-0.28 2.786,-0.84c0.638,-0.559 0.958,-1.384 0.958,-2.474c0,-1.57 -0.964,-2.355 -2.892,-2.355l-1.854,0l-1.213,5.669Z" style="fill:#444;fill-rule:nonzero;"/><path d="M756.71,353.119l-1.819,8.587c-0.34,1.582 -0.917,2.717 -1.731,3.406c-0.815,0.688 -1.913,1.032 -3.296,1.032c-2.578,0 -3.867,-1.174 -3.867,-3.524c0,-0.486 0.079,-1.075 0.237,-1.767l1.635,-7.734l0.905,0l-1.696,7.901c-0.118,0.522 -0.176,1.061 -0.176,1.618c0,1.81 1.002,2.715 3.006,2.715c1.142,0 2.043,-0.282 2.702,-0.848c0.66,-0.565 1.124,-1.498 1.393,-2.799l1.82,-8.587l0.887,0Z" style="fill:#444;fill-rule:nonzero;"/><path d="M767.811,358.243c0,1.482 -0.321,2.834 -0.962,4.056c-0.642,1.222 -1.522,2.139 -2.641,2.751c-1.12,0.612 -2.426,0.919 -3.92,0.919l-2.901,0l2.725,-12.85l2.68,0c1.653,0 2.902,0.432 3.749,1.296c0.847,0.865 1.27,2.141 1.27,3.828Zm-7.541,6.935c1.324,0 2.48,-0.277 3.467,-0.831c0.988,-0.554 1.752,-1.361 2.294,-2.421c0.542,-1.061 0.813,-2.268 0.813,-3.621c0,-2.918 -1.394,-4.377 -4.183,-4.377l-1.811,0l-2.417,11.25l1.837,0Z" style="fill:#444;fill-rule:nonzero;"/></g></svg>